<?xml version="1.0" encoding="UTF-8"?><svg id="BG_copy" xmlns="http://www.w3.org/2000/svg" viewBox="0 0 400 244.63"><defs><style>.cls-1{fill:#fff;}.cls-2{fill:#e4c089;}</style></defs><path class="cls-2" d="M335.72,163.53H64.28c-17.63,0-31.97-14.34-31.97-31.97s14.34-31.97,31.97-31.97h271.43c17.63,0,31.97,14.34,31.97,31.97s-14.34,31.97-31.97,31.97ZM64.28,101.54c-16.55,0-30.01,13.46-30.01,30.02s13.46,30.01,30.01,30.01h271.43c16.55,0,30.01-13.46,30.01-30.01s-13.46-30.02-30.01-30.02H64.28Z"/><path class="cls-1" d="M60.56,158.59c.61.09,1.14-.3,1.19-.9.05-.57-.35-1.11-.9-1.19-.55-.08-1.08.31-1.19.89-.11.57.3,1.11.9,1.21Z"/><path class="cls-1" d="M55.84,157.52c.28.11.59.07.83-.07.25-.13.43-.36.51-.64.08-.28.04-.56-.09-.79-.13-.23-.34-.4-.6-.51-.52-.19-1.11.09-1.32.64s.09,1.16.67,1.37Z"/><path class="cls-1" d="M51.39,155.63c.55.27,1.2.06,1.45-.47.25-.53.05-1.15-.45-1.39-.49-.27-1.11-.11-1.41.39-.3.5-.13,1.17.41,1.47Z"/><path class="cls-1" d="M47.35,152.96c.49.37,1.16.28,1.5-.19.34-.47.26-1.13-.19-1.46-.46-.32-1.08-.29-1.47.16-.38.43-.34,1.15.16,1.5Z"/><path class="cls-1" d="M43.85,149.63c.41.45,1.09.49,1.5.08.42-.41.45-1.07.08-1.48-.38-.41-1.05-.45-1.49-.09-.47.38-.5,1.04-.09,1.49Z"/><path class="cls-1" d="M40.98,145.74c.32.52.97.68,1.45.35.48-.33.64-.98.35-1.46-.29-.48-.94-.63-1.45-.35s-.67.93-.35,1.46Z"/><path class="cls-1" d="M38.83,141.41c.1.29.31.5.55.61.25.11.55.11.82,0,.27-.12.45-.33.56-.57.11-.25.14-.53.04-.79-.19-.52-.8-.8-1.35-.61-.55.19-.83.8-.62,1.38Z"/><path class="cls-1" d="M37.48,136.76c.1.6.72.97,1.27.83.58-.14.89-.68.8-1.23-.08-.55-.62-.93-1.2-.85-.58.08-.97.64-.88,1.25Z"/><path class="cls-1" d="M36.99,131.95c.03.61.53,1.08,1.11,1.04.58-.04,1.03-.52,1-1.07-.02-.28-.13-.53-.31-.72-.18-.19-.44-.31-.73-.32-.29,0-.56.1-.76.3-.21.19-.33.47-.31.77Z"/><path class="cls-1" d="M37.36,127.13c-.09.61.3,1.15.88,1.22s1.12-.32,1.2-.88c.08-.55-.31-1.1-.88-1.22-.57-.12-1.11.27-1.21.87Z"/><path class="cls-1" d="M38.56,122.45c-.21.58.07,1.18.64,1.35.55.17,1.17-.12,1.36-.64.19-.52-.09-1.13-.63-1.35-.54-.22-1.15.06-1.36.64Z"/><path class="cls-1" d="M40.57,118.05c-.33.51-.11,1.19.41,1.45.52.27,1.12.06,1.43-.4.29-.48.12-1.12-.37-1.43s-1.15-.14-1.47.38Z"/><path class="cls-1" d="M43.32,114.07c-.39.47-.29,1.17.17,1.52.47.36,1.1.27,1.46-.16.38-.41.33-1.07-.1-1.46-.43-.4-1.11-.35-1.52.11Z"/><path class="cls-1" d="M46.74,110.65c-.45.41-.5,1.09-.1,1.52s1.05.47,1.46.1c.42-.37.51-.99.15-1.46-.35-.46-1.05-.56-1.51-.16Z"/><path class="cls-1" d="M50.71,107.89c-.52.32-.69.97-.38,1.47.32.49.96.66,1.43.37.47-.31.66-.91.4-1.43-.27-.52-.94-.74-1.45-.4Z"/><path class="cls-1" d="M55.1,105.86c-.58.21-.86.82-.64,1.36.22.54.83.82,1.35.63.52-.19.81-.8.64-1.36-.17-.56-.78-.84-1.35-.63Z"/><path class="cls-1" d="M59.78,104.64c-.6.1-1,.63-.87,1.21.12.55.67.96,1.22.87.55-.08.94-.62.87-1.2-.07-.58-.61-.98-1.22-.88Z"/><path class="cls-1" d="M64.58,104.24c-.59,0-1.08.52-1.06,1.1.03.59.48,1.02,1.06,1.02.58,0,1.06-.47,1.06-1.06s-.47-1.06-1.06-1.06Z"/><path class="cls-1" d="M69.24,104.24c-.58,0-1.06.47-1.06,1.06s.47,1.06,1.06,1.06,1.06-.47,1.06-1.06-.47-1.06-1.06-1.06Z"/><path class="cls-1" d="M73.9,104.24c-.58,0-1.06.47-1.06,1.06s.47,1.06,1.06,1.06,1.06-.47,1.06-1.06-.47-1.06-1.06-1.06Z"/><path class="cls-1" d="M78.55,104.24c-.58,0-1.06.47-1.06,1.06s.47,1.06,1.06,1.06,1.06-.47,1.06-1.06-.47-1.06-1.06-1.06Z"/><path class="cls-1" d="M83.21,104.24c-.58,0-1.06.47-1.06,1.06s.47,1.06,1.06,1.06,1.06-.47,1.06-1.06-.47-1.06-1.06-1.06Z"/><path class="cls-1" d="M87.87,104.24c-.58,0-1.06.47-1.06,1.06s.47,1.06,1.06,1.06,1.06-.47,1.06-1.06-.47-1.06-1.06-1.06Z"/><path class="cls-1" d="M92.52,104.24c-.58,0-1.06.47-1.06,1.06s.47,1.06,1.06,1.06,1.06-.47,1.06-1.06-.47-1.06-1.06-1.06Z"/><path class="cls-1" d="M97.18,104.24c-.58,0-1.06.47-1.06,1.06s.47,1.06,1.06,1.06,1.06-.47,1.06-1.06-.47-1.06-1.06-1.06Z"/><path class="cls-1" d="M101.84,104.24c-.58,0-1.06.47-1.06,1.06s.47,1.06,1.06,1.06,1.06-.47,1.06-1.06-.47-1.06-1.06-1.06Z"/><path class="cls-1" d="M106.49,104.24c-.58,0-1.06.47-1.06,1.06s.47,1.06,1.06,1.06,1.06-.47,1.06-1.06-.47-1.06-1.06-1.06Z"/><path class="cls-1" d="M111.15,104.24c-.58,0-1.06.47-1.06,1.06s.47,1.06,1.06,1.06,1.06-.47,1.06-1.06-.47-1.06-1.06-1.06Z"/><path class="cls-1" d="M115.81,104.24c-.58,0-1.06.47-1.06,1.06s.47,1.06,1.06,1.06,1.06-.47,1.06-1.06-.47-1.06-1.06-1.06Z"/><path class="cls-1" d="M120.46,104.24c-.58,0-1.06.47-1.06,1.06s.47,1.06,1.06,1.06,1.06-.47,1.06-1.06-.47-1.06-1.06-1.06Z"/><path class="cls-1" d="M125.12,104.24c-.58,0-1.06.47-1.06,1.06s.47,1.06,1.06,1.06,1.06-.47,1.06-1.06-.47-1.06-1.06-1.06Z"/><path class="cls-1" d="M129.77,104.24c-.58,0-1.06.47-1.06,1.06s.47,1.06,1.06,1.06,1.06-.47,1.06-1.06-.47-1.06-1.06-1.06Z"/><path class="cls-1" d="M134.43,104.24c-.58,0-1.06.47-1.06,1.06s.47,1.06,1.06,1.06,1.06-.47,1.06-1.06-.47-1.06-1.06-1.06Z"/><path class="cls-1" d="M139.09,104.24c-.58,0-1.06.47-1.06,1.06s.47,1.06,1.06,1.06,1.06-.47,1.06-1.06-.47-1.06-1.06-1.06Z"/><path class="cls-1" d="M143.74,104.24c-.58,0-1.06.47-1.06,1.06s.47,1.06,1.06,1.06,1.06-.47,1.06-1.06-.47-1.06-1.06-1.06Z"/><path class="cls-1" d="M148.4,104.24c-.58,0-1.06.47-1.06,1.06s.47,1.06,1.06,1.06,1.06-.47,1.06-1.06-.47-1.06-1.06-1.06Z"/><path class="cls-1" d="M153.06,104.24c-.58,0-1.06.47-1.06,1.06s.47,1.06,1.06,1.06,1.06-.47,1.06-1.06-.47-1.06-1.06-1.06Z"/><path class="cls-1" d="M157.71,104.24c-.58,0-1.06.47-1.06,1.06s.47,1.06,1.06,1.06,1.06-.47,1.06-1.06-.47-1.06-1.06-1.06Z"/><path class="cls-1" d="M162.37,104.24c-.58,0-1.06.47-1.06,1.06s.47,1.06,1.06,1.06,1.06-.47,1.06-1.06-.47-1.06-1.06-1.06Z"/><path class="cls-1" d="M167.03,104.24c-.58,0-1.06.47-1.06,1.06s.47,1.06,1.06,1.06,1.06-.47,1.06-1.06-.47-1.06-1.06-1.06Z"/><path class="cls-1" d="M171.68,104.24c-.58,0-1.06.47-1.06,1.06s.47,1.06,1.06,1.06,1.06-.47,1.06-1.06-.47-1.06-1.06-1.06Z"/><path class="cls-1" d="M176.34,104.24c-.58,0-1.06.47-1.06,1.06s.47,1.06,1.06,1.06,1.06-.47,1.06-1.06-.47-1.06-1.06-1.06Z"/><path class="cls-1" d="M181,104.24c-.58,0-1.06.47-1.06,1.06s.47,1.06,1.06,1.06,1.06-.47,1.06-1.06-.47-1.06-1.06-1.06Z"/><path class="cls-1" d="M185.65,104.24c-.58,0-1.06.47-1.06,1.06s.47,1.06,1.06,1.06,1.06-.47,1.06-1.06-.47-1.06-1.06-1.06Z"/><path class="cls-1" d="M190.31,104.24c-.58,0-1.06.47-1.06,1.06s.47,1.06,1.06,1.06,1.06-.47,1.06-1.06-.47-1.06-1.06-1.06Z"/><path class="cls-1" d="M194.97,104.24c-.58,0-1.06.47-1.06,1.06s.47,1.06,1.06,1.06,1.06-.47,1.06-1.06-.47-1.06-1.06-1.06Z"/><path class="cls-1" d="M199.62,104.24c-.58,0-1.06.47-1.06,1.06s.47,1.06,1.06,1.06,1.06-.47,1.06-1.06-.47-1.06-1.06-1.06Z"/><path class="cls-1" d="M204.28,104.24c-.58,0-1.06.47-1.06,1.06s.47,1.06,1.06,1.06,1.06-.47,1.06-1.06-.47-1.06-1.06-1.06Z"/><path class="cls-1" d="M208.93,104.24c-.58,0-1.06.47-1.06,1.06s.47,1.06,1.06,1.06,1.06-.47,1.06-1.06-.47-1.06-1.06-1.06Z"/><path class="cls-1" d="M213.59,104.24c-.58,0-1.06.47-1.06,1.06s.47,1.06,1.06,1.06,1.06-.47,1.06-1.06-.47-1.06-1.06-1.06Z"/><path class="cls-1" d="M218.25,104.24c-.58,0-1.06.47-1.06,1.06s.47,1.06,1.06,1.06,1.06-.47,1.06-1.06-.47-1.06-1.06-1.06Z"/><path class="cls-1" d="M222.9,104.24c-.58,0-1.06.47-1.06,1.06s.47,1.06,1.06,1.06,1.06-.47,1.06-1.06-.47-1.06-1.06-1.06Z"/><path class="cls-1" d="M227.56,104.24c-.58,0-1.06.47-1.06,1.06s.47,1.06,1.06,1.06,1.06-.47,1.06-1.06-.47-1.06-1.06-1.06Z"/><path class="cls-1" d="M232.22,104.24c-.58,0-1.06.47-1.06,1.06s.47,1.06,1.06,1.06,1.06-.47,1.06-1.06-.47-1.06-1.06-1.06Z"/><path class="cls-1" d="M236.87,104.24c-.58,0-1.06.47-1.06,1.06s.47,1.06,1.06,1.06,1.06-.47,1.06-1.06-.47-1.06-1.06-1.06Z"/><path class="cls-1" d="M241.53,104.24c-.58,0-1.06.47-1.06,1.06s.47,1.06,1.06,1.06,1.06-.47,1.06-1.06-.47-1.06-1.06-1.06Z"/><path class="cls-1" d="M246.19,104.24c-.58,0-1.06.47-1.06,1.06s.47,1.06,1.06,1.06,1.06-.47,1.06-1.06-.47-1.06-1.06-1.06Z"/><path class="cls-1" d="M250.84,104.24c-.58,0-1.06.47-1.06,1.06s.47,1.06,1.06,1.06,1.06-.47,1.06-1.06-.47-1.06-1.06-1.06Z"/><path class="cls-1" d="M255.5,104.24c-.58,0-1.06.47-1.06,1.06s.47,1.06,1.06,1.06,1.06-.47,1.06-1.06-.47-1.06-1.06-1.06Z"/><path class="cls-1" d="M260.16,104.24c-.58,0-1.06.47-1.06,1.06s.47,1.06,1.06,1.06,1.06-.47,1.06-1.06-.47-1.06-1.06-1.06Z"/><path class="cls-1" d="M264.81,104.24c-.58,0-1.06.47-1.06,1.06s.47,1.06,1.06,1.06,1.06-.47,1.06-1.06-.47-1.06-1.06-1.06Z"/><path class="cls-1" d="M269.47,104.24c-.58,0-1.06.47-1.06,1.06s.47,1.06,1.06,1.06,1.06-.47,1.06-1.06-.47-1.06-1.06-1.06Z"/><path class="cls-1" d="M274.12,104.24c-.58,0-1.06.47-1.06,1.06s.47,1.06,1.06,1.06,1.06-.47,1.06-1.06-.47-1.06-1.06-1.06Z"/><path class="cls-1" d="M278.78,104.24c-.58,0-1.06.47-1.06,1.06s.47,1.06,1.06,1.06,1.06-.47,1.06-1.06-.47-1.06-1.06-1.06Z"/><path class="cls-1" d="M283.44,104.24c-.58,0-1.06.47-1.06,1.06s.47,1.06,1.06,1.06,1.06-.47,1.06-1.06-.47-1.06-1.06-1.06Z"/><path class="cls-1" d="M288.09,104.24c-.58,0-1.06.47-1.06,1.06s.47,1.06,1.06,1.06,1.06-.47,1.06-1.06-.47-1.06-1.06-1.06Z"/><path class="cls-1" d="M292.75,104.24c-.58,0-1.06.47-1.06,1.06s.47,1.06,1.06,1.06,1.06-.47,1.06-1.06-.47-1.06-1.06-1.06Z"/><path class="cls-1" d="M297.41,104.24c-.58,0-1.06.47-1.06,1.06s.47,1.06,1.06,1.06,1.06-.47,1.06-1.06-.47-1.06-1.06-1.06Z"/><path class="cls-1" d="M302.06,104.24c-.58,0-1.06.47-1.06,1.06s.47,1.06,1.06,1.06,1.06-.47,1.06-1.06-.47-1.06-1.06-1.06Z"/><path class="cls-1" d="M306.72,104.24c-.58,0-1.06.47-1.06,1.06s.47,1.06,1.06,1.06,1.06-.47,1.06-1.06-.47-1.06-1.06-1.06Z"/><path class="cls-1" d="M311.38,104.24c-.58,0-1.06.47-1.06,1.06s.47,1.06,1.06,1.06,1.06-.47,1.06-1.06-.47-1.06-1.06-1.06Z"/><path class="cls-1" d="M316.03,104.24c-.58,0-1.06.47-1.06,1.06s.47,1.06,1.06,1.06,1.06-.47,1.06-1.06-.47-1.06-1.06-1.06Z"/><path class="cls-1" d="M320.69,104.24c-.58,0-1.06.47-1.06,1.06s.47,1.06,1.06,1.06,1.06-.47,1.06-1.06-.47-1.06-1.06-1.06Z"/><path class="cls-1" d="M325.35,104.24c-.58,0-1.06.47-1.06,1.06s.47,1.06,1.06,1.06,1.06-.47,1.06-1.06-.47-1.06-1.06-1.06Z"/><path class="cls-1" d="M330,104.24c-.58,0-1.06.47-1.06,1.06s.47,1.06,1.06,1.06,1.06-.47,1.06-1.06-.47-1.06-1.06-1.06Z"/><path class="cls-1" d="M334.66,104.24c-.58,0-1.06.47-1.06,1.06s.47,1.06,1.06,1.06,1.06-.47,1.06-1.06-.47-1.06-1.06-1.06Z"/><path class="cls-1" d="M339.45,104.52c-.61-.09-1.14.3-1.19.9-.05.57.35,1.11.9,1.19.55.08,1.08-.31,1.19-.89s-.3-1.12-.9-1.21Z"/><path class="cls-1" d="M344.16,105.59c-.28-.11-.59-.07-.83.07-.25.13-.43.36-.51.64-.08.28-.04.56.09.79.13.23.34.4.6.51.52.19,1.11-.09,1.32-.64.21-.55-.09-1.16-.67-1.37Z"/><path class="cls-1" d="M348.61,107.49c-.55-.27-1.2-.06-1.45.47-.25.53-.05,1.15.45,1.39.49.27,1.11.11,1.41-.39.3-.5.13-1.17-.41-1.47Z"/><path class="cls-1" d="M352.65,110.16c-.49-.37-1.16-.28-1.5.19-.34.47-.26,1.13.19,1.46.46.32,1.08.29,1.47-.16.38-.43.34-1.15-.16-1.5Z"/><path class="cls-1" d="M356.15,113.49c-.41-.45-1.08-.49-1.5-.08-.42.41-.45,1.07-.08,1.48.38.41,1.05.45,1.49.09.47-.38.5-1.04.09-1.49Z"/><path class="cls-1" d="M359.02,117.38c-.32-.52-.97-.68-1.45-.35-.48.33-.64.98-.35,1.45.29.48.94.63,1.45.35.51-.28.67-.93.35-1.45Z"/><path class="cls-1" d="M361.17,121.71c-.1-.29-.31-.5-.55-.61-.25-.11-.55-.11-.82,0-.27.12-.45.33-.56.57-.11.25-.14.53-.04.79.19.52.8.8,1.35.61.55-.18.83-.8.62-1.38Z"/><path class="cls-1" d="M362.52,126.35c-.1-.6-.72-.97-1.27-.83-.58.14-.89.68-.8,1.23.08.55.62.93,1.2.84.58-.08.97-.64.88-1.25Z"/><path class="cls-1" d="M363.01,131.16c-.03-.61-.53-1.08-1.11-1.04-.58.04-1.03.52-1,1.07.02.28.13.53.31.72.18.19.44.31.73.32.29,0,.56-.1.76-.3.21-.19.33-.47.31-.77Z"/><path class="cls-1" d="M362.64,135.98c.09-.61-.3-1.15-.88-1.22-.58-.07-1.12.32-1.2.88-.08.55.31,1.1.88,1.22.57.12,1.11-.27,1.2-.87Z"/><path class="cls-1" d="M361.44,140.67c.21-.58-.07-1.18-.64-1.35-.55-.17-1.17.12-1.36.64-.19.52.09,1.13.63,1.35.54.22,1.15-.06,1.36-.64Z"/><path class="cls-1" d="M359.43,145.07c.33-.51.11-1.19-.41-1.45-.52-.27-1.12-.06-1.43.4-.29.48-.12,1.12.37,1.43.49.31,1.15.14,1.47-.38Z"/><path class="cls-1" d="M356.68,149.04c.39-.47.29-1.17-.17-1.52-.47-.36-1.1-.27-1.46.16-.38.41-.33,1.07.1,1.46.43.4,1.11.35,1.52-.11Z"/><path class="cls-1" d="M353.26,152.47c.45-.41.5-1.09.1-1.52-.4-.43-1.05-.47-1.46-.1-.42.37-.51.99-.15,1.46.35.46,1.05.56,1.51.16Z"/><path class="cls-1" d="M349.29,155.23c.52-.32.69-.97.38-1.47-.31-.49-.96-.66-1.43-.37-.47.31-.66.91-.4,1.43.27.52.94.74,1.45.4Z"/><path class="cls-1" d="M344.9,157.25c.58-.21.86-.82.64-1.36-.22-.54-.83-.82-1.35-.63-.52.19-.81.8-.64,1.36.17.56.78.84,1.35.63Z"/><path class="cls-1" d="M340.22,158.47c.6-.1,1-.63.87-1.21-.12-.55-.67-.96-1.22-.87-.55.08-.94.62-.87,1.2.07.58.61.98,1.22.88Z"/><path class="cls-1" d="M335.42,158.87c.59,0,1.08-.52,1.06-1.1-.03-.59-.48-1.02-1.06-1.02-.58,0-1.06.47-1.06,1.06s.47,1.06,1.06,1.06Z"/><path class="cls-1" d="M330.76,158.87c.58,0,1.06-.47,1.06-1.06s-.47-1.06-1.06-1.06-1.06.47-1.06,1.06.47,1.06,1.06,1.06Z"/><circle class="cls-1" cx="326.1" cy="157.82" r="1.06"/><path class="cls-1" d="M321.45,158.87c.58,0,1.06-.47,1.06-1.06s-.47-1.06-1.06-1.06-1.06.47-1.06,1.06.47,1.06,1.06,1.06Z"/><circle class="cls-1" cx="316.79" cy="157.82" r="1.06"/><path class="cls-1" d="M312.13,158.87c.58,0,1.06-.47,1.06-1.06s-.47-1.06-1.06-1.06-1.06.47-1.06,1.06.47,1.06,1.06,1.06Z"/><circle class="cls-1" cx="307.48" cy="157.82" r="1.06"/><path class="cls-1" d="M302.82,158.87c.58,0,1.06-.47,1.06-1.06s-.47-1.06-1.06-1.06-1.06.47-1.06,1.06.47,1.06,1.06,1.06Z"/><circle class="cls-1" cx="298.16" cy="157.82" r="1.06"/><path class="cls-1" d="M293.51,158.87c.58,0,1.06-.47,1.06-1.06s-.47-1.06-1.06-1.06-1.06.47-1.06,1.06.47,1.06,1.06,1.06Z"/><circle class="cls-1" cx="288.85" cy="157.82" r="1.06" transform="translate(130.57 446.41) rotate(-89.91)"/><path class="cls-1" d="M284.19,158.87c.58,0,1.06-.47,1.06-1.06s-.47-1.06-1.06-1.06-1.06.47-1.06,1.06.47,1.06,1.06,1.06Z"/><circle class="cls-1" cx="279.54" cy="157.82" r="1.06"/><path class="cls-1" d="M274.88,158.87c.58,0,1.06-.47,1.06-1.06s-.47-1.06-1.06-1.06-1.06.47-1.06,1.06.47,1.06,1.06,1.06Z"/><circle class="cls-1" cx="270.23" cy="157.82" r="1.06"/><path class="cls-1" d="M265.57,158.87c.58,0,1.06-.47,1.06-1.06s-.47-1.06-1.06-1.06-1.06.47-1.06,1.06.47,1.06,1.06,1.06Z"/><circle class="cls-1" cx="260.91" cy="157.82" r="1.06"/><circle class="cls-1" cx="256.26" cy="157.82" r="1.06"/><circle class="cls-1" cx="251.6" cy="157.82" r="1.06"/><path class="cls-1" d="M246.94,158.87c.58,0,1.06-.47,1.06-1.06s-.47-1.06-1.06-1.06-1.06.47-1.06,1.06.47,1.06,1.06,1.06Z"/><circle class="cls-1" cx="242.29" cy="157.82" r="1.06"/><circle class="cls-1" cx="237.63" cy="157.82" r="1.06"/><circle class="cls-1" cx="232.97" cy="157.82" r="1.06"/><circle class="cls-1" cx="228.32" cy="157.82" r="1.06"/><circle class="cls-1" cx="223.66" cy="157.82" r="1.06"/><path class="cls-1" d="M219,158.87c.58,0,1.06-.47,1.06-1.06s-.47-1.06-1.06-1.06-1.06.47-1.06,1.06.47,1.06,1.06,1.06Z"/><circle class="cls-1" cx="214.35" cy="157.82" r="1.06"/><path class="cls-1" d="M209.69,158.87c.58,0,1.06-.47,1.06-1.06s-.47-1.06-1.06-1.06-1.06.47-1.06,1.06.47,1.06,1.06,1.06Z"/><circle class="cls-1" cx="205.03" cy="157.82" r="1.06"/><circle class="cls-1" cx="200.38" cy="157.82" r="1.06"/><circle class="cls-1" cx="195.72" cy="157.82" r="1.06" transform="translate(37.7 353.37) rotate(-89.94)"/><circle class="cls-1" cx="191.07" cy="157.82" r="1.06"/><circle class="cls-1" cx="186.41" cy="157.82" r="1.06"/><circle class="cls-1" cx="181.75" cy="157.82" r="1.06"/><circle class="cls-1" cx="177.1" cy="157.82" r="1.06"/><circle class="cls-1" cx="172.44" cy="157.82" r="1.06"/><circle class="cls-1" cx="167.78" cy="157.82" r="1.06"/><circle class="cls-1" cx="163.13" cy="157.82" r="1.06"/><circle class="cls-1" cx="158.47" cy="157.82" r="1.06"/><circle class="cls-1" cx="153.81" cy="157.82" r="1.06"/><path class="cls-1" d="M149.16,158.87c.58,0,1.06-.47,1.06-1.06s-.47-1.06-1.06-1.06-1.06.47-1.06,1.06.47,1.06,1.06,1.06Z"/><circle class="cls-1" cx="144.5" cy="157.82" r="1.06"/><path class="cls-1" d="M139.84,158.87c.58,0,1.06-.47,1.06-1.06s-.47-1.06-1.06-1.06-1.06.47-1.06,1.06.47,1.06,1.06,1.06Z"/><circle class="cls-1" cx="135.19" cy="157.82" r="1.06"/><circle class="cls-1" cx="130.53" cy="157.82" r="1.06"/><circle class="cls-1" cx="125.88" cy="157.82" r="1.06"/><path class="cls-1" d="M121.22,158.87c.58,0,1.06-.47,1.06-1.06s-.47-1.06-1.06-1.06-1.06.47-1.06,1.06.47,1.06,1.06,1.06Z"/><circle class="cls-1" cx="116.56" cy="157.82" r="1.06"/><path class="cls-1" d="M111.91,158.87c.58,0,1.06-.47,1.06-1.06s-.47-1.06-1.06-1.06-1.06.47-1.06,1.06.47,1.06,1.06,1.06Z"/><circle class="cls-1" cx="107.25" cy="157.82" r="1.06"/><path class="cls-1" d="M102.59,158.87c.58,0,1.06-.47,1.06-1.06s-.47-1.06-1.06-1.06-1.06.47-1.06,1.06.47,1.06,1.06,1.06Z"/><circle class="cls-1" cx="97.94" cy="157.82" r="1.06"/><path class="cls-1" d="M93.28,158.87c.58,0,1.06-.47,1.06-1.06s-.47-1.06-1.06-1.06-1.06.47-1.06,1.06.47,1.06,1.06,1.06Z"/><circle class="cls-1" cx="88.62" cy="157.82" r="1.06"/><path class="cls-1" d="M83.97,158.87c.58,0,1.06-.47,1.06-1.06s-.47-1.06-1.06-1.06-1.06.47-1.06,1.06.47,1.06,1.06,1.06Z"/><circle class="cls-1" cx="79.31" cy="157.82" r="1.06"/><path class="cls-1" d="M74.65,158.87c.58,0,1.06-.47,1.06-1.06s-.47-1.06-1.06-1.06-1.06.47-1.06,1.06.47,1.06,1.06,1.06Z"/><circle class="cls-1" cx="70" cy="157.82" r="1.06"/><path class="cls-1" d="M65.34,158.87c.58,0,1.06-.47,1.06-1.06s-.47-1.06-1.06-1.06-1.06.47-1.06,1.06.47,1.06,1.06,1.06Z"/><path class="cls-2" d="M314.84,91.51c-14.5,0-18.16-16.35-18.84-20.34h-45.17l-50.47,20.27-.73-1.81,50.82-20.41h47.26l.1.87c.09.8,2.35,19.47,17.03,19.47v1.95Z"/><path class="cls-2" d="M85.05,91.51v-1.95c6.58,0,11.43-3.22,14.43-9.56,2.29-4.86,2.59-9.81,2.59-9.86l.05-.92h.92s46.38,0,46.38,0l51.24,20.41-.72,1.81-50.89-20.27h-45.12c-.49,4.09-3.4,20.34-18.88,20.34Z"/><polygon class="cls-2" points="334.57 101.27 325.93 91.51 73.96 91.51 65.32 101.27 63.86 99.98 73.08 89.56 326.81 89.56 336.03 99.98 334.57 101.27"/><rect class="cls-2" x="199.02" y="29.28" width="1.95" height="61.26"/><rect class="cls-2" x="177.17" y="59.66" width="61.99" height="1.95" transform="translate(94.87 245.49) rotate(-74.74)"/><rect class="cls-2" x="183.91" y="61.78" width="64.06" height="1.95" transform="translate(54.01 218.79) rotate(-60.14)"/><rect class="cls-2" x="189.75" y="65.36" width="67.38" height="1.95" transform="translate(20.35 180.7) rotate(-45.92)"/><rect class="cls-2" x="194.28" y="70.14" width="71.6" height="1.95" transform="translate(-1.78 136.18) rotate(-32.85)"/><rect class="cls-2" x="191.18" y="29.64" width="1.95" height="61.99" transform="translate(-9.18 52.73) rotate(-15.26)"/><rect class="cls-2" x="183.39" y="30.72" width="1.95" height="64.06" transform="translate(-6.77 100.11) rotate(-29.85)"/><rect class="cls-2" x="175.9" y="32.64" width="1.95" height="67.38" transform="translate(3.67 141.73) rotate(-44.08)"/><rect class="cls-2" x="169.26" y="35.32" width="1.95" height="71.6" transform="translate(18.16 175.57) rotate(-57.15)"/><path class="cls-2" d="M275.68,70.73c-16.97-25.35-45.29-40.48-75.75-40.48s-58.54,15.01-75.53,40.16l-1.62-1.09c17.35-25.69,46.19-41.02,77.15-41.02s60.04,15.46,77.37,41.35l-1.62,1.09Z"/><path class="cls-2" d="M284.95,70.69c-8.63-14.45-20.88-26.55-35.43-34.99-15-8.7-32.14-13.3-49.58-13.3s-34.46,4.57-49.42,13.2c-14.51,8.38-26.75,20.4-35.4,34.76l-1.67-1.01c8.82-14.64,21.3-26.9,36.1-35.45,15.25-8.81,32.68-13.47,50.39-13.47s35.26,4.69,50.56,13.56c14.84,8.61,27.33,20.95,36.13,35.68l-1.68,1Z"/><path class="cls-1" d="M278.33,67.54c.33.47.99.58,1.48.25.48-.33.59-.99.25-1.47-.34-.48-1-.59-1.48-.25-.47.34-.59,1-.25,1.47Z"/><path class="cls-1" d="M275.6,63.85c.36.45,1.02.53,1.49.18.47-.35.55-1.01.18-1.48-.36-.46-1.03-.55-1.49-.18-.46.36-.54,1.03-.18,1.48Z"/><path class="cls-1" d="M272.69,60.29c.38.44,1.05.48,1.49.11s.5-1.04.11-1.49c-.39-.45-1.06-.5-1.49-.11-.44.39-.49,1.05-.11,1.49Z"/><path class="cls-1" d="M269.62,56.88c.4.42,1.07.43,1.5.04.43-.4.45-1.06.04-1.49-.41-.43-1.08-.44-1.5-.04-.42.41-.44,1.07-.04,1.49Z"/><path class="cls-1" d="M266.39,53.61c.42.4,1.09.38,1.5-.03s.4-1.08-.03-1.49c-.43-.41-1.1-.39-1.5.03s-.39,1.09.03,1.49Z"/><path class="cls-1" d="M263.01,50.51c.44.38,1.1.33,1.49-.1s.34-1.1-.1-1.49c-.45-.39-1.12-.34-1.49.1-.38.44-.33,1.11.1,1.49Z"/><path class="cls-1" d="M259.48,47.57c.45.36,1.12.28,1.49-.18.37-.45.29-1.12-.17-1.48-.46-.36-1.13-.29-1.49.18-.36.46-.28,1.12.17,1.48Z"/><path class="cls-1" d="M255.82,44.8c.47.33,1.13.22,1.48-.25.35-.47.24-1.13-.24-1.47-.48-.34-1.14-.23-1.48.25-.33.48-.23,1.14.24,1.47Z"/><path class="cls-1" d="M252.02,42.21c.48.31,1.14.17,1.46-.32.32-.49.18-1.14-.31-1.46-.5-.32-1.15-.18-1.46.32-.31.49-.17,1.15.31,1.46Z"/><path class="cls-1" d="M248.11,39.8c.5.29,1.15.11,1.45-.39.3-.5.13-1.15-.38-1.44-.51-.29-1.16-.12-1.45.39-.29.51-.12,1.15.38,1.44Z"/><path class="cls-1" d="M244.09,37.59c.51.26,1.15.06,1.43-.46.28-.51.07-1.15-.45-1.42-.53-.27-1.16-.06-1.43.46-.26.52-.06,1.16.45,1.42Z"/><path class="cls-1" d="M239.97,35.57c.52.24,1.15,0,1.4-.53.25-.53.02-1.15-.52-1.4-.54-.24-1.17,0-1.4.53-.24.53,0,1.16.52,1.4Z"/><path class="cls-1" d="M235.75,33.75c.54.21,1.15-.05,1.38-.59.23-.54-.04-1.15-.59-1.37-.55-.22-1.17.05-1.38.59-.21.54.05,1.16.59,1.37Z"/><path class="cls-1" d="M231.45,32.14c.54.18,1.15-.11,1.35-.66.2-.55-.09-1.15-.65-1.34-.56-.19-1.16.11-1.35.66-.18.55.11,1.15.65,1.34Z"/><path class="cls-1" d="M227.08,30.74c.55.16,1.14-.17,1.31-.73s-.15-1.14-.72-1.3-1.16.16-1.31.73.16,1.15.72,1.3Z"/><path class="cls-1" d="M222.65,29.54c.56.13,1.13-.22,1.28-.79.14-.57-.2-1.13-.78-1.26-.58-.13-1.15.22-1.28.79-.13.57.22,1.14.78,1.26Z"/><path class="cls-1" d="M218.16,28.57c.57.1,1.12-.28,1.24-.85.12-.57-.26-1.12-.84-1.22s-1.14.28-1.24.85c-.1.57.27,1.12.84,1.22Z"/><path class="cls-1" d="M213.63,27.81c.57.07,1.11-.34,1.2-.91.09-.59-.31-1.11-.9-1.18-.59-.07-1.12.33-1.2.91-.07.58.33,1.11.9,1.18Z"/><path class="cls-1" d="M209.07,27.27c.57.03,1.09-.38,1.15-.96.06-.59-.36-1.11-.95-1.15-.59-.04-1.1.39-1.15.97s.38,1.09.95,1.13Z"/><path class="cls-1" d="M204.49,26.94c.58,0,1.07-.41,1.1-1,.03-.58-.41-1.11-1-1.11-.59-.02-1.08.45-1.1,1.03-.02.58.43,1.07,1.01,1.08Z"/><path class="cls-1" d="M199.9,26.83c.58,0,1.05-.45,1.05-1.04,0-.58-.47-1.07-1.06-1.08-.59.01-1.06.5-1.05,1.08,0,.58.48,1.05,1.06,1.03Z"/><path class="cls-1" d="M195.3,26.95c.58-.01,1.02-.5,1-1.08s-.52-1.04-1.11-1.03c-.59.02-1.04.55-1,1.12.04.59.53,1.01,1.1.99Z"/><path class="cls-1" d="M190.72,27.28c.57-.04,1-.55.95-1.13-.05-.58-.56-1.02-1.15-.97-.59.03-1.01.58-.95,1.16.06.58.58.98,1.15.95Z"/><path class="cls-1" d="M186.16,27.84c.57-.07.97-.6.9-1.18-.08-.58-.61-.99-1.2-.91-.59.07-.99.61-.89,1.19.09.57.62.96,1.2.9Z"/><path class="cls-1" d="M181.64,28.61c.57-.1.94-.65.84-1.22-.1-.57-.66-.96-1.24-.85-.58.11-.96.65-.84,1.23.12.56.67.95,1.24.85Z"/><path class="cls-1" d="M177.15,29.59c.56-.13.91-.7.78-1.26s-.7-.92-1.28-.79c-.58.13-.92.7-.78,1.26.15.57.72.92,1.28.79Z"/><path class="cls-1" d="M172.72,30.79c.55-.16.87-.74.71-1.3-.16-.56-.75-.89-1.32-.73-.57.16-.89.74-.71,1.3.17.56.76.88,1.32.73Z"/><path class="cls-1" d="M168.35,32.21c.54-.18.84-.78.65-1.34-.19-.55-.79-.85-1.35-.66-.56.19-.85.79-.65,1.34.2.55.8.84,1.35.66Z"/><path class="cls-1" d="M164.06,33.83c.54-.21.8-.82.58-1.37-.21-.54-.83-.81-1.38-.59s-.81.83-.58,1.37c.23.54.84.8,1.38.59Z"/><path class="cls-1" d="M159.84,35.66c.52-.24.76-.86.52-1.39-.24-.53-.87-.77-1.41-.52-.54.24-.77.87-.52,1.39.25.53.88.76,1.41.52Z"/><path class="cls-1" d="M155.72,37.68c.51-.26.71-.9.45-1.42-.26-.52-.9-.73-1.43-.46-.53.27-.73.9-.45,1.42s.92.72,1.43.46Z"/><path class="cls-1" d="M151.71,39.91c.5-.29.67-.93.38-1.44-.29-.51-.94-.68-1.45-.39-.51.29-.68.94-.38,1.44.3.5.95.67,1.45.39Z"/><path class="cls-1" d="M147.8,42.32c.48-.31.62-.96.31-1.46-.31-.49-.97-.63-1.47-.32s-.64.97-.31,1.46c.32.49.98.63,1.47.32Z"/><path class="cls-1" d="M144.01,44.92c.47-.33.58-.99.24-1.47-.34-.48-1-.59-1.48-.25-.48.34-.59,1-.24,1.47.35.47,1.01.58,1.48.25Z"/><path class="cls-1" d="M140.36,47.7c.45-.36.53-1.02.17-1.48s-1.02-.54-1.49-.17c-.46.36-.54,1.03-.17,1.48.37.45,1.04.53,1.49.17Z"/><path class="cls-1" d="M136.84,50.64c.43-.38.48-1.04.1-1.49s-1.05-.49-1.5-.1c-.45.39-.49,1.05-.1,1.49.39.43,1.06.48,1.5.1Z"/><path class="cls-1" d="M133.46,53.76c.42-.4.43-1.06.03-1.49-.4-.42-1.07-.44-1.5-.03-.43.41-.44,1.07-.03,1.49.41.41,1.08.43,1.5.03Z"/><path class="cls-1" d="M130.24,57.03c.4-.42.38-1.08-.04-1.49-.42-.41-1.09-.39-1.5.04-.41.43-.39,1.09.04,1.49.43.39,1.1.38,1.5-.04Z"/><path class="cls-1" d="M127.17,60.45c.38-.43.33-1.1-.11-1.48-.44-.38-1.11-.34-1.49.11-.39.45-.34,1.11.11,1.48.45.37,1.12.32,1.49-.11Z"/><path class="cls-1" d="M124.27,64.01c.36-.45.27-1.11-.18-1.48-.46-.36-1.12-.28-1.49.18-.36.46-.28,1.13.18,1.48s1.13.27,1.49-.18Z"/><path class="cls-1" d="M121.55,67.71c.33-.47.22-1.13-.25-1.47-.47-.34-1.14-.23-1.48.25-.34.48-.23,1.14.25,1.47.48.33,1.14.22,1.48-.25Z"/><path class="cls-2" d="M297.76,193.9H102.18l-.1-.87s-.58-5.02-3.02-9.89c-3.18-6.36-7.89-9.58-14.01-9.58v-1.95c14.5,0,18.16,16.35,18.84,20.34h192.05c.19-1.74.81-5.65,2.67-9.61,3.3-7.02,8.9-10.73,16.22-10.73v1.95c-6.6,0-11.46,3.23-14.45,9.61-2.28,4.86-2.57,9.76-2.57,9.81l-.05.92Z"/><polygon class="cls-2" points="326.81 173.56 73.08 173.56 63.86 163.14 65.32 161.84 73.96 171.6 325.93 171.6 334.57 161.84 336.03 163.14 326.81 173.56"/><path class="cls-2" d="M200,229.24l-.23-.06c-.14-.03-14.22-3.52-30.25-9.61-21.6-8.2-36.27-16.96-43.59-26.04l1.52-1.23c16.43,20.36,68.6,33.91,72.55,34.92,3.95-1,56.01-14.49,72.43-34.76l1.52,1.23c-7.32,9.04-21.97,17.76-43.53,25.93-15.99,6.06-30.04,9.53-30.18,9.56l-.23.06Z"/><path class="cls-2" d="M199.94,215.31c-22.21,0-43.92-7.68-61.14-21.63l1.23-1.52c16.87,13.67,38.15,21.2,59.91,21.2s43.03-7.53,59.91-21.19l1.23,1.52c-17.22,13.95-38.93,21.63-61.14,21.63Z"/><rect class="cls-2" x="198.96" y="192.92" width="1.95" height="21.41"/><rect class="cls-2" x="208.49" y="192.92" width="1.95" height="20.83"/><rect class="cls-2" x="218.02" y="192.92" width="1.95" height="19.8"/><rect class="cls-2" x="227.56" y="192.92" width="1.95" height="17.37"/><rect class="cls-2" x="237.09" y="192.92" width="1.95" height="13.56"/><rect class="cls-2" x="246.62" y="192.92" width="1.95" height="8.88"/><rect class="cls-2" x="189.43" y="192.92" width="1.95" height="20.83"/><rect class="cls-2" x="179.89" y="192.92" width="1.95" height="19.8"/><rect class="cls-2" x="170.36" y="192.92" width="1.95" height="17.37"/><rect class="cls-2" x="160.83" y="192.92" width="1.95" height="13.56"/><rect class="cls-2" x="151.3" y="192.92" width="1.95" height="8.88"/><path class="cls-1" d="M138.73,196.17c-.43-.38-1.1-.32-1.47.12-.38.44-.33,1.12.12,1.5.44.39,1.13.31,1.49-.14.37-.46.29-1.1-.14-1.48Z"/><path class="cls-1" d="M142.33,199.02c-.45-.36-1.11-.27-1.47.19-.36.46-.27,1.13.19,1.5.46.37,1.14.25,1.48-.21.35-.47.24-1.11-.21-1.47Z"/><path class="cls-1" d="M146.06,201.7c-.47-.33-1.12-.22-1.46.26-.34.48-.22,1.14.26,1.48.48.35,1.15.2,1.47-.28.33-.49.18-1.12-.28-1.46Z"/><path class="cls-1" d="M149.91,204.2c-.48-.31-1.13-.16-1.44.33-.31.49-.16,1.15.33,1.47.49.33,1.16.15,1.46-.35.3-.5.13-1.13-.35-1.45Z"/><path class="cls-1" d="M153.88,206.51c-.5-.29-1.14-.11-1.42.4-.29.51-.11,1.16.4,1.45.51.3,1.16.09,1.44-.42.28-.52.08-1.14-.42-1.43Z"/><path class="cls-1" d="M157.95,208.63c-.51-.26-1.14-.05-1.4.47-.26.52-.05,1.16.47,1.43.52.28,1.16.04,1.41-.49.25-.53.02-1.14-.48-1.41Z"/><path class="cls-1" d="M162.13,210.55c-.52-.24-1.14,0-1.38.54-.24.53,0,1.16.54,1.41.53.25,1.16-.01,1.39-.55.22-.54-.03-1.14-.55-1.39Z"/><path class="cls-1" d="M166.39,212.26c-.54-.21-1.14.06-1.35.6-.21.54.06,1.16.61,1.38.55.22,1.16-.06,1.36-.62.2-.54-.08-1.14-.62-1.36Z"/><path class="cls-1" d="M170.72,213.77c-.54-.18-1.14.11-1.32.67-.19.55.12,1.16.68,1.34.56.19,1.15-.11,1.33-.68.17-.55-.14-1.15-.68-1.34Z"/><path class="cls-1" d="M175.13,215.06c-.55-.16-1.13.17-1.29.73-.16.56.17,1.15.74,1.31.57.16,1.14-.16,1.29-.74.14-.56-.19-1.15-.74-1.31Z"/><path class="cls-1" d="M179.59,216.14c-.56-.13-1.12.23-1.25.8-.13.57.23,1.14.8,1.27.58.13,1.14-.22,1.25-.8.12-.57-.24-1.14-.8-1.27Z"/><path class="cls-1" d="M184.1,217.01c-.57-.1-1.11.28-1.21.86-.1.57.28,1.12.86,1.23.58.1,1.12-.28,1.21-.86.09-.58-.3-1.13-.86-1.23Z"/><path class="cls-1" d="M188.65,217.65c-.57-.07-1.1.34-1.17.92-.08.58.34,1.11.92,1.18.59.07,1.11-.34,1.17-.92.06-.58-.35-1.11-.92-1.18Z"/><path class="cls-1" d="M193.22,218.08c-.57-.04-1.08.39-1.13.97-.05.58.39,1.09.98,1.13.59.04,1.09-.39,1.13-.97.03-.58-.4-1.09-.98-1.13Z"/><path class="cls-1" d="M197.81,218.29c-.58-.01-1.06.45-1.08,1.03-.02.58.44,1.07,1.03,1.08.59.01,1.07-.45,1.08-1.03,0-.58-.46-1.07-1.03-1.08Z"/><path class="cls-1" d="M202.4,218.28c-.58.01-1.04.5-1.03,1.08,0,.58.49,1.05,1.08,1.03.59-.01,1.05-.5,1.03-1.08-.02-.58-.51-1.04-1.08-1.03Z"/><path class="cls-1" d="M206.99,218.06c-.57.04-1.01.55-.98,1.13.03.58.54,1.02,1.13.97.59-.04,1.03-.55.98-1.13-.05-.58-.55-1.02-1.13-.97Z"/><path class="cls-1" d="M211.56,217.62c-.57.07-.98.6-.92,1.18.06.58.59.99,1.17.92.59-.07,1-.6.92-1.18-.08-.58-.6-.99-1.17-.92Z"/><path class="cls-1" d="M216.1,216.97c-.57.1-.95.65-.86,1.23.09.58.63.96,1.22.86.58-.1.97-.65.86-1.23-.1-.57-.65-.96-1.22-.86Z"/><path class="cls-1" d="M220.61,216.1c-.56.13-.92.7-.8,1.27.12.57.68.93,1.25.8.58-.13.93-.7.8-1.27-.13-.57-.69-.92-1.25-.8Z"/><path class="cls-1" d="M225.07,215.01c-.55.16-.88.74-.74,1.31.15.57.72.89,1.29.73.57-.16.9-.75.74-1.31-.16-.56-.74-.89-1.29-.73Z"/><path class="cls-1" d="M229.47,213.7c-.54.18-.85.79-.67,1.34.17.56.77.86,1.32.67.56-.19.86-.79.67-1.34-.19-.55-.78-.85-1.32-.67Z"/><path class="cls-1" d="M233.81,212.18c-.54.21-.81.83-.61,1.37.2.56.81.82,1.36.61.55-.22.82-.83.61-1.38-.21-.54-.82-.81-1.36-.6Z"/><path class="cls-1" d="M238.06,210.46c-.52.24-.77.86-.54,1.4.23.55.85.79,1.39.54.54-.24.78-.87.54-1.4-.24-.53-.86-.77-1.38-.53Z"/><path class="cls-1" d="M242.23,208.53c-.51.27-.73.9-.48,1.42.25.53.89.75,1.41.48.53-.27.74-.91.47-1.43-.26-.52-.89-.73-1.41-.47Z"/><path class="cls-1" d="M246.3,206.41c-.5.29-.68.93-.41,1.44.28.52.92.71,1.43.41.51-.29.69-.94.4-1.45-.29-.51-.93-.69-1.43-.4Z"/><path class="cls-1" d="M250.27,204.09c-.48.32-.64.96-.34,1.46.3.5.96.67,1.45.34.5-.32.65-.98.33-1.47-.31-.49-.96-.64-1.44-.33Z"/><path class="cls-1" d="M254.11,201.58c-.46.34-.59.99-.27,1.47.33.49.99.62,1.47.27.48-.34.6-1.01.26-1.48-.34-.48-.99-.59-1.46-.26Z"/><path class="cls-1" d="M257.84,198.89c-.45.36-.55,1.01-.2,1.48.35.47,1.02.57,1.48.2.46-.36.55-1.03.19-1.49-.36-.46-1.02-.55-1.47-.19Z"/><path class="cls-1" d="M261.43,196.03c-.43.38-.5,1.04-.13,1.49.37.45,1.05.53,1.49.13.45-.39.5-1.06.12-1.5-.38-.44-1.04-.5-1.48-.12Z"/><path class="cls-1" d="M61.67,149.28c-1.07,0-1.82-.23-2.26-.68-.44-.45-.66-.95-.66-1.48,0-.61.17-1.07.52-1.36s.73-.44,1.16-.44c.37,0,.7.11.98.34.28.23.42.57.42,1.02,0,.32-.12.64-.36.96.13.05.28.09.44.1.16.01.31.02.44.02,1.68,0,3.21-.65,4.58-1.94,1.37-1.29,2.41-3.07,3.1-5.34-1.55-.32-2.81-.85-3.78-1.58s-1.46-1.57-1.46-2.5c0-.64.2-1.23.6-1.76.4-.53.95-1.01,1.64-1.44s1.51-.79,2.44-1.1c.93-.31,1.93-.53,3-.66l3.04-11.2c.24-.99.4-1.76.48-2.32h-.92c-.88,0-1.67.29-2.38.86-.71.57-1.21,1.35-1.5,2.34l-.16-.04.72-5.88c.11.11.31.19.62.24.31.05.65.08,1.02.08h11.52c.37,0,.71-.03,1.02-.08.31-.05.51-.13.62-.24l.72,5.88-.16.04c-.29-.99-.79-1.77-1.5-2.34-.71-.57-1.5-.86-2.38-.86h-.68c.05.29.12.63.2,1.02.08.39.19.82.32,1.3l6,21.28c.24.8.45,1.47.64,2.02.19.55.39.99.6,1.34.21.35.45.61.7.8.25.19.54.33.86.44v.12h-7.28v-.12c.59-.21.91-.66.98-1.34.07-.68-.11-1.77-.54-3.26l-1.36-4.84c-.4-.69-.91-1.3-1.52-1.82-.61-.52-1.29-.95-2.04-1.28-.75-.33-1.54-.58-2.38-.74s-1.67-.24-2.5-.24l-1.88,6.92c.32,0,.74-.03,1.26-.08.52-.05,1.03-.15,1.54-.3.51-.15.95-.35,1.32-.62.37-.27.56-.61.56-1.04,0-.37-.16-.64-.48-.8-.32-.16-.63-.24-.92-.24-.37,0-.72.08-1.04.24.32-.69.81-1.21,1.46-1.54.65-.33,1.33-.5,2.02-.5s1.31.17,1.84.5c.53.33.8.82.8,1.46,0,.59-.22,1.13-.66,1.64-.44.51-1.05.95-1.82,1.32s-1.67.67-2.7.9c-1.03.23-2.13.34-3.3.34h-.24c-.37,1.57-.49,2.81-.34,3.7.15.89.53,1.53,1.14,1.9l-.68.92c-.59-.32-1.33-.43-2.24-.32.05-.37-.02-.65-.22-.82s-.43-.26-.7-.26c-.29,0-.55.1-.78.3-.23.2-.34.49-.34.86,0,.16.01.28.04.36-1.17.35-2.34.74-3.5,1.18s-2.39.66-3.7.66ZM72.07,133c-1.01.29-1.83.71-2.44,1.24-.61.53-.92,1.15-.92,1.84,0,.53.17,1.03.5,1.5.33.47.77.86,1.3,1.18l1.56-5.76ZM78.79,119.48l-3.2,11.8c1.25.05,2.48.22,3.68.5,1.2.28,2.32.71,3.36,1.3l-3.84-13.6Z"/><path class="cls-1" d="M92.07,142.84c.64-.21,1.09-.66,1.34-1.34.25-.68.38-1.77.38-3.26v-13.36c0-1.49-.13-2.58-.38-3.26-.25-.68-.7-1.13-1.34-1.34v-.12h12.48c.29,0,.61-.02.94-.06s.57-.13.7-.26l-2.12,4.32-.12-.04c.13-1.12-.64-1.68-2.32-1.68h-4.24v6h.08c.29-.53.67-.96,1.14-1.28s1.01-.48,1.62-.48c.37,0,.73.05,1.06.14.33.09.66.2.98.32.32.12.65.23.98.34.33.11.66.16.98.16.67,0,1.16-.25,1.48-.76l.12.04c-.08.37-.23.75-.44,1.14-.21.39-.47.73-.76,1.04-.29.31-.62.56-.98.76-.36.2-.75.3-1.18.3-.35,0-.68-.06-1-.18-.32-.12-.64-.25-.96-.38-.32-.13-.65-.26-.98-.38-.33-.12-.69-.18-1.06-.18-.43,0-.79.15-1.08.44v11.08h4.04c1.12,0,2.13-.28,3.02-.84s1.53-1.31,1.9-2.24l.16.04-1.08,5.88c-.08-.13-.23-.24-.46-.32-.23-.08-.46-.12-.7-.12h-12.2v-.12Z"/><path class="cls-1" d="M112.51,142.84c.64-.21,1.09-.66,1.34-1.34.25-.68.38-1.77.38-3.26v-15.68h-1.44c-.88,0-1.67.29-2.38.86-.71.57-1.21,1.35-1.5,2.34l-.16-.04.72-5.88c.11.11.31.19.62.24.31.05.65.08,1.02.08h9.8c.37,0,.71-.03,1.02-.08.31-.05.51-.13.62-.24l.72,5.88-.16.04c-.29-.99-.79-1.77-1.5-2.34-.71-.57-1.5-.86-2.38-.86h-1.4v15.68c0,1.49.13,2.58.38,3.26.25.68.7,1.13,1.34,1.34v.12h-7.04v-.12Z"/><path class="cls-1" d="M125.59,142.84c.64-.21,1.09-.66,1.34-1.34.25-.68.38-1.77.38-3.26v-13.36c0-1.49-.13-2.58-.38-3.26-.25-.68-.7-1.13-1.34-1.34v-.12h7.04v.12c-.64.21-1.09.66-1.34,1.34-.25.68-.38,1.77-.38,3.26v1.2h6.88v-1.2c0-1.49-.13-2.58-.38-3.26-.25-.68-.7-1.13-1.34-1.34v-.12h7.04v.12c-.64.21-1.09.66-1.34,1.34-.25.68-.38,1.77-.38,3.26v13.36c0,1.49.13,2.58.38,3.26.25.68.7,1.13,1.34,1.34v.12h-7.04v-.12c.64-.21,1.09-.66,1.34-1.34.25-.68.38-1.77.38-3.26v-7.56h-6.88v7.56c0,1.49.13,2.58.38,3.26.25.68.7,1.13,1.34,1.34v.12h-7.04v-.12ZM137.79,129.88v-1h-6.88v1h6.88Z"/><path class="cls-1" d="M145.43,142.84c.64-.21,1.09-.66,1.34-1.34.25-.68.38-1.77.38-3.26v-13.36c0-1.49-.13-2.58-.38-3.26-.25-.68-.7-1.13-1.34-1.34v-.12h12.48c.29,0,.61-.02.94-.06.33-.04.57-.13.7-.26l-2.12,4.32-.12-.04c.13-1.12-.64-1.68-2.32-1.68h-4.24v6h.08c.29-.53.67-.96,1.14-1.28.47-.32,1.01-.48,1.62-.48.37,0,.73.05,1.06.14.33.09.66.2.98.32.32.12.65.23.98.34.33.11.66.16.98.16.67,0,1.16-.25,1.48-.76l.12.04c-.08.37-.23.75-.44,1.14s-.47.73-.76,1.04c-.29.31-.62.56-.98.76-.36.2-.75.3-1.18.3-.35,0-.68-.06-1-.18-.32-.12-.64-.25-.96-.38-.32-.13-.65-.26-.98-.38-.33-.12-.69-.18-1.06-.18-.43,0-.79.15-1.08.44v11.08h4.04c1.12,0,2.13-.28,3.02-.84.89-.56,1.53-1.31,1.9-2.24l.16.04-1.08,5.88c-.08-.13-.23-.24-.46-.32s-.46-.12-.7-.12h-12.2v-.12Z"/><path class="cls-1" d="M162.11,142.84c.64-.21,1.09-.66,1.34-1.34.25-.68.38-1.77.38-3.26v-13.36c0-1.49-.13-2.58-.38-3.26-.25-.68-.7-1.13-1.34-1.34v-.12h9.72c.96,0,1.84.13,2.64.4.8.27,1.48.64,2.04,1.12.56.48.99,1.04,1.3,1.68s.46,1.35.46,2.12-.14,1.43-.42,2.06c-.28.63-.66,1.17-1.14,1.62-.48.45-1.05.8-1.7,1.04-.65.24-1.35.35-2.1.32.88,1.12,1.72,2.46,2.52,4.02.8,1.56,1.45,3.13,1.96,4.7.64,2,1.39,3.2,2.24,3.6v.12h-6.8l-.04-.12c.93-.43,1.2-1.48.8-3.16-.24-1.01-.56-2.06-.96-3.14-.4-1.08-.86-2.13-1.38-3.14-.52-1.01-1.11-1.94-1.76-2.78-.65-.84-1.34-1.53-2.06-2.06v9.68c0,1.49.13,2.58.38,3.26.25.68.7,1.13,1.34,1.34v.12h-7.04v-.12ZM171.54,128.36c.91,0,1.59-.27,2.06-.8.47-.53.7-1.15.7-1.84,0-.96-.39-1.76-1.18-2.4-.79-.64-1.81-.96-3.06-.96h-2.64v.8c0,.75.11,1.44.34,2.08.23.64.53,1.19.92,1.66.39.47.83.83,1.32,1.08s1.01.38,1.54.38Z"/><path class="cls-1" d="M187.9,143.32c-1.28,0-2.53-.25-3.74-.76-1.21-.51-2.22-1.27-3.02-2.28l1.48-5.4h.12c.11.99.35,1.84.72,2.56.37.72.82,1.32,1.34,1.8.52.48,1.09.83,1.7,1.06.61.23,1.21.34,1.8.34.91,0,1.69-.27,2.34-.82s.98-1.34.98-2.38c0-.88-.25-1.62-.74-2.22-.49-.6-1.11-1.15-1.84-1.66-.73-.51-1.53-1-2.4-1.48-.87-.48-1.67-1.01-2.4-1.6-.73-.59-1.35-1.27-1.84-2.06-.49-.79-.74-1.75-.74-2.9,0-1.71.57-3.09,1.72-4.14,1.15-1.05,2.65-1.58,4.52-1.58.59,0,1.13.05,1.62.14.49.09.94.2,1.34.32.4.12.75.23,1.06.32.31.09.57.14.78.14s.37-.07.48-.2l.2,5.52-.16.04c-.43-1.15-1.11-2.09-2.04-2.82-.93-.73-1.93-1.1-3-1.1-.8,0-1.49.23-2.08.68-.59.45-.88,1.15-.88,2.08,0,.8.25,1.49.74,2.06.49.57,1.11,1.1,1.84,1.58.73.48,1.53.95,2.38,1.42s1.65,1,2.38,1.6,1.35,1.31,1.84,2.12.74,1.81.74,2.98-.21,2.09-.62,2.92c-.41.83-.95,1.52-1.62,2.08-.67.56-1.43.97-2.3,1.24-.87.27-1.77.4-2.7.4Z"/><path class="cls-1" d="M196.1,142.84c.51-.19.93-.55,1.26-1.1.33-.55.67-1.5,1.02-2.86l3.6-13.8c.4-1.52.58-2.65.54-3.4s-.29-1.21-.74-1.4v-.12h5.84l5.04,18.72c.32,1.28.65,2.21.98,2.78.33.57.77.97,1.3,1.18v.12h-6.92v-.12c.56-.21.91-.67,1.04-1.38.13-.71.01-1.78-.36-3.22l-.24-.88h-6.8l-.2.88c-.35,1.44-.47,2.51-.36,3.2.11.69.45,1.16,1.04,1.4v.12h-6.04v-.12ZM207.86,134.96l-2.96-10.84-2.64,10.84h5.6Z"/><path class="cls-1" d="M215.9,142.84c.64-.21,1.09-.66,1.34-1.34.25-.68.38-1.77.38-3.26v-13.36c0-1.49-.13-2.58-.38-3.26-.25-.68-.7-1.13-1.34-1.34v-.12h7.04v.12c-.64.21-1.09.66-1.34,1.34-.25.68-.38,1.77-.38,3.26v15.68h2.84c1.12,0,2.13-.28,3.02-.84s1.53-1.31,1.9-2.24l.16.04-1.08,5.88c-.08-.13-.23-.24-.46-.32s-.46-.12-.7-.12h-11v-.12Z"/><path class="cls-1" d="M238.98,143.32c-1.23,0-2.33-.29-3.32-.86s-1.83-1.39-2.52-2.44c-.69-1.05-1.23-2.33-1.6-3.84-.37-1.51-.56-3.18-.56-5.02,0-3.57.71-6.36,2.12-8.36,1.41-2,3.37-3,5.88-3,1.2,0,2.29.29,3.26.86.97.57,1.81,1.37,2.52,2.4.71,1.03,1.25,2.26,1.64,3.7.39,1.44.58,3.04.58,4.8s-.19,3.36-.58,4.8c-.39,1.44-.93,2.67-1.64,3.7-.71,1.03-1.55,1.83-2.52,2.4s-2.06.86-3.26.86ZM240.18,140.88c.56,0,1.05-.17,1.46-.52.41-.35.75-.82,1.02-1.42.27-.6.47-1.3.6-2.1.13-.8.2-1.65.2-2.56,0-1.33-.13-2.71-.4-4.14-.27-1.43-.65-2.73-1.14-3.9-.49-1.17-1.09-2.13-1.78-2.88-.69-.75-1.47-1.12-2.32-1.12-.59,0-1.09.17-1.5.52-.41.35-.75.82-1.02,1.42-.27.6-.47,1.3-.6,2.1-.13.8-.2,1.64-.2,2.52,0,1.36.13,2.75.4,4.18.27,1.43.65,2.73,1.14,3.9.49,1.17,1.09,2.13,1.8,2.88.71.75,1.49,1.12,2.34,1.12Z"/><path class="cls-1" d="M249.7,142.84c.43-.13.75-.36.98-.68.23-.32.39-.68.5-1.08.11-.4.17-.82.2-1.26.03-.44.04-.83.04-1.18v-13.6c0-1.36-.13-2.41-.4-3.16-.27-.75-.71-1.28-1.32-1.6v-.12c1.73-.11,3.27.09,4.62.58,1.35.49,2.53,1.2,3.56,2.12,1.03.92,1.91,2.01,2.64,3.28.73,1.27,1.34,2.62,1.82,4.06v-5.72c0-.37-.01-.77-.04-1.2-.03-.43-.09-.84-.2-1.24-.11-.4-.27-.76-.5-1.08-.23-.32-.55-.55-.98-.68v-.12h6.32v.12c-.43.13-.75.36-.98.68s-.39.68-.5,1.08-.17.81-.2,1.24c-.03.43-.04.83-.04,1.2v18.48h-2.84c0-2.21-.21-4.33-.62-6.36-.41-2.03-.99-3.84-1.72-5.44s-1.59-2.92-2.58-3.96-2.04-1.68-3.16-1.92v13.36c0,.35.01.74.04,1.18.03.44.09.86.2,1.26s.27.76.5,1.08.55.55.98.68v.12h-6.32v-.12Z"/><path class="cls-1" d="M281.02,142.88c.64-.24,1.09-.69,1.34-1.36.25-.67.38-1.75.38-3.24v-11.8c0-1.49-.13-2.58-.38-3.26-.25-.68-.7-1.13-1.34-1.34v-.12l5.32-2.28v18.8c0,1.49.13,2.57.38,3.24.25.67.7,1.12,1.34,1.36v.08h-7.04v-.08Z"/><path class="cls-1" d="M298.46,143.32c-1.07,0-2.05-.15-2.94-.44s-1.65-.71-2.28-1.24c-.63-.53-1.11-1.18-1.46-1.94-.35-.76-.52-1.61-.52-2.54,0-.75.13-1.42.4-2.02.27-.6.61-1.13,1.04-1.6.43-.47.91-.87,1.44-1.22s1.07-.64,1.6-.88c-.51-.29-.98-.61-1.42-.96-.44-.35-.83-.74-1.16-1.18-.33-.44-.59-.93-.78-1.48s-.28-1.18-.28-1.9c0-.91.16-1.73.48-2.48.32-.75.77-1.39,1.34-1.92.57-.53,1.27-.95,2.08-1.24.81-.29,1.7-.44,2.66-.44.83,0,1.63.12,2.42.36.79.24,1.49.59,2.1,1.06.61.47,1.11,1.05,1.48,1.76.37.71.56,1.53.56,2.46,0,1.12-.33,2.17-1,3.14-.67.97-1.65,1.65-2.96,2.02.64.29,1.25.62,1.84.98s1.11.79,1.56,1.28c.45.49.81,1.07,1.08,1.74.27.67.4,1.47.4,2.4s-.19,1.75-.56,2.52c-.37.77-.9,1.44-1.58,2-.68.56-1.49.99-2.44,1.3-.95.31-1.98.46-3.1.46ZM298.7,141.12c1.15,0,2.07-.33,2.76-1,.69-.67,1.04-1.55,1.04-2.64,0-.67-.13-1.24-.38-1.72-.25-.48-.59-.91-1.02-1.3-.43-.39-.91-.73-1.46-1.02-.55-.29-1.11-.59-1.7-.88-.88.4-1.6,1.01-2.16,1.82-.56.81-.84,1.77-.84,2.86s.35,2.08,1.04,2.8,1.6,1.08,2.72,1.08ZM295.62,125.4c0,1.09.33,1.95,1,2.58.67.63,1.47,1.17,2.4,1.62.96-.37,1.67-.94,2.14-1.7.47-.76.7-1.54.7-2.34,0-1.15-.32-2.01-.96-2.58-.64-.57-1.37-.86-2.2-.86-.91,0-1.65.31-2.22.92-.57.61-.86,1.4-.86,2.36Z"/><path class="cls-1" d="M316.94,143.32c-1.07,0-2.05-.15-2.94-.44-.89-.29-1.65-.71-2.28-1.24-.63-.53-1.11-1.18-1.46-1.94-.35-.76-.52-1.61-.52-2.54,0-.75.13-1.42.4-2.02.27-.6.61-1.13,1.04-1.6.43-.47.91-.87,1.44-1.22.53-.35,1.07-.64,1.6-.88-.51-.29-.98-.61-1.42-.96-.44-.35-.83-.74-1.16-1.18-.33-.44-.59-.93-.78-1.48s-.28-1.18-.28-1.9c0-.91.16-1.73.48-2.48.32-.75.77-1.39,1.34-1.92.57-.53,1.27-.95,2.08-1.24.81-.29,1.7-.44,2.66-.44.83,0,1.63.12,2.42.36.79.24,1.49.59,2.1,1.06.61.47,1.11,1.05,1.48,1.76.37.71.56,1.53.56,2.46,0,1.12-.33,2.17-1,3.14-.67.97-1.65,1.65-2.96,2.02.64.29,1.25.62,1.84.98.59.36,1.11.79,1.56,1.28.45.49.81,1.07,1.08,1.74.27.67.4,1.47.4,2.4s-.19,1.75-.56,2.52-.9,1.44-1.58,2c-.68.56-1.49.99-2.44,1.3-.95.31-1.98.46-3.1.46ZM317.18,141.12c1.15,0,2.07-.33,2.76-1s1.04-1.55,1.04-2.64c0-.67-.13-1.24-.38-1.72-.25-.48-.59-.91-1.02-1.3-.43-.39-.91-.73-1.46-1.02-.55-.29-1.11-.59-1.7-.88-.88.4-1.6,1.01-2.16,1.82s-.84,1.77-.84,2.86.35,2.08,1.04,2.8c.69.72,1.6,1.08,2.72,1.08ZM314.1,125.4c0,1.09.33,1.95,1,2.58.67.63,1.47,1.17,2.4,1.62.96-.37,1.67-.94,2.14-1.7s.7-1.54.7-2.34c0-1.15-.32-2.01-.96-2.58-.64-.57-1.37-.86-2.2-.86-.91,0-1.65.31-2.22.92-.57.61-.86,1.4-.86,2.36Z"/><path class="cls-1" d="M333.74,143.32c-.43,0-.88-.05-1.36-.16-.48-.11-.92-.27-1.32-.5-.4-.23-.73-.52-1-.88-.27-.36-.4-.81-.4-1.34,0-.51.12-.95.36-1.32.24-.37.55-.68.92-.92.37-.24.79-.42,1.24-.54.45-.12.89-.18,1.32-.18h.28l.08.16c-.29.16-.53.38-.7.66-.17.28-.26.59-.26.94,0,.53.18.94.54,1.22.36.28.79.42,1.3.42,1.07,0,1.95-.43,2.64-1.3.69-.87,1.24-1.89,1.64-3.08.4-1.19.68-2.4.84-3.64.16-1.24.24-2.23.24-2.98,0-2.51-.37-4.43-1.1-5.78-.73-1.35-1.77-2.02-3.1-2.02-1.2,0-2.15.52-2.84,1.56-.69,1.04-1.04,2.44-1.04,4.2s.34,3.12,1.02,4.16c.68,1.04,1.58,1.56,2.7,1.56.8,0,1.51-.3,2.14-.9s1.06-1.41,1.3-2.42l.36.16c-.21,1.63-.78,2.93-1.7,3.92-.92.99-2.03,1.48-3.34,1.48-.85,0-1.64-.18-2.36-.54-.72-.36-1.34-.86-1.86-1.5-.52-.64-.93-1.41-1.22-2.3-.29-.89-.44-1.87-.44-2.94,0-1.25.19-2.41.58-3.46s.91-1.96,1.58-2.72c.67-.76,1.46-1.36,2.38-1.8s1.91-.66,2.98-.66c1.28,0,2.39.29,3.34.86.95.57,1.73,1.33,2.36,2.28.63.95,1.09,2.04,1.4,3.28.31,1.24.46,2.53.46,3.86,0,1.57-.21,3.15-.64,4.72-.43,1.57-1.05,2.99-1.88,4.24-.83,1.25-1.86,2.27-3.1,3.04s-2.69,1.16-4.34,1.16Z"/><path class="cls-1" d="M109.64,84.68c-.54,0-1.07-.11-1.59-.32-.52-.22-.94-.54-1.28-.97l.63-2.29h.05c.04.42.15.78.31,1.09.16.31.35.56.57.77.22.2.46.35.72.45s.52.14.77.14c.38,0,.72-.12.99-.35.28-.23.42-.57.42-1.01,0-.37-.1-.69-.31-.94-.21-.25-.47-.49-.78-.71-.31-.21-.65-.42-1.02-.63s-.71-.43-1.02-.68c-.31-.25-.57-.54-.78-.88-.21-.33-.31-.75-.31-1.23,0-.73.24-1.31.73-1.76s1.13-.67,1.92-.67c.25,0,.48.02.69.06.21.04.4.08.57.14.17.05.32.1.45.14.13.04.24.06.33.06s.16-.03.2-.08l.08,2.35-.07.02c-.18-.49-.47-.89-.87-1.2-.4-.31-.82-.47-1.28-.47-.34,0-.63.1-.88.29-.25.19-.37.49-.37.88,0,.34.1.63.31.88s.47.47.78.67.65.41,1.01.6c.36.2.7.43,1.01.68.31.25.57.56.78.9s.31.77.31,1.27-.09.89-.26,1.24c-.18.35-.41.65-.69.88-.28.24-.61.41-.98.53-.37.11-.75.17-1.15.17Z"/><path class="cls-1" d="M116.9,84.48c.27-.09.46-.28.57-.57s.16-.75.16-1.39v-6.66h-.61c-.37,0-.71.12-1.01.37-.3.24-.51.58-.64.99l-.07-.02.31-2.5s.13.08.26.1c.13.02.27.03.43.03h4.16c.16,0,.3-.01.43-.03.13-.02.22-.06.26-.1l.31,2.5-.07.02c-.12-.42-.34-.75-.64-.99-.3-.24-.64-.37-1.01-.37h-.59v6.66c0,.63.05,1.1.16,1.39.11.29.3.48.57.57v.05h-2.99v-.05Z"/><path class="cls-1" d="M124.33,84.48c.27-.09.46-.28.57-.57s.16-.75.16-1.39v-5.68c0-.63-.05-1.1-.16-1.39s-.3-.48-.57-.57v-.05h5.3c.12,0,.26,0,.4-.03.14-.02.24-.05.3-.11l-.9,1.84-.05-.02c.06-.48-.27-.71-.99-.71h-1.8v2.55h.03c.12-.23.29-.41.48-.54.2-.14.43-.2.69-.2.16,0,.31.02.45.06.14.04.28.08.42.14.14.05.27.1.42.14.14.05.28.07.42.07.28,0,.49-.11.63-.32l.05.02c-.03.16-.1.32-.19.48-.09.16-.2.31-.32.44-.12.13-.26.24-.42.32-.15.08-.32.13-.5.13-.15,0-.29-.03-.42-.08-.14-.05-.27-.1-.41-.16-.14-.06-.27-.11-.42-.16-.14-.05-.29-.08-.45-.08-.18,0-.33.06-.46.19v4.71h1.72c.48,0,.9-.12,1.28-.36.38-.24.65-.56.81-.95l.07.02-.46,2.5c-.03-.06-.1-.1-.2-.14-.1-.03-.2-.05-.3-.05h-5.18v-.05Z"/><path class="cls-1" d="M132.71,84.48c.22-.08.39-.24.54-.47.14-.23.29-.64.43-1.22l1.53-5.87c.17-.65.25-1.13.23-1.44s-.12-.52-.31-.6v-.05h2.48l2.14,7.96c.14.54.27.94.42,1.18.14.24.33.41.55.5v.05h-2.94v-.05c.24-.09.38-.29.44-.59.06-.3,0-.76-.15-1.37l-.1-.37h-2.89l-.08.37c-.15.61-.2,1.07-.15,1.36.04.29.19.49.44.6v.05h-2.57v-.05ZM137.71,81.13l-1.26-4.61-1.12,4.61h2.38Z"/><path class="cls-1" d="M142.83,84.48c.28-.09.48-.28.6-.57s.2-.75.23-1.39l.31-5.68c.03-.63,0-1.1-.09-1.39-.1-.29-.27-.48-.54-.57v-.05h2.46l1.92,3.88,1.9-3.88h2.29v.05c-.26.09-.44.28-.54.57-.1.29-.13.75-.09,1.39l.31,5.68c.03.63.11,1.1.23,1.39.12.29.32.48.6.57v.05h-2.99v-.05c.26-.09.44-.28.54-.57.1-.29.13-.75.09-1.39l-.31-5.52-2.29,4.67-2.29-4.62-.29,5.47c-.03.63,0,1.1.09,1.39.1.29.27.48.54.57v.05h-2.69v-.05Z"/><path class="cls-1" d="M255.43,85.21c.27-.09.46-.28.57-.57.11-.29.16-.75.16-1.39v-5.68c0-.63-.05-1.1-.16-1.39-.11-.29-.3-.48-.57-.57v-.05h4.22c.83,0,1.49.22,1.99.66.5.44.75,1.03.75,1.77,0,.35-.06.68-.19.98-.12.3-.3.56-.52.78s-.48.39-.79.52c-.31.12-.65.19-1.02.19-.45,0-.87-.09-1.24-.28s-.69-.44-.93-.77v3.84c0,.63.05,1.1.16,1.39s.3.48.57.57v.05h-2.99v-.05ZM259.38,79.38c.43,0,.77-.13,1.01-.4.24-.27.37-.6.37-.99,0-.44-.16-.8-.49-1.07-.33-.27-.76-.41-1.29-.41h-1.27v1.16c.07.51.25.92.55,1.24.3.32.68.48,1.13.48Z"/><path class="cls-1" d="M268.81,85.43c-.85,0-1.58-.21-2.19-.65-.61-.43-1.01-1-1.19-1.7.16-.07.25-.18.29-.35.03-.16.06-.33.07-.48l.15-4.85c0-.16,0-.33,0-.51,0-.18-.03-.36-.09-.53-.05-.17-.12-.32-.22-.46-.1-.14-.24-.23-.42-.29v-.05h2.99v.05c-.18.06-.32.15-.42.29-.1.14-.17.29-.21.46-.04.17-.07.35-.08.53-.01.18-.02.35-.02.51l-.15,5.08c-.02.59.11,1.06.39,1.4.28.35.68.52,1.19.52s.91-.17,1.2-.51c.29-.34.42-.8.4-1.39l-.15-5.1c0-.16,0-.33-.02-.51-.01-.18-.04-.36-.08-.53-.04-.17-.12-.32-.21-.46-.1-.14-.24-.23-.42-.29v-.05h2.79v.05c-.18.06-.32.15-.42.29-.1.14-.17.29-.22.46-.05.17-.08.35-.08.53s0,.35,0,.51l.15,4.93c.01.15.04.29.08.43.05.14.14.25.27.31-.18.71-.58,1.28-1.18,1.71-.61.42-1.33.64-2.18.64Z"/><path class="cls-1" d="M275.3,85.21c.18-.06.32-.15.42-.29.1-.14.17-.29.21-.46.04-.17.07-.35.08-.54s.02-.35.02-.5v-5.78c0-.58-.06-1.03-.17-1.34s-.3-.54-.56-.68v-.05c.74-.05,1.39.04,1.96.25.57.21,1.08.51,1.51.9s.81.86,1.12,1.39c.31.54.57,1.11.77,1.73v-2.43c0-.16,0-.33-.02-.51-.01-.18-.04-.36-.08-.53-.04-.17-.12-.32-.21-.46-.1-.14-.24-.23-.42-.29v-.05h2.69v.05c-.18.06-.32.15-.42.29-.1.14-.17.29-.21.46-.05.17-.07.35-.08.53-.01.18-.02.35-.02.51v7.85h-1.21c0-.94-.09-1.84-.26-2.7-.18-.86-.42-1.63-.73-2.31-.31-.68-.68-1.24-1.1-1.68-.42-.44-.87-.71-1.34-.82v5.68c0,.15,0,.31.02.5.01.19.04.37.08.54.05.17.12.32.21.46.1.14.24.23.42.29v.05h-2.69v-.05Z"/><path class="cls-1" d="M285.45,85.21c.27-.09.46-.28.57-.57.11-.29.16-.75.16-1.39v-5.68c0-.63-.05-1.1-.16-1.39-.11-.29-.3-.48-.57-.57v-.05h2.99v.05c-.27.09-.46.28-.57.57s-.16.75-.16,1.39v1.8l1.39-1.8c.25-.32.44-.59.57-.82.13-.23.22-.42.26-.57.04-.15.05-.27,0-.37-.04-.09-.11-.16-.21-.2v-.05h2.72v.05c-.23.1-.47.27-.72.52-.25.24-.55.58-.88,1.01l-.87,1.16,1.82,4.95c.14.35.26.65.37.88.11.24.21.43.31.57.1.14.2.25.3.33.1.08.22.14.34.17v.05h-3.11v-.05c.24-.09.37-.28.41-.57.03-.29-.06-.75-.29-1.39l-1.33-3.67-1.09,1.5v2.18c0,.63.05,1.1.16,1.39s.3.48.57.57v.05h-2.99v-.05Z"/><path class="cls-1" d="M111.47,187.29c.27-.09.46-.28.57-.57s.16-.75.16-1.38v-5.68c0-.63-.05-1.1-.16-1.38s-.3-.48-.57-.57v-.05h2.99c1.27,0,2.25.4,2.94,1.21s1.04,1.93,1.04,3.38c0,.78-.1,1.49-.31,2.12s-.5,1.16-.88,1.61c-.39.44-.85.78-1.39,1.02s-1.15.36-1.83.36h-2.57v-.05ZM113.95,186.32c.43,0,.82-.09,1.18-.28.36-.19.66-.46.92-.81.26-.35.45-.78.6-1.27.14-.5.21-1.06.21-1.68,0-1.12-.25-2-.74-2.64-.49-.64-1.15-.96-1.96-.96h-.42v7.65h.22Z"/><path class="cls-1" d="M121.46,187.29c.27-.09.46-.28.57-.57s.16-.75.16-1.38v-5.68c0-.63-.05-1.1-.16-1.38s-.3-.48-.57-.57v-.05h2.99v.05c-.27.09-.46.28-.57.57-.11.29-.16.75-.16,1.38v5.68c0,.63.05,1.1.16,1.38.11.29.3.48.57.57v.05h-2.99v-.05Z"/><path class="cls-1" d="M127.31,187.29c.27-.09.46-.28.57-.57s.16-.75.16-1.38v-5.68c0-.63-.05-1.1-.16-1.38s-.3-.48-.57-.57v-.05h5.3c.12,0,.26,0,.4-.03s.24-.05.3-.11l-.9,1.84-.05-.02c.06-.48-.27-.71-.99-.71h-1.8v2.55h.03c.12-.23.29-.41.48-.54.2-.14.43-.2.69-.2.16,0,.31.02.45.06.14.04.28.08.42.14s.27.1.42.14.28.07.42.07c.28,0,.49-.11.63-.32l.05.02c-.03.16-.1.32-.19.48-.09.17-.2.31-.32.44s-.26.24-.42.32c-.15.08-.32.13-.5.13-.15,0-.29-.03-.42-.08s-.27-.1-.41-.16c-.14-.06-.27-.11-.42-.16-.14-.05-.29-.08-.45-.08-.18,0-.33.06-.46.19v4.71h1.72c.48,0,.9-.12,1.28-.36.38-.24.65-.56.81-.95l.07.02-.46,2.5c-.03-.06-.1-.1-.2-.14s-.2-.05-.3-.05h-5.18v-.05Z"/><path class="cls-1" d="M143.02,186.9l4.06-8.23h-1.29c-.54,0-.98.08-1.3.25-.32.16-.56.43-.71.79l-.07-.02.37-2.23c.03.06.1.1.2.14.1.03.2.05.3.05h4.06l.44.44-4.06,8.23h1.92c.51,0,.94-.1,1.3-.31.36-.2.61-.49.77-.87l.07.02-.48,2.36c-.03-.06-.1-.1-.2-.14-.1-.03-.2-.05-.3-.05h-4.66l-.44-.44Z"/><path class="cls-1" d="M152.03,187.29c.27-.09.46-.28.57-.57s.16-.75.16-1.38v-5.68c0-.63-.05-1.1-.16-1.38s-.3-.48-.57-.57v-.05h5.3c.12,0,.26,0,.4-.03s.24-.05.3-.11l-.9,1.84-.05-.02c.06-.48-.27-.71-.99-.71h-1.8v2.55h.03c.12-.23.29-.41.48-.54.2-.14.43-.2.69-.2.16,0,.31.02.45.06.14.04.28.08.42.14s.27.1.42.14.28.07.42.07c.28,0,.49-.11.63-.32l.05.02c-.03.16-.1.32-.19.48-.09.17-.2.31-.32.44s-.26.24-.42.32c-.15.08-.32.13-.5.13-.15,0-.29-.03-.42-.08s-.27-.1-.41-.16c-.14-.06-.27-.11-.42-.16-.14-.05-.29-.08-.45-.08-.18,0-.33.06-.46.19v4.71h1.72c.48,0,.9-.12,1.28-.36.38-.24.65-.56.81-.95l.07.02-.46,2.5c-.03-.06-.1-.1-.2-.14s-.2-.05-.3-.05h-5.18v-.05Z"/><path class="cls-1" d="M160.99,187.29c.27-.09.46-.28.57-.57s.16-.75.16-1.38v-5.68c0-.63-.05-1.1-.16-1.38s-.3-.48-.57-.57v-.05h2.99v.05c-.27.09-.46.28-.57.57-.11.29-.16.75-.16,1.38v5.68c0,.63.05,1.1.16,1.38.11.29.3.48.57.57v.05h-2.99v-.05Z"/><path class="cls-1" d="M168.43,187.29c.27-.09.46-.28.57-.57.11-.29.16-.75.16-1.38v-6.66h-.61c-.37,0-.71.12-1.01.37-.3.24-.51.58-.64.99l-.07-.02.31-2.5s.13.08.26.1c.13.02.27.03.43.03h4.17c.16,0,.3-.01.43-.03.13-.02.22-.06.26-.1l.31,2.5-.07.02c-.12-.42-.34-.75-.64-.99-.3-.24-.64-.37-1.01-.37h-.59v6.66c0,.63.05,1.1.16,1.38s.3.48.57.57v.05h-2.99v-.05Z"/><path class="cls-1" d="M175.86,187.29c.27-.09.46-.28.57-.57.11-.29.16-.75.16-1.38v-5.68c0-.63-.05-1.1-.16-1.38-.11-.29-.3-.48-.57-.57v-.05h4.13c.41,0,.78.06,1.12.17.34.11.63.27.87.48.24.2.42.44.55.71.13.27.2.57.2.9s-.06.61-.18.88c-.12.27-.28.5-.49.69s-.44.34-.72.44c-.28.1-.58.15-.89.14.37.48.73,1.04,1.07,1.71s.62,1.33.83,2c.27.85.59,1.36.95,1.53v.05h-2.89l-.02-.05c.4-.18.51-.63.34-1.34-.1-.43-.24-.88-.41-1.33s-.37-.9-.59-1.33-.47-.82-.75-1.18c-.28-.36-.57-.65-.88-.88v4.11c0,.63.05,1.1.16,1.38s.3.48.57.57v.05h-2.99v-.05ZM179.87,181.14c.38,0,.68-.11.88-.34s.3-.49.3-.78c0-.41-.17-.75-.5-1.02-.33-.27-.77-.41-1.3-.41h-1.12v.34c0,.32.05.61.14.88.1.27.23.51.39.71.16.2.35.35.56.46.21.11.43.16.65.16Z"/><path class="cls-1" d="M185.76,187.29c.27-.09.46-.28.57-.57s.16-.75.16-1.38v-5.68c0-.63-.05-1.1-.16-1.38s-.3-.48-.57-.57v-.05h5.3c.12,0,.26,0,.4-.03s.24-.05.3-.11l-.9,1.84-.05-.02c.06-.48-.27-.71-.99-.71h-1.8v2.55h.03c.12-.23.29-.41.48-.54.2-.14.43-.2.69-.2.16,0,.31.02.45.06.14.04.28.08.42.14s.27.1.42.14.28.07.42.07c.28,0,.49-.11.63-.32l.05.02c-.03.16-.1.32-.19.48-.09.17-.2.31-.32.44s-.26.24-.42.32c-.15.08-.32.13-.5.13-.15,0-.29-.03-.42-.08s-.27-.1-.41-.16c-.14-.06-.27-.11-.42-.16-.14-.05-.29-.08-.45-.08-.18,0-.33.06-.46.19v4.71h1.72c.48,0,.9-.12,1.28-.36.38-.24.65-.56.81-.95l.07.02-.46,2.5c-.03-.06-.1-.1-.2-.14s-.2-.05-.3-.05h-5.18v-.05Z"/><path class="cls-1" d="M194.71,187.29c.27-.09.46-.28.57-.57s.16-.75.16-1.38v-5.68c0-.63-.05-1.1-.16-1.38s-.3-.48-.57-.57v-.05h2.99v.05c-.27.09-.46.28-.57.57-.11.29-.16.75-.16,1.38v5.68c0,.63.05,1.1.16,1.38.11.29.3.48.57.57v.05h-2.99v-.05Z"/><path class="cls-1" d="M203.5,187.5c-.54,0-1.07-.11-1.59-.32-.52-.22-.94-.54-1.28-.97l.63-2.29h.05c.04.42.15.78.31,1.09.16.31.35.56.57.77.22.2.46.35.72.45.26.1.52.14.77.14.38,0,.72-.12.99-.35.28-.23.42-.57.42-1.01,0-.37-.1-.69-.31-.94-.21-.25-.47-.49-.78-.71-.31-.21-.65-.42-1.02-.63s-.71-.43-1.02-.68c-.31-.25-.57-.54-.78-.88s-.31-.75-.31-1.23c0-.73.24-1.31.73-1.76.49-.45,1.13-.67,1.92-.67.25,0,.48.02.69.06.21.04.4.08.57.14.17.05.32.1.45.14.13.04.24.06.33.06s.16-.03.2-.08l.08,2.35-.07.02c-.18-.49-.47-.89-.87-1.2-.4-.31-.82-.47-1.28-.47-.34,0-.63.1-.88.29-.25.19-.37.49-.37.88,0,.34.1.63.31.88.21.24.47.47.78.67s.65.41,1.01.6c.36.2.7.42,1.01.68.31.25.57.56.78.9s.31.77.31,1.27-.09.89-.26,1.24c-.18.35-.41.65-.69.88-.28.24-.61.41-.98.53-.37.11-.75.17-1.15.17Z"/><path class="cls-1" d="M209.44,187.29c.27-.09.46-.28.57-.57s.16-.75.16-1.38v-5.68c0-.63-.05-1.1-.16-1.38s-.3-.48-.57-.57v-.05h5.3c.12,0,.26,0,.4-.03s.24-.05.3-.11l-.9,1.84-.05-.02c.06-.48-.27-.71-.99-.71h-1.8v2.55h.03c.12-.23.29-.41.48-.54.2-.14.43-.2.69-.2.16,0,.31.02.45.06.14.04.28.08.42.14s.27.1.42.14.28.07.42.07c.28,0,.49-.11.63-.32l.05.02c-.03.16-.1.32-.19.48-.09.17-.2.31-.32.44s-.26.24-.42.32c-.15.08-.32.13-.5.13-.15,0-.29-.03-.42-.08s-.27-.1-.41-.16c-.14-.06-.27-.11-.42-.16-.14-.05-.29-.08-.45-.08-.18,0-.33.06-.46.19v4.71h1.72c.48,0,.9-.12,1.28-.36.38-.24.65-.56.81-.95l.07.02-.46,2.5c-.03-.06-.1-.1-.2-.14s-.2-.05-.3-.05h-5.18v-.05Z"/><path class="cls-1" d="M228.94,187.51c-.56,0-1.05-.11-1.5-.34-.44-.23-.82-.55-1.12-.98s-.54-.94-.71-1.56c-.16-.61-.25-1.3-.25-2.06,0-1.64.31-2.9.94-3.77s1.54-1.31,2.73-1.31c.25,0,.47.02.66.05s.36.07.5.11c.14.04.27.08.37.11.11.03.21.05.3.05.1,0,.19-.03.25-.1l.14,2.72-.05.02c-.21-.62-.49-1.1-.82-1.43-.33-.33-.73-.49-1.2-.49-.68,0-1.21.36-1.6,1.07-.38.71-.58,1.71-.58,2.98,0,.57.05,1.08.16,1.55s.26.86.47,1.2.44.59.72.77c.28.18.59.27.93.27.45,0,.86-.15,1.21-.45.35-.3.6-.71.75-1.23h.1l.15,1.6c-.62.82-1.48,1.22-2.57,1.22Z"/><path class="cls-1" d="M237.93,187.5c-.52,0-.99-.12-1.41-.37-.42-.24-.78-.59-1.07-1.04-.29-.45-.52-.99-.68-1.63-.16-.64-.24-1.35-.24-2.13,0-1.52.3-2.7.9-3.55.6-.85,1.43-1.27,2.5-1.27.51,0,.97.12,1.39.37.41.24.77.58,1.07,1.02.3.44.53.96.7,1.57.16.61.25,1.29.25,2.04s-.08,1.43-.25,2.04c-.16.61-.4,1.14-.7,1.57-.3.44-.66.78-1.07,1.02-.41.24-.88.37-1.39.37ZM238.44,186.46c.24,0,.45-.07.62-.22.18-.15.32-.35.43-.6s.2-.55.25-.89.08-.7.08-1.09c0-.57-.06-1.15-.17-1.76-.11-.61-.28-1.16-.48-1.66-.21-.5-.46-.91-.76-1.22s-.62-.48-.99-.48c-.25,0-.46.07-.64.22-.18.15-.32.35-.43.6-.11.25-.2.55-.26.89-.06.34-.08.7-.08,1.07,0,.58.06,1.17.17,1.78.11.61.27,1.16.48,1.66.21.5.46.91.76,1.22.3.32.63.48.99.48Z"/><path class="cls-1" d="M244.12,187.29c.28-.09.48-.28.6-.57s.2-.75.23-1.38l.31-5.68c.03-.63,0-1.1-.09-1.38-.1-.29-.27-.48-.54-.57v-.05h2.46l1.92,3.88,1.9-3.88h2.29v.05c-.26.09-.44.28-.54.57-.1.29-.13.75-.09,1.38l.31,5.68c.03.63.11,1.1.23,1.38.12.29.32.48.6.57v.05h-2.99v-.05c.26-.09.44-.28.54-.57.1-.29.13-.75.09-1.38l-.31-5.53-2.29,4.67-2.29-4.62-.29,5.47c-.03.63,0,1.1.09,1.38.1.29.27.48.54.57v.05h-2.69v-.05Z"/><path class="cls-1" d="M256.41,187.29c.27-.09.46-.28.57-.57.11-.29.16-.75.16-1.38v-5.68c0-.63-.05-1.1-.16-1.38-.11-.29-.3-.48-.57-.57v-.05h4.22c.83,0,1.49.22,1.99.66.5.44.75,1.03.75,1.77,0,.35-.06.68-.19.98-.12.3-.3.56-.52.78-.22.22-.48.39-.79.52-.31.12-.65.19-1.02.19-.45,0-.87-.09-1.24-.28-.37-.19-.69-.44-.93-.77v3.84c0,.63.05,1.1.16,1.38s.3.48.57.57v.05h-2.99v-.05ZM260.35,181.46c.43,0,.77-.13,1.01-.4.24-.27.37-.6.37-.99,0-.44-.16-.8-.49-1.07-.33-.27-.76-.41-1.29-.41h-1.27v1.16c.07.51.25.92.55,1.24.3.32.68.48,1.13.48Z"/><path class="cls-1" d="M264.97,187.29c.22-.08.39-.24.54-.47s.29-.64.43-1.22l1.53-5.87c.17-.65.25-1.13.23-1.44s-.12-.52-.31-.6v-.05h2.48l2.14,7.96c.14.54.27.94.42,1.18.14.24.33.41.55.5v.05h-2.94v-.05c.24-.09.38-.29.44-.59.06-.3,0-.76-.15-1.37l-.1-.37h-2.89l-.08.37c-.15.61-.2,1.07-.15,1.36.04.29.19.49.44.6v.05h-2.57v-.05ZM269.97,183.94l-1.26-4.61-1.12,4.61h2.38Z"/><path class="cls-1" d="M275.26,187.29c.18-.06.32-.15.42-.29.1-.14.17-.29.21-.46.04-.17.07-.35.08-.54.01-.19.02-.35.02-.5v-5.78c0-.58-.06-1.03-.17-1.34s-.3-.54-.56-.68v-.05c.74-.04,1.39.04,1.96.25.57.21,1.08.51,1.51.9.44.39.81.86,1.12,1.39.31.54.57,1.11.77,1.73v-2.43c0-.16,0-.33-.02-.51-.01-.18-.04-.36-.08-.53-.04-.17-.12-.32-.21-.46-.1-.14-.24-.23-.42-.29v-.05h2.69v.05c-.18.06-.32.15-.42.29-.1.14-.17.29-.21.46-.05.17-.07.35-.08.53-.01.18-.02.35-.02.51v7.85h-1.21c0-.94-.09-1.84-.26-2.7s-.42-1.63-.73-2.31c-.31-.68-.68-1.24-1.1-1.68s-.87-.71-1.34-.82v5.68c0,.15,0,.31.02.5.01.19.04.37.08.54.05.17.12.32.21.46.1.14.24.23.42.29v.05h-2.69v-.05Z"/><path class="cls-1" d="M287.47,187.29c.27-.09.46-.28.57-.57s.16-.75.16-1.38v-2.19l-1.89-3.76c-.15-.31-.28-.56-.4-.76s-.23-.36-.33-.49c-.1-.13-.2-.23-.31-.29-.1-.06-.21-.11-.34-.14v-.05h2.96v.05c-.22.09-.3.28-.26.56s.22.75.55,1.39l.93,1.89.92-1.89c.33-.65.51-1.11.55-1.39s-.05-.47-.26-.56v-.05h2.5v.05c-.12.03-.24.08-.34.14-.1.06-.21.16-.31.29-.11.13-.22.29-.33.49s-.25.45-.41.76l-1.7,3.38v2.57c0,.63.05,1.1.16,1.38.11.29.3.48.57.57v.05h-2.99v-.05Z"/></svg>