<?xml version="1.0" encoding="UTF-8"?><svg id="Layer_5" xmlns="http://www.w3.org/2000/svg" viewBox="0 0 342.41 70.07"><defs><style>.cls-1{fill:#fff;}.cls-2{fill:#e4c089;}</style></defs><path class="cls-2" d="M307.3,66.84H35.87c-17.63,0-31.97-14.34-31.97-31.97S18.24,2.9,35.87,2.9h271.43c17.63,0,31.97,14.34,31.97,31.97s-14.34,31.97-31.97,31.97ZM35.87,4.86c-16.55,0-30.02,13.46-30.02,30.02s13.46,30.01,30.02,30.01h271.43c16.55,0,30.01-13.46,30.01-30.01s-13.46-30.02-30.01-30.02H35.87Z"/><path class="cls-1" d="M32.14,61.9c.61.09,1.14-.3,1.19-.9.05-.57-.35-1.11-.9-1.19-.55-.08-1.08.31-1.19.89-.11.57.3,1.11.9,1.21Z"/><path class="cls-1" d="M27.42,60.84c.28.11.59.07.83-.07.24-.13.43-.36.51-.64.08-.28.04-.56-.09-.79-.13-.23-.34-.4-.6-.51-.52-.19-1.11.09-1.32.64s.09,1.16.67,1.37Z"/><path class="cls-1" d="M22.97,58.94c.55.27,1.2.06,1.45-.47.25-.53.05-1.15-.45-1.39-.49-.27-1.11-.11-1.41.39-.3.5-.13,1.17.41,1.47Z"/><path class="cls-1" d="M18.94,56.27c.49.37,1.16.28,1.5-.19.34-.47.26-1.13-.19-1.46-.46-.32-1.08-.29-1.47.16-.38.43-.34,1.15.16,1.5Z"/><path class="cls-1" d="M15.43,52.94c.41.45,1.09.49,1.5.08.42-.41.45-1.07.08-1.48-.38-.41-1.05-.45-1.49-.09-.47.38-.5,1.04-.09,1.49Z"/><path class="cls-1" d="M12.56,49.05c.32.52.97.68,1.45.35.48-.33.64-.98.35-1.46-.29-.48-.94-.63-1.45-.35s-.67.93-.35,1.46Z"/><path class="cls-1" d="M10.42,44.72c.1.29.31.5.55.61.25.11.55.11.82,0,.27-.12.45-.33.56-.57.11-.25.14-.53.04-.79-.19-.52-.8-.8-1.35-.61-.55.19-.83.8-.62,1.38Z"/><path class="cls-1" d="M9.06,40.08c.1.6.72.97,1.27.83.58-.14.89-.68.8-1.23-.08-.55-.62-.93-1.2-.85-.58.08-.97.64-.88,1.25Z"/><path class="cls-1" d="M8.57,35.26c.03.61.53,1.08,1.11,1.04.58-.04,1.03-.52,1-1.07-.02-.28-.13-.53-.31-.72-.18-.19-.44-.31-.73-.32-.29,0-.56.1-.76.3-.21.19-.33.47-.31.77Z"/><path class="cls-1" d="M8.94,30.44c-.09.61.3,1.15.88,1.22s1.12-.32,1.2-.88c.08-.55-.31-1.1-.88-1.22-.57-.12-1.11.27-1.2.87Z"/><path class="cls-1" d="M10.14,25.76c-.21.58.07,1.18.64,1.35.55.17,1.17-.12,1.36-.64.19-.52-.09-1.13-.63-1.35-.54-.22-1.15.06-1.36.64Z"/><path class="cls-1" d="M12.15,21.36c-.34.51-.11,1.19.41,1.45.52.27,1.12.06,1.43-.4.29-.48.12-1.12-.37-1.43s-1.15-.14-1.47.38Z"/><path class="cls-1" d="M14.9,17.38c-.39.47-.29,1.17.17,1.52.47.36,1.1.27,1.46-.16.38-.41.33-1.07-.1-1.46-.43-.4-1.11-.35-1.52.11Z"/><path class="cls-1" d="M18.32,13.96c-.45.41-.5,1.09-.1,1.52s1.05.47,1.46.1c.42-.37.51-.99.15-1.46-.35-.46-1.05-.56-1.51-.16Z"/><path class="cls-1" d="M22.29,11.2c-.52.32-.69.97-.38,1.47.31.49.96.66,1.43.37.47-.31.66-.91.4-1.43-.27-.52-.94-.74-1.45-.4Z"/><path class="cls-1" d="M26.68,9.18c-.58.21-.86.82-.64,1.36.22.54.83.82,1.35.63.52-.19.81-.8.64-1.36-.17-.56-.78-.84-1.35-.63Z"/><path class="cls-1" d="M31.36,7.96c-.6.1-1,.63-.87,1.21.12.55.67.96,1.22.87.55-.08.94-.62.87-1.2-.07-.58-.61-.98-1.22-.88Z"/><path class="cls-1" d="M36.17,7.55c-.59,0-1.08.52-1.06,1.1.03.59.48,1.02,1.06,1.02.58,0,1.06-.47,1.06-1.06s-.47-1.06-1.06-1.06Z"/><path class="cls-1" d="M40.82,7.55c-.58,0-1.06.47-1.06,1.06s.47,1.06,1.06,1.06,1.06-.47,1.06-1.06-.47-1.06-1.06-1.06Z"/><path class="cls-1" d="M45.48,7.55c-.58,0-1.06.47-1.06,1.06s.47,1.06,1.06,1.06,1.06-.47,1.06-1.06-.47-1.06-1.06-1.06Z"/><path class="cls-1" d="M50.14,7.55c-.58,0-1.06.47-1.06,1.06s.47,1.06,1.06,1.06,1.06-.47,1.06-1.06-.47-1.06-1.06-1.06Z"/><path class="cls-1" d="M54.79,7.55c-.58,0-1.06.47-1.06,1.06s.47,1.06,1.06,1.06,1.06-.47,1.06-1.06-.47-1.06-1.06-1.06Z"/><path class="cls-1" d="M59.45,7.55c-.58,0-1.06.47-1.06,1.06s.47,1.06,1.06,1.06,1.06-.47,1.06-1.06-.47-1.06-1.06-1.06Z"/><path class="cls-1" d="M64.11,7.55c-.58,0-1.06.47-1.06,1.06s.47,1.06,1.06,1.06,1.06-.47,1.06-1.06-.47-1.06-1.06-1.06Z"/><path class="cls-1" d="M68.76,7.55c-.58,0-1.06.47-1.06,1.06s.47,1.06,1.06,1.06,1.06-.47,1.06-1.06-.47-1.06-1.06-1.06Z"/><path class="cls-1" d="M73.42,7.55c-.58,0-1.06.47-1.06,1.06s.47,1.06,1.06,1.06,1.06-.47,1.06-1.06-.47-1.06-1.06-1.06Z"/><path class="cls-1" d="M78.08,7.55c-.58,0-1.06.47-1.06,1.06s.47,1.06,1.06,1.06,1.06-.47,1.06-1.06-.47-1.06-1.06-1.06Z"/><path class="cls-1" d="M82.73,7.55c-.58,0-1.06.47-1.06,1.06s.47,1.06,1.06,1.06,1.06-.47,1.06-1.06-.47-1.06-1.06-1.06Z"/><path class="cls-1" d="M87.39,7.55c-.58,0-1.06.47-1.06,1.06s.47,1.06,1.06,1.06,1.06-.47,1.06-1.06-.47-1.06-1.06-1.06Z"/><path class="cls-1" d="M92.05,7.55c-.58,0-1.06.47-1.06,1.06s.47,1.06,1.06,1.06,1.06-.47,1.06-1.06-.47-1.06-1.06-1.06Z"/><path class="cls-1" d="M96.7,7.55c-.58,0-1.06.47-1.06,1.06s.47,1.06,1.06,1.06,1.06-.47,1.06-1.06-.47-1.06-1.06-1.06Z"/><path class="cls-1" d="M101.36,7.55c-.58,0-1.06.47-1.06,1.06s.47,1.06,1.06,1.06,1.06-.47,1.06-1.06-.47-1.06-1.06-1.06Z"/><path class="cls-1" d="M106.02,7.55c-.58,0-1.06.47-1.06,1.06s.47,1.06,1.06,1.06,1.06-.47,1.06-1.06-.47-1.06-1.06-1.06Z"/><path class="cls-1" d="M110.67,7.55c-.58,0-1.06.47-1.06,1.06s.47,1.06,1.06,1.06,1.06-.47,1.06-1.06-.47-1.06-1.06-1.06Z"/><path class="cls-1" d="M115.33,7.55c-.58,0-1.06.47-1.06,1.06s.47,1.06,1.06,1.06,1.06-.47,1.06-1.06-.47-1.06-1.06-1.06Z"/><path class="cls-1" d="M119.98,7.55c-.58,0-1.06.47-1.06,1.06s.47,1.06,1.06,1.06,1.06-.47,1.06-1.06-.47-1.06-1.06-1.06Z"/><path class="cls-1" d="M124.64,7.55c-.58,0-1.06.47-1.06,1.06s.47,1.06,1.06,1.06,1.06-.47,1.06-1.06-.47-1.06-1.06-1.06Z"/><path class="cls-1" d="M129.3,7.55c-.58,0-1.06.47-1.06,1.06s.47,1.06,1.06,1.06,1.06-.47,1.06-1.06-.47-1.06-1.06-1.06Z"/><path class="cls-1" d="M133.95,7.55c-.58,0-1.06.47-1.06,1.06s.47,1.06,1.06,1.06,1.06-.47,1.06-1.06-.47-1.06-1.06-1.06Z"/><path class="cls-1" d="M138.61,7.55c-.58,0-1.06.47-1.06,1.06s.47,1.06,1.06,1.06,1.06-.47,1.06-1.06-.47-1.06-1.06-1.06Z"/><path class="cls-1" d="M143.27,7.55c-.58,0-1.06.47-1.06,1.06s.47,1.06,1.06,1.06,1.06-.47,1.06-1.06-.47-1.06-1.06-1.06Z"/><path class="cls-1" d="M147.92,7.55c-.58,0-1.06.47-1.06,1.06s.47,1.06,1.06,1.06,1.06-.47,1.06-1.06-.47-1.06-1.06-1.06Z"/><path class="cls-1" d="M152.58,7.55c-.58,0-1.06.47-1.06,1.06s.47,1.06,1.06,1.06,1.06-.47,1.06-1.06-.47-1.06-1.06-1.06Z"/><path class="cls-1" d="M157.24,7.55c-.58,0-1.06.47-1.06,1.06s.47,1.06,1.06,1.06,1.06-.47,1.06-1.06-.47-1.06-1.06-1.06Z"/><path class="cls-1" d="M161.89,7.55c-.58,0-1.06.47-1.06,1.06s.47,1.06,1.06,1.06,1.06-.47,1.06-1.06-.47-1.06-1.06-1.06Z"/><path class="cls-1" d="M166.55,7.55c-.58,0-1.06.47-1.06,1.06s.47,1.06,1.06,1.06,1.06-.47,1.06-1.06-.47-1.06-1.06-1.06Z"/><path class="cls-1" d="M171.21,7.55c-.58,0-1.06.47-1.06,1.06s.47,1.06,1.06,1.06,1.06-.47,1.06-1.06-.47-1.06-1.06-1.06Z"/><path class="cls-1" d="M175.86,7.55c-.58,0-1.06.47-1.06,1.06s.47,1.06,1.06,1.06,1.06-.47,1.06-1.06-.47-1.06-1.06-1.06Z"/><path class="cls-1" d="M180.52,7.55c-.58,0-1.06.47-1.06,1.06s.47,1.06,1.06,1.06,1.06-.47,1.06-1.06-.47-1.06-1.06-1.06Z"/><path class="cls-1" d="M185.17,7.55c-.58,0-1.06.47-1.06,1.06s.47,1.06,1.06,1.06,1.06-.47,1.06-1.06-.47-1.06-1.06-1.06Z"/><path class="cls-1" d="M189.83,7.55c-.58,0-1.06.47-1.06,1.06s.47,1.06,1.06,1.06,1.06-.47,1.06-1.06-.47-1.06-1.06-1.06Z"/><path class="cls-1" d="M194.49,7.55c-.58,0-1.06.47-1.06,1.06s.47,1.06,1.06,1.06,1.06-.47,1.06-1.06-.47-1.06-1.06-1.06Z"/><path class="cls-1" d="M199.14,7.55c-.58,0-1.06.47-1.06,1.06s.47,1.06,1.06,1.06,1.06-.47,1.06-1.06-.47-1.06-1.06-1.06Z"/><path class="cls-1" d="M203.8,7.55c-.58,0-1.06.47-1.06,1.06s.47,1.06,1.06,1.06,1.06-.47,1.06-1.06-.47-1.06-1.06-1.06Z"/><path class="cls-1" d="M208.46,7.55c-.58,0-1.06.47-1.06,1.06s.47,1.06,1.06,1.06,1.06-.47,1.06-1.06-.47-1.06-1.06-1.06Z"/><path class="cls-1" d="M213.11,7.55c-.58,0-1.06.47-1.06,1.06s.47,1.06,1.06,1.06,1.06-.47,1.06-1.06-.47-1.06-1.06-1.06Z"/><path class="cls-1" d="M217.77,7.55c-.58,0-1.06.47-1.06,1.06s.47,1.06,1.06,1.06,1.06-.47,1.06-1.06-.47-1.06-1.06-1.06Z"/><path class="cls-1" d="M222.43,7.55c-.58,0-1.06.47-1.06,1.06s.47,1.06,1.06,1.06,1.06-.47,1.06-1.06-.47-1.06-1.06-1.06Z"/><path class="cls-1" d="M227.08,7.55c-.58,0-1.06.47-1.06,1.06s.47,1.06,1.06,1.06,1.06-.47,1.06-1.06-.47-1.06-1.06-1.06Z"/><path class="cls-1" d="M231.74,7.55c-.58,0-1.06.47-1.06,1.06s.47,1.06,1.06,1.06,1.06-.47,1.06-1.06-.47-1.06-1.06-1.06Z"/><path class="cls-1" d="M236.4,7.55c-.58,0-1.06.47-1.06,1.06s.47,1.06,1.06,1.06,1.06-.47,1.06-1.06-.47-1.06-1.06-1.06Z"/><path class="cls-1" d="M241.05,7.55c-.58,0-1.06.47-1.06,1.06s.47,1.06,1.06,1.06,1.06-.47,1.06-1.06-.47-1.06-1.06-1.06Z"/><path class="cls-1" d="M245.71,7.55c-.58,0-1.06.47-1.06,1.06s.47,1.06,1.06,1.06,1.06-.47,1.06-1.06-.47-1.06-1.06-1.06Z"/><path class="cls-1" d="M250.36,7.55c-.58,0-1.06.47-1.06,1.06s.47,1.06,1.06,1.06,1.06-.47,1.06-1.06-.47-1.06-1.06-1.06Z"/><path class="cls-1" d="M255.02,7.55c-.58,0-1.06.47-1.06,1.06s.47,1.06,1.06,1.06,1.06-.47,1.06-1.06-.47-1.06-1.06-1.06Z"/><path class="cls-1" d="M259.68,7.55c-.58,0-1.06.47-1.06,1.06s.47,1.06,1.06,1.06,1.06-.47,1.06-1.06-.47-1.06-1.06-1.06Z"/><path class="cls-1" d="M264.33,7.55c-.58,0-1.06.47-1.06,1.06s.47,1.06,1.06,1.06,1.06-.47,1.06-1.06-.47-1.06-1.06-1.06Z"/><path class="cls-1" d="M268.99,7.55c-.58,0-1.06.47-1.06,1.06s.47,1.06,1.06,1.06,1.06-.47,1.06-1.06-.47-1.06-1.06-1.06Z"/><path class="cls-1" d="M273.65,7.55c-.58,0-1.06.47-1.06,1.06s.47,1.06,1.06,1.06,1.06-.47,1.06-1.06-.47-1.06-1.06-1.06Z"/><path class="cls-1" d="M278.3,7.55c-.58,0-1.06.47-1.06,1.06s.47,1.06,1.06,1.06,1.06-.47,1.06-1.06-.47-1.06-1.06-1.06Z"/><path class="cls-1" d="M282.96,7.55c-.58,0-1.06.47-1.06,1.06s.47,1.06,1.06,1.06,1.06-.47,1.06-1.06-.47-1.06-1.06-1.06Z"/><path class="cls-1" d="M287.62,7.55c-.58,0-1.06.47-1.06,1.06s.47,1.06,1.06,1.06,1.06-.47,1.06-1.06-.47-1.06-1.06-1.06Z"/><path class="cls-1" d="M292.27,7.55c-.58,0-1.06.47-1.06,1.06s.47,1.06,1.06,1.06,1.06-.47,1.06-1.06-.47-1.06-1.06-1.06Z"/><path class="cls-1" d="M296.93,7.55c-.58,0-1.06.47-1.06,1.06s.47,1.06,1.06,1.06,1.06-.47,1.06-1.06-.47-1.06-1.06-1.06Z"/><path class="cls-1" d="M301.59,7.55c-.58,0-1.06.47-1.06,1.06s.47,1.06,1.06,1.06,1.06-.47,1.06-1.06-.47-1.06-1.06-1.06Z"/><path class="cls-1" d="M306.24,7.55c-.58,0-1.06.47-1.06,1.06s.47,1.06,1.06,1.06,1.06-.47,1.06-1.06-.47-1.06-1.06-1.06Z"/><path class="cls-1" d="M311.03,7.84c-.61-.09-1.14.3-1.19.9-.05.57.35,1.11.9,1.19.55.08,1.08-.31,1.19-.89s-.3-1.12-.9-1.21Z"/><path class="cls-1" d="M315.75,8.9c-.28-.11-.59-.07-.83.07-.25.13-.43.36-.51.64-.08.28-.04.56.09.79.13.23.34.4.6.51.52.19,1.11-.09,1.32-.64.21-.55-.09-1.16-.67-1.37Z"/><path class="cls-1" d="M320.2,10.8c-.55-.27-1.2-.06-1.45.47-.25.53-.05,1.15.45,1.39.49.27,1.11.11,1.41-.39.3-.5.13-1.17-.41-1.47Z"/><path class="cls-1" d="M324.23,13.47c-.49-.37-1.16-.28-1.5.19-.34.47-.26,1.13.19,1.46.46.32,1.08.29,1.47-.16.38-.43.34-1.15-.16-1.5Z"/><path class="cls-1" d="M327.73,16.8c-.41-.45-1.08-.49-1.5-.08-.42.41-.45,1.07-.08,1.48.38.41,1.05.45,1.49.09.47-.38.5-1.04.09-1.49Z"/><path class="cls-1" d="M330.61,20.69c-.32-.52-.97-.68-1.45-.35-.48.33-.64.98-.35,1.45.29.48.94.63,1.45.35.51-.28.67-.93.35-1.45Z"/><path class="cls-1" d="M332.75,25.02c-.1-.29-.31-.5-.55-.61-.25-.11-.55-.11-.82,0-.27.12-.45.33-.56.57-.11.25-.14.53-.04.79.19.52.8.8,1.35.61.55-.18.83-.8.62-1.38Z"/><path class="cls-1" d="M334.11,29.66c-.1-.6-.72-.97-1.27-.83-.58.14-.89.68-.8,1.23.08.55.62.93,1.2.84.58-.08.97-.64.88-1.25Z"/><path class="cls-1" d="M334.6,34.48c-.03-.61-.53-1.08-1.11-1.04-.58.04-1.03.52-1,1.07.02.28.13.53.31.72.18.19.44.31.73.32.29,0,.56-.1.76-.3.21-.19.33-.47.31-.77Z"/><path class="cls-1" d="M334.23,39.3c.09-.61-.3-1.15-.88-1.22-.58-.07-1.12.32-1.2.88-.08.55.31,1.1.88,1.22.57.12,1.11-.27,1.2-.87Z"/><path class="cls-1" d="M333.02,43.98c.21-.58-.07-1.18-.64-1.35-.55-.17-1.17.12-1.36.64-.19.52.09,1.13.63,1.35.54.22,1.15-.06,1.36-.64Z"/><path class="cls-1" d="M331.01,48.38c.33-.51.11-1.19-.41-1.45-.52-.27-1.12-.06-1.43.4-.29.48-.12,1.12.37,1.43.49.31,1.15.14,1.47-.38Z"/><path class="cls-1" d="M328.26,52.36c.39-.47.29-1.17-.17-1.52-.47-.36-1.1-.27-1.46.16-.38.41-.33,1.07.1,1.46.43.4,1.11.35,1.52-.11Z"/><path class="cls-1" d="M324.85,55.78c.45-.41.5-1.09.1-1.52-.4-.43-1.05-.47-1.46-.1-.42.37-.51.99-.15,1.46.35.46,1.05.56,1.51.16Z"/><path class="cls-1" d="M320.88,58.54c.52-.32.69-.97.38-1.47-.31-.49-.96-.66-1.43-.37-.47.31-.66.91-.4,1.43.27.52.94.74,1.45.4Z"/><path class="cls-1" d="M316.49,60.57c.58-.21.86-.82.64-1.36-.22-.54-.83-.82-1.35-.63-.52.19-.81.8-.64,1.36.17.56.78.84,1.35.63Z"/><path class="cls-1" d="M311.81,61.78c.6-.1,1-.63.87-1.21-.12-.55-.67-.96-1.22-.87-.55.08-.94.62-.87,1.2.07.58.61.98,1.22.88Z"/><path class="cls-1" d="M307,62.19c.59,0,1.08-.52,1.06-1.1-.03-.59-.48-1.02-1.06-1.02-.58,0-1.06.47-1.06,1.06s.47,1.06,1.06,1.06Z"/><path class="cls-1" d="M302.34,62.19c.58,0,1.06-.47,1.06-1.06s-.47-1.06-1.06-1.06-1.06.47-1.06,1.06.47,1.06,1.06,1.06Z"/><circle class="cls-1" cx="297.69" cy="61.13" r="1.06"/><path class="cls-1" d="M293.03,62.19c.58,0,1.06-.47,1.06-1.06s-.47-1.06-1.06-1.06-1.06.47-1.06,1.06.47,1.06,1.06,1.06Z"/><circle class="cls-1" cx="288.37" cy="61.13" r="1.06"/><path class="cls-1" d="M283.72,62.19c.58,0,1.06-.47,1.06-1.06s-.47-1.06-1.06-1.06-1.06.47-1.06,1.06.47,1.06,1.06,1.06Z"/><circle class="cls-1" cx="279.06" cy="61.13" r="1.06"/><path class="cls-1" d="M274.4,62.19c.58,0,1.06-.47,1.06-1.06s-.47-1.06-1.06-1.06-1.06.47-1.06,1.06.47,1.06,1.06,1.06Z"/><circle class="cls-1" cx="269.75" cy="61.13" r="1.06"/><path class="cls-1" d="M265.09,62.19c.58,0,1.06-.47,1.06-1.06s-.47-1.06-1.06-1.06-1.06.47-1.06,1.06.47,1.06,1.06,1.06Z"/><circle class="cls-1" cx="260.43" cy="61.13" r="1.06" transform="translate(198.89 321.47) rotate(-89.91)"/><path class="cls-1" d="M255.78,62.19c.58,0,1.06-.47,1.06-1.06s-.47-1.06-1.06-1.06-1.06.47-1.06,1.06.47,1.06,1.06,1.06Z"/><circle class="cls-1" cx="251.12" cy="61.13" r="1.06"/><path class="cls-1" d="M246.47,62.19c.58,0,1.06-.47,1.06-1.06s-.47-1.06-1.06-1.06-1.06.47-1.06,1.06.47,1.06,1.06,1.06Z"/><circle class="cls-1" cx="241.81" cy="61.13" r="1.06"/><path class="cls-1" d="M237.15,62.19c.58,0,1.06-.47,1.06-1.06s-.47-1.06-1.06-1.06-1.06.47-1.06,1.06.47,1.06,1.06,1.06Z"/><circle class="cls-1" cx="232.5" cy="61.13" r="1.06"/><circle class="cls-1" cx="227.84" cy="61.13" r="1.06"/><circle class="cls-1" cx="223.18" cy="61.13" r="1.06"/><path class="cls-1" d="M218.53,62.19c.58,0,1.06-.47,1.06-1.06s-.47-1.06-1.06-1.06-1.06.47-1.06,1.06.47,1.06,1.06,1.06Z"/><circle class="cls-1" cx="213.87" cy="61.13" r="1.06"/><circle class="cls-1" cx="209.21" cy="61.13" r="1.06"/><circle class="cls-1" cx="204.56" cy="61.13" r="1.06"/><circle class="cls-1" cx="199.9" cy="61.13" r="1.06"/><circle class="cls-1" cx="195.24" cy="61.13" r="1.06"/><path class="cls-1" d="M190.59,62.19c.58,0,1.06-.47,1.06-1.06s-.47-1.06-1.06-1.06-1.06.47-1.06,1.06.47,1.06,1.06,1.06Z"/><circle class="cls-1" cx="185.93" cy="61.13" r="1.06"/><path class="cls-1" d="M181.27,62.19c.58,0,1.06-.47,1.06-1.06s-.47-1.06-1.06-1.06-1.06.47-1.06,1.06.47,1.06,1.06,1.06Z"/><circle class="cls-1" cx="176.62" cy="61.13" r="1.06"/><circle class="cls-1" cx="171.96" cy="61.13" r="1.06"/><circle class="cls-1" cx="167.31" cy="61.13" r="1.06" transform="translate(106 228.37) rotate(-89.94)"/><circle class="cls-1" cx="162.65" cy="61.13" r="1.06"/><circle class="cls-1" cx="157.99" cy="61.13" r="1.06"/><circle class="cls-1" cx="153.34" cy="61.13" r="1.06"/><circle class="cls-1" cx="148.68" cy="61.13" r="1.06"/><circle class="cls-1" cx="144.02" cy="61.13" r="1.06"/><circle class="cls-1" cx="139.37" cy="61.13" r="1.06"/><circle class="cls-1" cx="134.71" cy="61.13" r="1.06"/><circle class="cls-1" cx="130.05" cy="61.13" r="1.06"/><circle class="cls-1" cx="125.4" cy="61.13" r="1.06"/><path class="cls-1" d="M120.74,62.19c.58,0,1.06-.47,1.06-1.06s-.47-1.06-1.06-1.06-1.06.47-1.06,1.06.47,1.06,1.06,1.06Z"/><circle class="cls-1" cx="116.08" cy="61.13" r="1.06"/><path class="cls-1" d="M111.43,62.19c.58,0,1.06-.47,1.06-1.06s-.47-1.06-1.06-1.06-1.06.47-1.06,1.06.47,1.06,1.06,1.06Z"/><circle class="cls-1" cx="106.77" cy="61.13" r="1.06"/><circle class="cls-1" cx="102.12" cy="61.13" r="1.06"/><circle class="cls-1" cx="97.46" cy="61.13" r="1.06"/><path class="cls-1" d="M92.8,62.19c.58,0,1.06-.47,1.06-1.06s-.47-1.06-1.06-1.06-1.06.47-1.06,1.06.47,1.06,1.06,1.06Z"/><circle class="cls-1" cx="88.15" cy="61.13" r="1.06"/><path class="cls-1" d="M83.49,62.19c.58,0,1.06-.47,1.06-1.06s-.47-1.06-1.06-1.06-1.06.47-1.06,1.06.47,1.06,1.06,1.06Z"/><circle class="cls-1" cx="78.83" cy="61.13" r="1.06"/><path class="cls-1" d="M74.18,62.19c.58,0,1.06-.47,1.06-1.06s-.47-1.06-1.06-1.06-1.06.47-1.06,1.06.47,1.06,1.06,1.06Z"/><circle class="cls-1" cx="69.52" cy="61.13" r="1.06"/><path class="cls-1" d="M64.86,62.19c.58,0,1.06-.47,1.06-1.06s-.47-1.06-1.06-1.06-1.06.47-1.06,1.06.47,1.06,1.06,1.06Z"/><circle class="cls-1" cx="60.21" cy="61.13" r="1.06"/><path class="cls-1" d="M55.55,62.19c.58,0,1.06-.47,1.06-1.06s-.47-1.06-1.06-1.06-1.06.47-1.06,1.06.47,1.06,1.06,1.06Z"/><circle class="cls-1" cx="50.89" cy="61.13" r="1.06"/><path class="cls-1" d="M46.24,62.19c.58,0,1.06-.47,1.06-1.06s-.47-1.06-1.06-1.06-1.06.47-1.06,1.06.47,1.06,1.06,1.06Z"/><circle class="cls-1" cx="41.58" cy="61.13" r="1.06"/><path class="cls-1" d="M36.93,62.19c.58,0,1.06-.47,1.06-1.06s-.47-1.06-1.06-1.06-1.06.47-1.06,1.06.47,1.06,1.06,1.06Z"/><line class="cls-2" x1="306.15" y1="65.16" x2="307.61" y2="66.45"/><line class="cls-2" x1="35.44" y1="66.45" x2="36.91" y2="65.16"/><path class="cls-1" d="M31.23,52.6c-1.07,0-1.82-.23-2.26-.68-.44-.45-.66-.95-.66-1.48,0-.61.17-1.07.52-1.36.35-.29.73-.44,1.16-.44.37,0,.7.11.98.34.28.23.42.57.42,1.02,0,.32-.12.64-.36.96.13.05.28.09.44.1s.31.02.44.02c1.68,0,3.21-.65,4.58-1.94,1.37-1.29,2.41-3.07,3.1-5.34-1.55-.32-2.81-.85-3.78-1.58-.97-.73-1.46-1.57-1.46-2.5,0-.64.2-1.23.6-1.76.4-.53.95-1.01,1.64-1.44s1.51-.79,2.44-1.1c.93-.31,1.93-.53,3-.66l3.04-11.2c.24-.99.4-1.76.48-2.32h-.92c-.88,0-1.67.29-2.38.86-.71.57-1.21,1.35-1.5,2.34l-.16-.04.72-5.88c.11.11.31.19.62.24.31.05.65.08,1.02.08h11.52c.37,0,.71-.03,1.02-.08.31-.05.51-.13.62-.24l.72,5.88-.16.04c-.29-.99-.79-1.77-1.5-2.34-.71-.57-1.5-.86-2.38-.86h-.68c.05.29.12.63.2,1.02.08.39.19.82.32,1.3l6,21.28c.24.8.45,1.47.64,2.02.19.55.39.99.6,1.34.21.35.45.61.7.8.25.19.54.33.86.44v.12h-7.28v-.12c.59-.21.91-.66.98-1.34.07-.68-.11-1.77-.54-3.26l-1.36-4.84c-.4-.69-.91-1.3-1.52-1.82-.61-.52-1.29-.95-2.04-1.28s-1.54-.58-2.38-.74c-.84-.16-1.67-.24-2.5-.24l-1.88,6.92c.32,0,.74-.03,1.26-.08.52-.05,1.03-.15,1.54-.3.51-.15.95-.35,1.32-.62.37-.27.56-.61.56-1.04,0-.37-.16-.64-.48-.8-.32-.16-.63-.24-.92-.24-.37,0-.72.08-1.04.24.32-.69.81-1.21,1.46-1.54.65-.33,1.33-.5,2.02-.5s1.31.17,1.84.5c.53.33.8.82.8,1.46,0,.59-.22,1.13-.66,1.64-.44.51-1.05.95-1.82,1.32-.77.37-1.67.67-2.7.9-1.03.23-2.13.34-3.3.34h-.24c-.38,1.57-.49,2.81-.34,3.7.15.89.53,1.53,1.14,1.9l-.68.92c-.59-.32-1.33-.43-2.24-.32.05-.37-.02-.65-.22-.82-.2-.17-.43-.26-.7-.26-.29,0-.55.1-.78.3s-.34.49-.34.86c0,.16.01.28.04.36-1.17.35-2.34.74-3.5,1.18-1.16.44-2.39.66-3.7.66ZM41.63,36.32c-1.01.29-1.83.71-2.44,1.24-.61.53-.92,1.15-.92,1.84,0,.53.17,1.03.5,1.5.33.47.77.86,1.3,1.18l1.56-5.76ZM48.35,22.8l-3.2,11.8c1.25.05,2.48.22,3.68.5,1.2.28,2.32.71,3.36,1.3l-3.84-13.6Z"/><path class="cls-1" d="M61.63,46.16c.64-.21,1.09-.66,1.34-1.34.25-.68.38-1.77.38-3.26v-13.36c0-1.49-.13-2.58-.38-3.26-.25-.68-.7-1.13-1.34-1.34v-.12h12.48c.29,0,.61-.02.94-.06.33-.04.57-.13.7-.26l-2.12,4.32-.12-.04c.13-1.12-.64-1.68-2.32-1.68h-4.24v6h.08c.29-.53.67-.96,1.14-1.28.47-.32,1.01-.48,1.62-.48.37,0,.73.05,1.06.14.33.09.66.2.98.32s.65.23.98.34c.33.11.66.16.98.16.67,0,1.16-.25,1.48-.76l.12.04c-.08.37-.23.75-.44,1.14-.21.39-.47.73-.76,1.04-.29.31-.62.56-.98.76-.36.2-.75.3-1.18.3-.35,0-.68-.06-1-.18s-.64-.25-.96-.38c-.32-.13-.65-.26-.98-.38s-.69-.18-1.06-.18c-.43,0-.79.15-1.08.44v11.08h4.04c1.12,0,2.13-.28,3.02-.84.89-.56,1.53-1.31,1.9-2.24l.16.04-1.08,5.88c-.08-.13-.23-.24-.46-.32-.23-.08-.46-.12-.7-.12h-12.2v-.12Z"/><path class="cls-1" d="M82.07,46.16c.64-.21,1.09-.66,1.34-1.34.25-.68.38-1.77.38-3.26v-15.68h-1.44c-.88,0-1.67.29-2.38.86-.71.57-1.21,1.35-1.5,2.34l-.16-.04.72-5.88c.11.11.31.19.62.24.31.05.65.08,1.02.08h9.8c.37,0,.71-.03,1.02-.08s.51-.13.62-.24l.72,5.88-.16.04c-.29-.99-.79-1.77-1.5-2.34s-1.5-.86-2.38-.86h-1.4v15.68c0,1.49.12,2.58.38,3.26.25.68.7,1.13,1.34,1.34v.12h-7.04v-.12Z"/><path class="cls-1" d="M95.15,46.16c.64-.21,1.09-.66,1.34-1.34.25-.68.38-1.77.38-3.26v-13.36c0-1.49-.13-2.58-.38-3.26-.25-.68-.7-1.13-1.34-1.34v-.12h7.04v.12c-.64.21-1.09.66-1.34,1.34-.25.68-.38,1.77-.38,3.26v1.2h6.88v-1.2c0-1.49-.13-2.58-.38-3.26-.25-.68-.7-1.13-1.34-1.34v-.12h7.04v.12c-.64.21-1.09.66-1.34,1.34-.25.68-.38,1.77-.38,3.26v13.36c0,1.49.13,2.58.38,3.26.25.68.7,1.13,1.34,1.34v.12h-7.04v-.12c.64-.21,1.09-.66,1.34-1.34.25-.68.38-1.77.38-3.26v-7.56h-6.88v7.56c0,1.49.13,2.58.38,3.26.25.68.7,1.13,1.34,1.34v.12h-7.04v-.12ZM107.35,33.2v-1h-6.88v1h6.88Z"/><path class="cls-1" d="M114.99,46.16c.64-.21,1.09-.66,1.34-1.34.25-.68.38-1.77.38-3.26v-13.36c0-1.49-.13-2.58-.38-3.26-.25-.68-.7-1.13-1.34-1.34v-.12h12.48c.29,0,.61-.02.94-.06s.57-.13.7-.26l-2.12,4.32-.12-.04c.13-1.12-.64-1.68-2.32-1.68h-4.24v6h.08c.29-.53.67-.96,1.14-1.28.47-.32,1.01-.48,1.62-.48.37,0,.73.05,1.06.14.33.09.66.2.98.32s.65.23.98.34c.33.11.66.16.98.16.67,0,1.16-.25,1.48-.76l.12.04c-.08.37-.23.75-.44,1.14-.21.39-.47.73-.76,1.04-.29.31-.62.56-.98.76-.36.2-.75.3-1.18.3-.35,0-.68-.06-1-.18-.32-.12-.64-.25-.96-.38-.32-.13-.65-.26-.98-.38-.33-.12-.69-.18-1.06-.18-.43,0-.79.15-1.08.44v11.08h4.04c1.12,0,2.13-.28,3.02-.84.89-.56,1.53-1.31,1.9-2.24l.16.04-1.08,5.88c-.08-.13-.23-.24-.46-.32s-.46-.12-.7-.12h-12.2v-.12Z"/><path class="cls-1" d="M131.66,46.16c.64-.21,1.09-.66,1.34-1.34.25-.68.38-1.77.38-3.26v-13.36c0-1.49-.13-2.58-.38-3.26-.25-.68-.7-1.13-1.34-1.34v-.12h9.72c.96,0,1.84.13,2.64.4.8.27,1.48.64,2.04,1.12.56.48.99,1.04,1.3,1.68.31.64.46,1.35.46,2.12s-.14,1.43-.42,2.06c-.28.63-.66,1.17-1.14,1.62-.48.45-1.05.8-1.7,1.04-.65.24-1.35.35-2.1.32.88,1.12,1.72,2.46,2.52,4.02.8,1.56,1.45,3.13,1.96,4.7.64,2,1.39,3.2,2.24,3.6v.12h-6.8l-.04-.12c.93-.43,1.2-1.48.8-3.16-.24-1.01-.56-2.06-.96-3.14-.4-1.08-.86-2.13-1.38-3.14-.52-1.01-1.11-1.94-1.76-2.78-.65-.84-1.34-1.53-2.06-2.06v9.68c0,1.49.13,2.58.38,3.26.25.68.7,1.13,1.34,1.34v.12h-7.04v-.12ZM141.11,31.68c.91,0,1.59-.27,2.06-.8.47-.53.7-1.15.7-1.84,0-.96-.39-1.76-1.18-2.4-.79-.64-1.81-.96-3.06-.96h-2.64v.8c0,.75.11,1.44.34,2.08.23.64.53,1.19.92,1.66.39.47.83.83,1.32,1.08.49.25,1.01.38,1.54.38Z"/><path class="cls-1" d="M157.46,46.64c-1.28,0-2.53-.25-3.74-.76-1.21-.51-2.22-1.27-3.02-2.28l1.48-5.4h.12c.11.99.35,1.84.72,2.56.37.72.82,1.32,1.34,1.8.52.48,1.09.83,1.7,1.06s1.21.34,1.8.34c.91,0,1.69-.27,2.34-.82.65-.55.98-1.34.98-2.38,0-.88-.25-1.62-.74-2.22s-1.11-1.15-1.84-1.66c-.73-.51-1.53-1-2.4-1.48-.87-.48-1.67-1.01-2.4-1.6-.73-.59-1.35-1.27-1.84-2.06-.49-.79-.74-1.75-.74-2.9,0-1.71.57-3.09,1.72-4.14,1.15-1.05,2.65-1.58,4.52-1.58.59,0,1.13.05,1.62.14.49.09.94.2,1.34.32.4.12.75.23,1.06.32s.57.14.78.14.37-.07.48-.2l.2,5.52-.16.04c-.43-1.15-1.11-2.09-2.04-2.82s-1.93-1.1-3-1.1c-.8,0-1.49.23-2.08.68-.59.45-.88,1.15-.88,2.08,0,.8.25,1.49.74,2.06.49.57,1.11,1.1,1.84,1.58.73.48,1.53.95,2.38,1.42.85.47,1.65,1,2.38,1.6.73.6,1.35,1.31,1.84,2.12.49.81.74,1.81.74,2.98s-.21,2.09-.62,2.92c-.41.83-.95,1.52-1.62,2.08-.67.56-1.43.97-2.3,1.24-.87.27-1.77.4-2.7.4Z"/><path class="cls-1" d="M165.66,46.16c.51-.19.93-.55,1.26-1.1.33-.55.67-1.5,1.02-2.86l3.6-13.8c.4-1.52.58-2.65.54-3.4-.04-.75-.29-1.21-.74-1.4v-.12h5.84l5.04,18.72c.32,1.28.65,2.21.98,2.78.33.57.77.97,1.3,1.18v.12h-6.92v-.12c.56-.21.91-.67,1.04-1.38.13-.71.01-1.78-.36-3.22l-.24-.88h-6.8l-.2.88c-.35,1.44-.47,2.51-.36,3.2.11.69.45,1.16,1.04,1.4v.12h-6.04v-.12ZM177.42,38.28l-2.96-10.84-2.64,10.84h5.6Z"/><path class="cls-1" d="M185.46,46.16c.64-.21,1.09-.66,1.34-1.34.25-.68.38-1.77.38-3.26v-13.36c0-1.49-.13-2.58-.38-3.26-.25-.68-.7-1.13-1.34-1.34v-.12h7.04v.12c-.64.21-1.09.66-1.34,1.34-.25.68-.38,1.77-.38,3.26v15.68h2.84c1.12,0,2.13-.28,3.02-.84.89-.56,1.53-1.31,1.9-2.24l.16.04-1.08,5.88c-.08-.13-.23-.24-.46-.32s-.46-.12-.7-.12h-11v-.12Z"/><path class="cls-1" d="M208.54,46.64c-1.23,0-2.33-.29-3.32-.86-.99-.57-1.83-1.39-2.52-2.44-.69-1.05-1.23-2.33-1.6-3.84-.37-1.51-.56-3.18-.56-5.02,0-3.57.71-6.36,2.12-8.36,1.41-2,3.37-3,5.88-3,1.2,0,2.29.29,3.26.86.97.57,1.81,1.37,2.52,2.4.71,1.03,1.25,2.26,1.64,3.7.39,1.44.58,3.04.58,4.8s-.19,3.36-.58,4.8c-.39,1.44-.93,2.67-1.64,3.7-.71,1.03-1.55,1.83-2.52,2.4-.97.57-2.06.86-3.26.86ZM209.74,44.2c.56,0,1.05-.17,1.46-.52.41-.35.75-.82,1.02-1.42.27-.6.47-1.3.6-2.1.13-.8.2-1.65.2-2.56,0-1.33-.13-2.71-.4-4.14-.27-1.43-.65-2.73-1.14-3.9-.49-1.17-1.09-2.13-1.78-2.88-.69-.75-1.47-1.12-2.32-1.12-.59,0-1.09.17-1.5.52s-.75.82-1.02,1.42c-.27.6-.47,1.3-.6,2.1-.13.8-.2,1.64-.2,2.52,0,1.36.13,2.75.4,4.18.27,1.43.65,2.73,1.14,3.9.49,1.17,1.09,2.13,1.8,2.88.71.75,1.49,1.12,2.34,1.12Z"/><path class="cls-1" d="M219.26,46.16c.43-.13.75-.36.98-.68.23-.32.39-.68.5-1.08.11-.4.17-.82.2-1.26.03-.44.04-.83.04-1.18v-13.6c0-1.36-.13-2.41-.4-3.16-.27-.75-.71-1.28-1.32-1.6v-.12c1.73-.11,3.27.09,4.62.58,1.35.49,2.53,1.2,3.56,2.12,1.03.92,1.91,2.01,2.64,3.28s1.34,2.62,1.82,4.06v-5.72c0-.37-.01-.77-.04-1.2-.03-.43-.09-.84-.2-1.24-.11-.4-.27-.76-.5-1.08-.23-.32-.55-.55-.98-.68v-.12h6.32v.12c-.43.13-.75.36-.98.68-.23.32-.39.68-.5,1.08-.11.4-.17.81-.2,1.24-.03.43-.04.83-.04,1.2v18.48h-2.84c0-2.21-.21-4.33-.62-6.36-.41-2.03-.99-3.84-1.72-5.44-.73-1.6-1.59-2.92-2.58-3.96-.99-1.04-2.04-1.68-3.16-1.92v13.36c0,.35.01.74.04,1.18.03.44.09.86.2,1.26.11.4.27.76.5,1.08.23.32.55.55.98.68v.12h-6.32v-.12Z"/><path class="cls-1" d="M250.58,46.2c.64-.24,1.09-.69,1.34-1.36.25-.67.38-1.75.38-3.24v-11.8c0-1.49-.13-2.58-.38-3.26-.25-.68-.7-1.13-1.34-1.34v-.12l5.32-2.28v18.8c0,1.49.13,2.57.38,3.24.25.67.7,1.12,1.34,1.36v.08h-7.04v-.08Z"/><path class="cls-1" d="M268.02,46.64c-1.07,0-2.05-.15-2.94-.44-.89-.29-1.65-.71-2.28-1.24-.63-.53-1.11-1.18-1.46-1.94-.35-.76-.52-1.61-.52-2.54,0-.75.13-1.42.4-2.02.27-.6.61-1.13,1.04-1.6s.91-.87,1.44-1.22c.53-.35,1.07-.64,1.6-.88-.51-.29-.98-.61-1.42-.96-.44-.35-.83-.74-1.16-1.18-.33-.44-.59-.93-.78-1.48-.19-.55-.28-1.18-.28-1.9,0-.91.16-1.73.48-2.48.32-.75.77-1.39,1.34-1.92.57-.53,1.27-.95,2.08-1.24.81-.29,1.7-.44,2.66-.44.83,0,1.63.12,2.42.36.79.24,1.49.59,2.1,1.06.61.47,1.11,1.05,1.48,1.76.37.71.56,1.53.56,2.46,0,1.12-.33,2.17-1,3.14-.67.97-1.65,1.65-2.96,2.02.64.29,1.25.62,1.84.98.59.36,1.11.79,1.56,1.28.45.49.81,1.07,1.08,1.74.27.67.4,1.47.4,2.4s-.19,1.75-.56,2.52-.9,1.44-1.58,2c-.68.56-1.49.99-2.44,1.3-.95.31-1.98.46-3.1.46ZM268.26,44.44c1.15,0,2.07-.33,2.76-1,.69-.67,1.04-1.55,1.04-2.64,0-.67-.13-1.24-.38-1.72-.25-.48-.59-.91-1.02-1.3-.43-.39-.91-.73-1.46-1.02-.55-.29-1.11-.59-1.7-.88-.88.4-1.6,1.01-2.16,1.82s-.84,1.77-.84,2.86c0,1.15.35,2.08,1.04,2.8.69.72,1.6,1.08,2.72,1.08ZM265.18,28.72c0,1.09.33,1.95,1,2.58.67.63,1.47,1.17,2.4,1.62.96-.37,1.67-.94,2.14-1.7.47-.76.7-1.54.7-2.34,0-1.15-.32-2.01-.96-2.58-.64-.57-1.37-.86-2.2-.86-.91,0-1.65.31-2.22.92-.57.61-.86,1.4-.86,2.36Z"/><path class="cls-1" d="M286.5,46.64c-1.07,0-2.05-.15-2.94-.44-.89-.29-1.65-.71-2.28-1.24-.63-.53-1.11-1.18-1.46-1.94-.35-.76-.52-1.61-.52-2.54,0-.75.13-1.42.4-2.02.27-.6.61-1.13,1.04-1.6s.91-.87,1.44-1.22c.53-.35,1.07-.64,1.6-.88-.51-.29-.98-.61-1.42-.96-.44-.35-.83-.74-1.16-1.18-.33-.44-.59-.93-.78-1.48-.19-.55-.28-1.18-.28-1.9,0-.91.16-1.73.48-2.48.32-.75.77-1.39,1.34-1.92.57-.53,1.27-.95,2.08-1.24.81-.29,1.7-.44,2.66-.44.83,0,1.63.12,2.42.36.79.24,1.49.59,2.1,1.06.61.47,1.11,1.05,1.48,1.76.37.71.56,1.53.56,2.46,0,1.12-.33,2.17-1,3.14-.67.97-1.65,1.65-2.96,2.02.64.29,1.25.62,1.84.98.59.36,1.11.79,1.56,1.28.45.49.81,1.07,1.08,1.74.27.67.4,1.47.4,2.4s-.19,1.75-.56,2.52c-.37.77-.9,1.44-1.58,2-.68.56-1.49.99-2.44,1.3-.95.31-1.98.46-3.1.46ZM286.74,44.44c1.15,0,2.07-.33,2.76-1,.69-.67,1.04-1.55,1.04-2.64,0-.67-.13-1.24-.38-1.72-.25-.48-.59-.91-1.02-1.3-.43-.39-.91-.73-1.46-1.02-.55-.29-1.11-.59-1.7-.88-.88.4-1.6,1.01-2.16,1.82-.56.81-.84,1.77-.84,2.86,0,1.15.35,2.08,1.04,2.8.69.72,1.6,1.08,2.72,1.08ZM283.66,28.72c0,1.09.33,1.95,1,2.58.67.63,1.47,1.17,2.4,1.62.96-.37,1.67-.94,2.14-1.7.47-.76.7-1.54.7-2.34,0-1.15-.32-2.01-.96-2.58-.64-.57-1.37-.86-2.2-.86-.91,0-1.65.31-2.22.92s-.86,1.4-.86,2.36Z"/><path class="cls-1" d="M303.3,46.64c-.43,0-.88-.05-1.36-.16-.48-.11-.92-.27-1.32-.5s-.73-.52-1-.88c-.27-.36-.4-.81-.4-1.34,0-.51.12-.95.36-1.32s.55-.68.92-.92c.37-.24.79-.42,1.24-.54.45-.12.89-.18,1.32-.18h.28l.08.16c-.29.16-.53.38-.7.66-.17.28-.26.59-.26.94,0,.53.18.94.54,1.22.36.28.79.42,1.3.42,1.07,0,1.95-.43,2.64-1.3s1.24-1.89,1.64-3.08.68-2.4.84-3.64c.16-1.24.24-2.23.24-2.98,0-2.51-.37-4.43-1.1-5.78-.73-1.35-1.77-2.02-3.1-2.02-1.2,0-2.15.52-2.84,1.56-.69,1.04-1.04,2.44-1.04,4.2s.34,3.12,1.02,4.16c.68,1.04,1.58,1.56,2.7,1.56.8,0,1.51-.3,2.14-.9.63-.6,1.06-1.41,1.3-2.42l.36.16c-.21,1.63-.78,2.93-1.7,3.92-.92.99-2.03,1.48-3.34,1.48-.85,0-1.64-.18-2.36-.54s-1.34-.86-1.86-1.5-.93-1.41-1.22-2.3c-.29-.89-.44-1.87-.44-2.94,0-1.25.19-2.41.58-3.46.39-1.05.91-1.96,1.58-2.72s1.46-1.36,2.38-1.8c.92-.44,1.91-.66,2.98-.66,1.28,0,2.39.29,3.34.86.95.57,1.73,1.33,2.36,2.28.63.95,1.09,2.04,1.4,3.28.31,1.24.46,2.53.46,3.86,0,1.57-.21,3.15-.64,4.72s-1.05,2.99-1.88,4.24c-.83,1.25-1.86,2.27-3.1,3.04-1.24.77-2.69,1.16-4.34,1.16Z"/></svg>