<?xml version="1.0" encoding="UTF-8" standalone="no"?><!DOCTYPE svg PUBLIC "-//W3C//DTD SVG 1.1//EN" "http://www.w3.org/Graphics/SVG/1.1/DTD/svg11.dtd"><svg width="100%" height="100%" viewBox="0 0 7096 2984" version="1.1" xmlns="http://www.w3.org/2000/svg" xmlns:xlink="http://www.w3.org/1999/xlink" xml:space="preserve" xmlns:serif="http://www.serif.com/" style="fill-rule:evenodd;clip-rule:evenodd;"><path d="M327.15,927.446l6509.875,0" style="fill:none;fill-rule:nonzero;stroke:#cdb587;stroke-width:104.17px;"/><path d="M327.15,2052.3l6509.875,0" style="fill:none;fill-rule:nonzero;stroke:#cdb587;stroke-width:104.17px;"/><path d="M3123.825,655.546c20.075,-38.883 -18.717,-79.933 -55.158,-58.413c-32.279,18.987 -28.029,-61.125 4.342,-82.467c31.196,-20.617 70.35,-2.171 135.092,63.567c66.188,67.183 86.988,81.833 134.458,94.942c19.892,5.517 26.767,5.333 57.058,-1.267c73.696,-16.275 114.296,-110.046 63.838,-147.658c-10.758,-8.046 -34.271,-9.675 -32.55,-2.35c23.15,99.554 -45.121,149.921 -115.65,85.358c-23.058,-20.979 -40.692,-58.954 -22.875,-49.008c15.554,8.679 70.258,4.975 88.613,-5.967c20.888,-12.479 22.062,-18.446 5.154,-27.038c-51.721,-26.404 -7.325,-123.425 56.512,-123.7c51.629,-0.179 96.842,-41.596 123.879,-113.208c22.154,-58.867 0.633,0.092 66.733,75.142c18.267,20.708 53.167,37.979 76.858,37.979c49.008,0 91.958,55.25 79.029,101.363c-3.346,11.846 -23.15,27.308 -31.017,24.325c-9.583,-3.708 -7.867,5.333 2.983,15.554c17.721,16.729 77.4,25.229 101.183,14.379c17.996,-8.138 8.321,16.275 -17.179,43.762c-58.683,63.117 -122.883,38.25 -122.25,-47.292l0.271,-38.158l-10.037,0c-37.075,0 -56.242,52.988 -34.45,95.125c48.467,93.858 169.363,83.371 258.788,-22.425c178.854,-211.5 199.021,50.546 147.3,6.962c-24.325,-20.438 -54.704,-0.454 -54.704,35.896c0,21.158 2.079,28.933 21.971,41.05c18.987,11.483 31.921,3.617 49.371,-10.217c56.783,-45.121 51.904,-129.938 8.771,-181.388c-61.033,-72.971 -130.842,-17.092 -138.979,-17.092c-0.725,0 -0.812,-10.579 -0.271,-23.421c5.696,-120.533 -69.625,-171.442 -189.887,-128.4c-60.042,21.521 -160.95,20.525 -160.95,-43.312l18.717,8.679c25.408,11.846 66.463,12.75 88.796,2.079c51.542,-24.775 51.542,-101.904 0,-101.904c-24.054,0 -31.017,9.583 -31.017,42.408c0,29.025 0,29.117 -29.296,29.025c-68.179,0 -49.279,-76.317 22.246,-89.517c30.113,-5.517 12.658,-25.5 -40.329,-46.296c-6.6,-2.621 -9.225,-6.871 -12.387,-20.708c-8.5,-36.8 -34.179,-79.933 -54.071,-90.513c-22.154,-11.937 -66.733,53.529 -66.733,97.929c0,7.325 -2.079,10.308 -8.95,13.2c-42.587,17.542 -56.062,26.854 -56.062,38.608c0,14.65 26.675,-5.154 62.571,29.296c32.1,30.833 16.729,68.179 -28.029,68.088c-26.946,-0.092 -29.296,-1.987 -26.583,-21.612c5.696,-41.325 -32.279,-67.454 -58.412,-40.146c-52.262,54.525 39.875,125.596 116.646,89.879l19.171,-8.862l-2.262,9.133c-10.217,41.325 -80.658,62.571 -138.438,41.683c-138.529,-50.004 -211.5,-9.854 -211.5,116.463c0,30.562 -1.9,34.271 -13.383,25.588c-81.742,-61.308 -186,43.854 -149.196,150.646c22.696,66.1 78.488,90.242 102.267,44.217l-0.008,0.013Z" style="fill:#cdb587;fill-rule:nonzero;"/><path d="M3599.446,374.512c-8.137,-16.458 -15.554,-32.55 -16.458,-35.625c-3.796,-12.658 -5.333,-9.854 -30.383,54.525c-10.4,26.583 12.387,36.529 12.208,36.442c38.792,19.621 57.146,-9.767 34.633,-55.338l0,-0.004Z" style="fill:#cdb587;fill-rule:nonzero;"/><path d="M3674.496,655.638c-22.875,-24.054 -52.717,-65.737 -66.912,-93.679c-18.717,-36.983 -42.408,-32.1 -70.258,14.379c-75.775,126.683 -99.554,86.896 -57.417,133.733c57.237,63.475 57.058,87.258 80.296,107.692c41.775,36.621 45.029,-36.079 121.258,-116.733c20.346,-21.521 21.158,-16.004 -6.963,-45.392l-0.004,0Z" style="fill:#cdb587;fill-rule:nonzero;"/><path d="M3479.183,438.713c-16.275,12.387 -15.192,16.004 7.417,24.233c14.921,5.517 22.967,11.121 34.992,24.683c26.675,29.929 43.492,34.633 43.492,35.354c21.971,9.675 55.25,-5.879 72.158,-33.637c9.675,-15.913 21.7,-25.679 34.362,-28.121c29.208,-5.425 2.892,-33.729 -31.375,-33.729c-16.096,0 -40.6,10.487 -49.463,21.25c-4.975,6.058 -17.45,6.238 -22.333,0.363c-17.542,-21.158 -67.546,-26.946 -89.246,-10.4l-0.004,0.004Z" style="fill:#cdb587;fill-rule:nonzero;"/><path d="M4379.071,786.296c-70.983,42.858 -145.85,50.637 -207.067,-29.929c-33.908,-44.579 1.267,-137.625 89.608,-159.054c102.629,-24.958 237.267,86.896 434.663,191.604c136.9,72.521 256.708,53.442 296.225,-57.058c25.317,-70.708 -11.121,-141.871 -84.454,-162.038c-66.642,-18.267 -114.475,4.883 -137.171,51.45c47.021,-42.5 95.846,-57.871 139.792,-29.567c70.529,45.483 71.071,121.8 17.092,165.475c-152.542,123.425 -344.6,-119.992 -538.829,-183.467c-131.204,-42.858 -235.008,-5.788 -258.517,88.704c-36.35,146.396 165.021,222.529 248.663,123.879l-0.004,0Z" style="fill:#cdb587;fill-rule:nonzero;"/><path d="M4199.038,735.296c-5.879,-75.412 42.137,-91.779 114.021,-79.754c102.629,17.271 254.45,163.846 433.396,222.079c92.142,30.021 179.038,-1.358 215.658,-74.6c-49.821,49.1 -132.108,75.05 -206.704,47.2c-151.367,-56.604 -292.788,-186.088 -413.683,-222.529c-58.233,-17.542 -106.429,-13.021 -138.888,25.317c-25.862,30.654 -15.554,57.146 -3.796,82.283l-0.004,0.004Z" style="fill:#cdb587;fill-rule:nonzero;"/><path d="M4147.133,599.392c43.404,-63.475 120.442,-85.179 213.937,-65.558c118.904,24.958 271.358,166.379 435.567,220.358c88.613,29.117 129.396,-7.325 118.271,-80.204c-7.233,50.183 -44.396,79.208 -114.021,53.167c-193.775,-72.429 -293.962,-193.596 -446.687,-219.004c-112.396,-18.808 -187.175,17 -207.067,91.237l0,0.004Z" style="fill:#cdb587;fill-rule:nonzero;"/><path d="M4719.508,634.117c0,3.979 -1.358,7.233 -4.071,10.037c-2.804,2.804 -6.15,4.158 -10.038,4.158c-3.887,0 -7.233,-1.358 -10.038,-4.158c-2.713,-2.804 -4.158,-6.058 -4.158,-10.037c0,-3.887 1.446,-7.233 4.158,-9.946c2.804,-2.804 6.15,-4.158 10.038,-4.158c3.887,0 7.233,1.358 10.038,4.158c2.713,2.712 4.071,6.058 4.071,9.946Z" style="fill:#cdb587;fill-rule:nonzero;"/><path d="M4673.212,604.908c0,3.979 -1.358,7.417 -4.25,10.217c-2.804,2.804 -6.15,4.25 -10.217,4.25c-3.979,0 -7.417,-1.446 -10.217,-4.25c-2.804,-2.804 -4.25,-6.238 -4.25,-10.217c0,-3.979 1.446,-7.417 4.25,-10.217c2.804,-2.892 6.238,-4.25 10.217,-4.25c4.071,0 7.417,1.358 10.217,4.25c2.892,2.804 4.25,6.238 4.25,10.217Z" style="fill:#cdb587;fill-rule:nonzero;"/><path d="M4629.812,574.346c0,4.521 -1.537,8.408 -4.792,11.575c-3.167,3.254 -7.054,4.792 -11.575,4.792c-4.521,0 -8.408,-1.538 -11.575,-4.792c-3.254,-3.167 -4.792,-7.054 -4.792,-11.575c0,-4.521 1.538,-8.408 4.792,-11.575c3.167,-3.254 7.054,-4.792 11.575,-4.792c4.521,0 8.408,1.538 11.575,4.792c3.254,3.167 4.792,7.054 4.792,11.575Z" style="fill:#cdb587;fill-rule:nonzero;"/><path d="M4579.717,543.513c0,5.517 -1.988,10.217 -5.879,14.104c-3.887,3.888 -8.592,5.788 -14.104,5.788c-5.517,0 -10.217,-1.9 -14.104,-5.788c-3.888,-3.887 -5.788,-8.592 -5.788,-14.104c0,-5.517 1.9,-10.217 5.788,-14.104c3.887,-3.888 8.592,-5.879 14.104,-5.879c5.517,0 10.217,1.988 14.104,5.879c3.887,3.888 5.879,8.592 5.879,14.104Z" style="fill:#cdb587;fill-rule:nonzero;"/><path d="M4529.892,517.108c0,6.237 -2.262,11.575 -6.6,15.913c-4.429,4.429 -9.767,6.6 -15.913,6.6c-6.238,0 -11.575,-2.171 -15.912,-6.6c-4.429,-4.342 -6.6,-9.675 -6.6,-15.913c0,-6.237 2.171,-11.483 6.6,-15.912c4.342,-4.342 9.675,-6.6 15.912,-6.6c6.15,0 11.483,2.263 15.913,6.6c4.342,4.429 6.6,9.675 6.6,15.912Z" style="fill:#cdb587;fill-rule:nonzero;"/><path d="M4478.083,492.063c0,3.346 -0.633,6.692 -1.988,9.854c-1.267,3.075 -3.167,5.879 -5.517,8.321c-2.442,2.442 -5.246,4.25 -8.408,5.604c-3.075,1.267 -6.421,1.9 -9.767,1.9c-3.438,0 -6.692,-0.633 -9.854,-1.9c-3.167,-1.358 -5.967,-3.167 -8.408,-5.604c-2.35,-2.442 -4.25,-5.246 -5.517,-8.321c-1.358,-3.167 -1.988,-6.508 -1.988,-9.854c0,-3.438 0.633,-6.692 1.988,-9.854c1.267,-3.167 3.167,-5.967 5.517,-8.321c2.442,-2.442 5.246,-4.342 8.408,-5.604c3.167,-1.267 6.421,-1.988 9.854,-1.988c3.346,0 6.692,0.725 9.767,1.988c3.167,1.267 5.967,3.167 8.408,5.604c2.35,2.35 4.25,5.154 5.517,8.321c1.358,3.167 1.988,6.421 1.988,9.854Z" style="fill:#cdb587;fill-rule:nonzero;"/><path d="M4410.896,464.392c0,3.525 -0.725,6.871 -1.988,10.129c-1.358,3.167 -3.254,6.058 -5.788,8.5c-2.442,2.442 -5.246,4.429 -8.5,5.696c-3.254,1.358 -6.6,2.079 -10.129,2.079c-3.438,0 -6.871,-0.725 -10.038,-2.079c-3.254,-1.267 -6.15,-3.254 -8.592,-5.696c-2.442,-2.442 -4.342,-5.333 -5.696,-8.5c-1.358,-3.254 -1.988,-6.6 -1.988,-10.129c0,-3.525 0.633,-6.871 1.988,-10.129c1.358,-3.167 3.254,-6.058 5.696,-8.5c2.442,-2.533 5.333,-4.429 8.592,-5.696c3.167,-1.358 6.6,-2.079 10.038,-2.079c3.525,0 6.871,0.725 10.129,2.079c3.254,1.267 6.058,3.167 8.5,5.696c2.533,2.442 4.429,5.333 5.788,8.5c1.267,3.254 1.988,6.6 1.988,10.129Z" style="fill:#cdb587;fill-rule:nonzero;"/><path d="M4338.2,449.925c0,3.979 -0.725,7.867 -2.262,11.575c-1.537,3.708 -3.708,6.963 -6.6,9.767c-2.804,2.892 -6.058,5.062 -9.767,6.6c-3.708,1.537 -7.596,2.262 -11.575,2.262c-3.979,0 -7.867,-0.725 -11.575,-2.262c-3.708,-1.538 -6.962,-3.708 -9.767,-6.6c-2.892,-2.804 -5.062,-6.058 -6.6,-9.767c-1.537,-3.708 -2.262,-7.596 -2.262,-11.575c0,-3.979 0.725,-7.867 2.262,-11.575c1.537,-3.708 3.708,-6.963 6.6,-9.767c2.804,-2.892 6.058,-5.062 9.767,-6.6c3.708,-1.538 7.596,-2.263 11.575,-2.263c3.979,0 7.867,0.725 11.575,2.263c3.708,1.538 6.963,3.708 9.767,6.6c2.892,2.804 5.062,6.058 6.6,9.767c1.538,3.708 2.262,7.596 2.262,11.575Z" style="fill:#cdb587;fill-rule:nonzero;"/><path d="M4249.492,466.292c0,4.521 -0.904,8.771 -2.533,12.929c-1.717,4.158 -4.158,7.775 -7.325,10.942c-3.167,3.167 -6.871,5.604 -11.033,7.325c-4.071,1.717 -8.408,2.621 -12.842,2.621c-4.521,0 -8.863,-0.904 -12.929,-2.621c-4.158,-1.717 -7.775,-4.158 -10.942,-7.325c-3.167,-3.167 -5.604,-6.783 -7.325,-10.942c-1.717,-4.158 -2.621,-8.408 -2.621,-12.929c0,-4.429 0.904,-8.771 2.621,-12.929c1.717,-4.071 4.158,-7.775 7.325,-10.942c3.167,-3.167 6.783,-5.604 10.942,-7.325c4.071,-1.717 8.408,-2.533 12.929,-2.533c4.429,0 8.771,0.812 12.842,2.533c4.158,1.717 7.867,4.158 11.033,7.325c3.167,3.167 5.604,6.871 7.325,10.942c1.629,4.158 2.533,8.5 2.533,12.929Z" style="fill:#cdb587;fill-rule:nonzero;"/><g><g><path d="M2784.829,786.296c71.071,42.858 145.85,50.637 207.067,-29.929c33.908,-44.579 -1.267,-137.625 -89.608,-159.054c-102.629,-24.958 -237.267,86.896 -434.662,191.604c-136.808,72.521 -256.708,53.442 -296.225,-57.058c-25.317,-70.708 11.121,-141.871 84.454,-162.038c66.642,-18.267 114.567,4.883 137.171,51.45c-46.929,-42.5 -95.758,-57.871 -139.704,-29.567c-70.621,45.483 -71.162,121.8 -17.179,165.475c152.633,123.425 344.6,-119.992 538.829,-183.467c131.204,-42.858 235.1,-5.788 258.517,88.704c36.35,146.396 -165.021,222.529 -248.662,123.879l0.004,0Z" style="fill:#cdb587;fill-rule:nonzero;"/><g><path d="M2964.954,735.296c5.787,-75.412 -42.229,-91.779 -114.021,-79.754c-102.721,17.271 -254.538,163.846 -433.483,222.079c-92.142,30.021 -179.038,-1.358 -215.567,-74.6c49.733,49.1 132.017,75.05 206.617,47.2c151.458,-56.604 292.879,-186.088 413.683,-222.529c58.321,-17.542 106.517,-13.021 138.887,25.317c25.863,30.654 15.642,57.146 3.887,82.283l-0.004,0.004Z" style="fill:#cdb587;fill-rule:nonzero;"/></g><path d="M3016.763,599.392c-43.404,-63.475 -120.354,-85.179 -213.85,-65.558c-118.996,24.958 -271.358,166.379 -435.567,220.358c-88.613,29.117 -129.483,-7.325 -118.363,-80.204c7.233,50.183 44.396,79.208 114.021,53.167c193.775,-72.429 293.963,-193.596 446.688,-219.004c112.396,-18.808 187.175,17 207.067,91.237l0.004,0.004Z" style="fill:#cdb587;fill-rule:nonzero;"/><path d="M2444.392,634.117c0,3.979 1.358,7.233 4.158,10.037c2.713,2.804 6.058,4.158 9.946,4.158c3.979,0 7.233,-1.358 10.037,-4.158c2.804,-2.804 4.158,-6.058 4.158,-10.037c0,-3.887 -1.358,-7.233 -4.158,-9.946c-2.804,-2.804 -6.058,-4.158 -10.037,-4.158c-3.887,0 -7.233,1.358 -9.946,4.158c-2.804,2.712 -4.158,6.058 -4.158,9.946Z" style="fill:#cdb587;fill-rule:nonzero;"/><path d="M2490.688,604.908c0,3.979 1.446,7.417 4.25,10.217c2.804,2.804 6.237,4.25 10.217,4.25c3.979,0 7.417,-1.446 10.217,-4.25c2.804,-2.804 4.25,-6.238 4.25,-10.217c0,-3.979 -1.446,-7.417 -4.25,-10.217c-2.804,-2.892 -6.237,-4.25 -10.217,-4.25c-3.979,0 -7.417,1.358 -10.217,4.25c-2.804,2.804 -4.25,6.238 -4.25,10.217Z" style="fill:#cdb587;fill-rule:nonzero;"/><path d="M2534.088,574.346c0,4.521 1.629,8.408 4.792,11.575c3.167,3.254 7.054,4.792 11.575,4.792c4.521,0 8.408,-1.538 11.662,-4.792c3.167,-3.167 4.792,-7.054 4.792,-11.575c0,-4.521 -1.629,-8.408 -4.792,-11.575c-3.254,-3.254 -7.142,-4.792 -11.662,-4.792c-4.521,0 -8.408,1.538 -11.575,4.792c-3.167,3.167 -4.792,7.054 -4.792,11.575Z" style="fill:#cdb587;fill-rule:nonzero;"/><path d="M2584.275,543.513c0,5.517 1.9,10.217 5.787,14.104c3.888,3.888 8.592,5.788 14.104,5.788c5.517,0 10.217,-1.9 14.104,-5.788c3.887,-3.887 5.879,-8.592 5.879,-14.104c0,-5.517 -1.988,-10.217 -5.879,-14.104c-3.887,-3.888 -8.592,-5.879 -14.104,-5.879c-5.517,0 -10.217,1.988 -14.104,5.879c-3.887,3.888 -5.787,8.592 -5.787,14.104Z" style="fill:#cdb587;fill-rule:nonzero;"/><path d="M2634.096,517.108c0,6.237 2.171,11.575 6.6,15.913c4.342,4.429 9.675,6.6 15.912,6.6c6.15,0 11.483,-2.171 15.912,-6.6c4.342,-4.342 6.6,-9.675 6.6,-15.913c0,-6.237 -2.263,-11.483 -6.6,-15.912c-4.429,-4.342 -9.767,-6.6 -15.912,-6.6c-6.237,0 -11.575,2.263 -15.912,6.6c-4.429,4.429 -6.6,9.675 -6.6,15.912Z" style="fill:#cdb587;fill-rule:nonzero;"/><path d="M2685.817,492.063c0,3.346 0.633,6.692 1.987,9.854c1.267,3.075 3.167,5.879 5.604,8.321c2.35,2.442 5.154,4.25 8.321,5.604c3.167,1.267 6.421,1.9 9.854,1.9c3.346,0 6.692,-0.633 9.854,-1.9c3.075,-1.358 5.879,-3.167 8.321,-5.604c2.442,-2.442 4.25,-5.246 5.604,-8.321c1.267,-3.167 1.9,-6.508 1.9,-9.854c0,-3.438 -0.633,-6.692 -1.9,-9.854c-1.358,-3.167 -3.167,-5.967 -5.604,-8.321c-2.442,-2.442 -5.246,-4.342 -8.321,-5.604c-3.167,-1.267 -6.508,-1.988 -9.854,-1.988c-3.438,0 -6.692,0.725 -9.854,1.988c-3.167,1.267 -5.967,3.167 -8.321,5.604c-2.442,2.35 -4.342,5.154 -5.604,8.321c-1.358,3.167 -1.987,6.421 -1.987,9.854Z" style="fill:#cdb587;fill-rule:nonzero;"/><path d="M2753,464.392c0,3.525 0.725,6.871 2.079,10.129c1.267,3.167 3.167,6.058 5.696,8.5c2.442,2.442 5.333,4.429 8.5,5.696c3.254,1.358 6.6,2.079 10.129,2.079c3.525,0 6.871,-0.725 10.129,-2.079c3.167,-1.267 6.058,-3.254 8.5,-5.696c2.442,-2.442 4.429,-5.333 5.696,-8.5c1.358,-3.254 2.079,-6.6 2.079,-10.129c0,-3.525 -0.725,-6.871 -2.079,-10.129c-1.267,-3.167 -3.254,-6.058 -5.696,-8.5c-2.442,-2.533 -5.333,-4.429 -8.5,-5.696c-3.254,-1.358 -6.6,-2.079 -10.129,-2.079c-3.525,0 -6.871,0.725 -10.129,2.079c-3.167,1.267 -6.058,3.167 -8.5,5.696c-2.533,2.442 -4.429,5.333 -5.696,8.5c-1.358,3.254 -2.079,6.6 -2.079,10.129Z" style="fill:#cdb587;fill-rule:nonzero;"/><g><path d="M2825.7,449.925c0,3.979 0.725,7.867 2.262,11.575c1.538,3.708 3.796,6.963 6.6,9.767c2.804,2.892 6.058,5.062 9.767,6.6c3.708,1.537 7.596,2.262 11.575,2.262c4.071,0 7.867,-0.725 11.575,-2.262c3.708,-1.538 6.963,-3.708 9.854,-6.6c2.804,-2.804 4.975,-6.058 6.508,-9.767c1.537,-3.708 2.262,-7.596 2.262,-11.575c0,-3.979 -0.725,-7.867 -2.262,-11.575c-1.537,-3.708 -3.708,-6.963 -6.508,-9.767c-2.892,-2.892 -6.15,-5.062 -9.854,-6.6c-3.708,-1.538 -7.504,-2.263 -11.575,-2.263c-3.979,0 -7.867,0.725 -11.575,2.263c-3.708,1.538 -6.963,3.708 -9.767,6.6c-2.804,2.804 -5.062,6.058 -6.6,9.767c-1.537,3.708 -2.262,7.596 -2.262,11.575Z" style="fill:#cdb587;fill-rule:nonzero;"/></g><g><path d="M2914.404,466.292c0,4.521 0.904,8.771 2.621,12.929c1.717,4.158 4.158,7.775 7.325,10.942c3.167,3.167 6.783,5.604 10.942,7.325c4.158,1.717 8.408,2.621 12.929,2.621c4.429,0 8.771,-0.904 12.929,-2.621c4.071,-1.717 7.775,-4.158 10.942,-7.325c3.167,-3.167 5.604,-6.783 7.325,-10.942c1.717,-4.158 2.533,-8.408 2.533,-12.929c0,-4.429 -0.813,-8.771 -2.533,-12.929c-1.717,-4.071 -4.158,-7.775 -7.325,-10.942c-3.167,-3.167 -6.871,-5.604 -10.942,-7.325c-4.158,-1.717 -8.5,-2.533 -12.929,-2.533c-4.521,0 -8.771,0.812 -12.929,2.533c-4.158,1.717 -7.775,4.158 -10.942,7.325c-3.167,3.167 -5.604,6.871 -7.325,10.942c-1.717,4.158 -2.621,8.5 -2.621,12.929Z" style="fill:#cdb587;fill-rule:nonzero;"/></g></g></g><path d="M4041.071,2324.021c-20.075,38.883 18.717,79.933 55.158,58.412c32.279,-19.079 28.029,61.125 -4.342,82.467c-31.196,20.617 -70.35,2.171 -135.092,-63.567c-66.188,-67.183 -86.987,-81.833 -134.458,-94.942c-19.892,-5.517 -26.767,-5.333 -57.058,1.267c-73.783,16.275 -114.296,110.046 -63.838,147.658c10.758,8.046 34.271,9.675 32.55,2.35c-23.15,-99.554 45.121,-149.921 115.65,-85.358c23.058,20.979 40.692,58.954 22.875,49.008c-15.554,-8.679 -70.258,-4.975 -88.613,5.967c-20.888,12.479 -22.062,18.446 -5.154,27.038c51.721,26.404 7.325,123.425 -56.512,123.7c-51.629,0.179 -96.842,41.596 -123.879,113.208c-22.154,58.867 -0.633,-0.092 -66.733,-75.142c-18.267,-20.708 -53.167,-37.979 -76.858,-37.979c-49.008,0 -91.958,-55.25 -79.029,-101.363c3.346,-11.846 23.15,-27.308 31.017,-24.325c9.583,3.708 7.867,-5.333 -2.983,-15.554c-17.721,-16.817 -77.4,-25.229 -101.183,-14.467c-17.996,8.229 -8.321,-16.275 17.179,-43.675c58.683,-63.117 122.883,-38.25 122.25,47.292l-0.271,38.158l10.038,0c37.075,0 56.242,-52.987 34.45,-95.217c-48.467,-93.767 -169.363,-83.279 -258.787,22.517c-178.854,211.5 -199.021,-50.546 -147.3,-6.963c24.325,20.438 54.704,0.454 54.704,-35.896c0,-21.158 -2.079,-28.933 -21.971,-41.05c-18.988,-11.483 -31.921,-3.617 -49.371,10.217c-56.783,45.121 -51.904,129.937 -8.771,181.387c61.033,72.971 130.842,17.092 138.979,17.092c0.725,0 0.813,10.488 0.271,23.421c-5.696,120.533 69.625,171.442 189.887,128.308c60.042,-21.429 160.95,-20.438 160.95,43.404l-18.717,-8.679c-25.408,-11.846 -66.463,-12.75 -88.796,-2.079c-51.542,24.775 -51.542,101.904 0,101.904c23.962,0 31.017,-9.583 31.017,-42.408c0,-29.025 0,-29.117 29.296,-29.025c68.179,0 49.279,76.317 -22.246,89.517c-30.113,5.517 -12.658,25.5 40.329,46.296c6.6,2.533 9.225,6.871 12.387,20.708c8.5,36.8 34.179,79.933 54.071,90.512c22.154,11.938 66.733,-53.529 66.733,-97.929c0,-7.325 2.079,-10.308 8.95,-13.2c42.5,-17.542 56.062,-26.854 56.062,-38.608c0,-14.65 -26.675,5.154 -62.571,-29.296c-32.1,-30.925 -16.729,-68.179 28.029,-68.087c26.946,0.092 29.296,1.987 26.583,21.612c-5.696,41.325 32.279,67.454 58.412,40.146c52.263,-54.525 -39.875,-125.596 -116.646,-89.971l-19.171,8.95l2.262,-9.133c10.217,-41.325 80.658,-62.571 138.438,-41.683c138.529,50.004 211.5,9.767 211.5,-116.463c0,-30.562 1.9,-34.271 13.383,-25.587c81.742,61.308 186,-43.946 149.196,-150.733c-22.696,-66.008 -78.488,-90.15 -102.267,-44.125l0.008,-0.013Z" style="fill:#cdb587;fill-rule:nonzero;"/><path d="M3565.446,2605.054c8.137,16.458 15.554,32.55 16.458,35.625c3.796,12.658 5.333,9.854 30.383,-54.525c10.308,-26.583 -12.387,-36.529 -12.208,-36.442c-38.792,-19.621 -57.146,9.767 -34.633,55.337l-0,0.004Z" style="fill:#cdb587;fill-rule:nonzero;"/><path d="M3490.396,2323.929c22.875,24.054 52.717,65.738 66.912,93.679c18.717,36.983 42.408,32.1 70.258,-14.379c75.683,-126.683 99.554,-86.896 57.417,-133.733c-57.238,-63.475 -57.058,-87.258 -80.296,-107.692c-41.775,-36.621 -45.029,36.079 -121.346,116.733c-20.254,21.521 -21.067,16.004 7.054,45.392Z" style="fill:#cdb587;fill-rule:nonzero;"/><path d="M3685.708,2540.854c16.275,-12.387 15.192,-16.096 -7.417,-24.233c-14.921,-5.517 -22.967,-11.121 -34.992,-24.683c-26.675,-29.929 -43.492,-34.633 -43.492,-35.354c-21.971,-9.675 -55.25,5.879 -72.158,33.638c-9.675,15.912 -21.7,25.679 -34.362,28.121c-29.208,5.425 -2.892,33.729 31.375,33.729c16.096,0 40.6,-10.488 49.462,-21.25c4.975,-6.058 17.45,-6.237 22.333,-0.362c17.542,21.158 67.546,26.946 89.246,10.4l0.004,-0.004Z" style="fill:#cdb587;fill-rule:nonzero;"/><path d="M2785.646,2193.271c70.983,-42.858 145.85,-50.546 207.067,30.021c33.817,44.579 -1.267,137.625 -89.608,159.054c-102.629,24.867 -237.267,-86.987 -434.662,-191.696c-136.9,-72.521 -256.8,-53.442 -296.225,57.058c-25.317,70.708 11.121,141.871 84.454,162.038c66.642,18.354 114.475,-4.883 137.171,-51.45c-47.021,42.5 -95.846,57.871 -139.792,29.567c-70.621,-45.392 -71.162,-121.8 -17.179,-165.475c152.633,-123.425 344.692,119.992 538.917,183.467c131.204,42.95 235.008,5.787 258.517,-88.704c36.35,-146.396 -165.112,-222.438 -248.662,-123.879l0.004,-0Z" style="fill:#cdb587;fill-rule:nonzero;"/><path d="M2965.675,2244.267c5.879,75.504 -42.138,91.871 -114.021,79.754c-102.629,-17.271 -254.45,-163.846 -433.396,-222.079c-92.142,-30.021 -179.038,1.358 -215.658,74.6c49.733,-49.008 132.017,-75.05 206.617,-47.108c151.458,56.513 292.879,186.088 413.683,222.438c58.321,17.542 106.517,13.021 138.887,-25.317c25.95,-30.563 15.642,-57.058 3.888,-82.283l0,-0.004Z" style="fill:#cdb587;fill-rule:nonzero;"/><path d="M3017.579,2380.171c-43.492,63.475 -120.442,85.179 -213.938,65.558c-118.996,-24.958 -271.358,-166.287 -435.567,-220.358c-88.613,-29.117 -129.483,7.325 -118.271,80.204c7.142,-50.183 44.308,-79.208 114.021,-53.167c193.775,72.429 293.875,193.596 446.688,219.092c112.304,18.717 187.175,-17 207.067,-91.325l0,-0.004Z" style="fill:#cdb587;fill-rule:nonzero;"/><path d="M2445.113,2345.45c0,-3.887 1.446,-7.233 4.158,-10.037c2.804,-2.713 6.15,-4.071 10.038,-4.071c3.887,0 7.233,1.358 9.946,4.071c2.804,2.804 4.158,6.15 4.158,10.037c0,3.887 -1.358,7.233 -4.158,10.037c-2.712,2.712 -6.058,4.071 -9.946,4.071c-3.888,0 -7.233,-1.358 -10.038,-4.071c-2.712,-2.804 -4.158,-6.15 -4.158,-10.037Z" style="fill:#cdb587;fill-rule:nonzero;"/><path d="M2491.408,2374.746c0,-4.071 1.446,-7.417 4.25,-10.308c2.804,-2.804 6.237,-4.158 10.217,-4.158c4.071,0 7.417,1.358 10.308,4.158c2.804,2.892 4.158,6.237 4.158,10.308c0,3.979 -1.358,7.325 -4.158,10.217c-2.892,2.804 -6.237,4.25 -10.308,4.25c-3.979,0 -7.417,-1.446 -10.217,-4.25c-2.804,-2.892 -4.25,-6.237 -4.25,-10.217Z" style="fill:#cdb587;fill-rule:nonzero;"/><path d="M2534.813,2405.221c0,-4.521 1.629,-8.321 4.883,-11.575c3.167,-3.167 7.054,-4.792 11.575,-4.792c4.521,0 8.408,1.629 11.575,4.792c3.167,3.254 4.792,7.054 4.792,11.575c0,4.521 -1.629,8.408 -4.792,11.662c-3.167,3.167 -7.054,4.792 -11.575,4.792c-4.521,0 -8.408,-1.629 -11.575,-4.792c-3.254,-3.254 -4.883,-7.142 -4.883,-11.662Z" style="fill:#cdb587;fill-rule:nonzero;"/><path d="M2584.996,2436.146c0,-5.517 1.988,-10.217 5.879,-14.104c3.887,-3.887 8.592,-5.879 14.104,-5.879c5.425,0 10.129,1.987 14.017,5.879c3.887,3.888 5.879,8.592 5.879,14.104c0,5.517 -1.988,10.217 -5.879,14.104c-3.887,3.887 -8.592,5.787 -14.017,5.787c-5.517,0 -10.217,-1.9 -14.104,-5.787c-3.887,-3.887 -5.879,-8.592 -5.879,-14.104Z" style="fill:#cdb587;fill-rule:nonzero;"/><path d="M2634.821,2462.458c0,-6.15 2.263,-11.483 6.6,-15.912c4.429,-4.342 9.675,-6.6 15.912,-6.6c6.237,0 11.575,2.262 15.912,6.6c4.429,4.429 6.6,9.767 6.6,15.912c0,6.237 -2.171,11.575 -6.6,15.912c-4.342,4.429 -9.675,6.6 -15.912,6.6c-6.237,0 -11.483,-2.171 -15.912,-6.6c-4.342,-4.342 -6.6,-9.675 -6.6,-15.912Z" style="fill:#cdb587;fill-rule:nonzero;"/><path d="M2686.633,2487.596c0,-3.438 0.633,-6.692 1.9,-9.854c1.358,-3.167 3.167,-5.967 5.604,-8.408c2.442,-2.35 5.154,-4.25 8.321,-5.517c3.167,-1.358 6.421,-1.988 9.854,-1.988c3.438,0 6.692,0.633 9.854,1.988c3.167,1.267 5.967,3.167 8.321,5.517c2.442,2.442 4.342,5.246 5.604,8.408c1.267,3.167 1.987,6.421 1.987,9.854c0,3.346 -0.725,6.692 -1.987,9.767c-1.267,3.167 -3.167,5.967 -5.604,8.408c-2.35,2.35 -5.154,4.25 -8.321,5.517c-3.167,1.358 -6.421,1.988 -9.854,1.988c-3.438,0 -6.692,-0.633 -9.854,-1.988c-3.167,-1.267 -5.879,-3.167 -8.321,-5.517c-2.442,-2.442 -4.25,-5.246 -5.604,-8.408c-1.267,-3.075 -1.9,-6.421 -1.9,-9.767Z" style="fill:#cdb587;fill-rule:nonzero;"/><path d="M2753.817,2515.175c0,-3.438 0.633,-6.783 1.987,-10.037c1.358,-3.254 3.254,-6.058 5.696,-8.592c2.533,-2.442 5.333,-4.342 8.592,-5.696c3.254,-1.358 6.6,-1.987 10.038,-1.987c3.525,0 6.871,0.633 10.129,1.987c3.254,1.358 6.058,3.254 8.592,5.696c2.442,2.533 4.342,5.333 5.696,8.592c1.358,3.254 1.987,6.6 1.987,10.037c0,3.525 -0.633,6.871 -1.987,10.129c-1.358,3.254 -3.254,6.058 -5.696,8.592c-2.533,2.442 -5.333,4.342 -8.592,5.696c-3.254,1.358 -6.6,1.987 -10.129,1.987c-3.438,0 -6.783,-0.633 -10.038,-1.987c-3.254,-1.358 -6.058,-3.254 -8.592,-5.696c-2.442,-2.533 -4.342,-5.333 -5.696,-8.592c-1.358,-3.254 -1.987,-6.6 -1.987,-10.129Z" style="fill:#cdb587;fill-rule:nonzero;"/><path d="M2826.425,2529.642c0,-3.979 0.812,-7.867 2.35,-11.575c1.537,-3.617 3.708,-6.963 6.508,-9.767c2.892,-2.804 6.15,-4.975 9.854,-6.508c3.708,-1.537 7.504,-2.35 11.575,-2.35c3.979,0 7.867,0.813 11.575,2.35c3.708,1.538 6.963,3.708 9.767,6.508c2.804,2.804 5.062,6.15 6.508,9.767c1.538,3.708 2.35,7.596 2.35,11.575c0,4.071 -0.812,7.867 -2.35,11.575c-1.446,3.708 -3.708,6.963 -6.508,9.854c-2.804,2.804 -6.058,4.975 -9.767,6.508c-3.708,1.537 -7.596,2.35 -11.575,2.35c-4.071,0 -7.867,-0.812 -11.575,-2.35c-3.708,-1.538 -6.963,-3.708 -9.854,-6.508c-2.804,-2.892 -4.975,-6.15 -6.508,-9.854c-1.538,-3.708 -2.35,-7.504 -2.35,-11.575Z" style="fill:#cdb587;fill-rule:nonzero;"/><path d="M2915.221,2513.275c0,-4.429 0.812,-8.771 2.533,-12.929c1.717,-4.158 4.158,-7.775 7.325,-10.942c3.167,-3.167 6.871,-5.604 10.942,-7.325c4.158,-1.717 8.5,-2.533 12.929,-2.533c4.521,0 8.771,0.812 12.929,2.533c4.158,1.717 7.775,4.158 10.942,7.325c3.167,3.167 5.604,6.783 7.325,10.942c1.717,4.158 2.621,8.5 2.621,12.929c0,4.521 -0.904,8.771 -2.621,12.929c-1.717,4.158 -4.158,7.775 -7.325,10.942c-3.167,3.167 -6.783,5.604 -10.942,7.325c-4.158,1.717 -8.408,2.533 -12.929,2.533c-4.429,0 -8.771,-0.812 -12.929,-2.533c-4.071,-1.717 -7.775,-4.158 -10.942,-7.325c-3.167,-3.167 -5.604,-6.783 -7.325,-10.942c-1.717,-4.158 -2.533,-8.408 -2.533,-12.929Z" style="fill:#cdb587;fill-rule:nonzero;"/><g><g><g><path d="M4379.792,2193.271c-70.983,-42.858 -145.85,-50.546 -207.067,30.021c-33.817,44.579 1.358,137.625 89.608,159.054c102.721,24.867 237.267,-86.987 434.75,-191.696c136.808,-72.521 256.708,-53.442 296.225,57.058c25.229,70.708 -11.212,141.871 -84.454,162.038c-66.733,18.354 -114.567,-4.883 -137.171,-51.45c46.929,42.5 95.758,57.871 139.704,29.567c70.621,-45.392 71.163,-121.8 17.179,-165.475c-152.633,-123.425 -344.692,119.992 -538.917,183.467c-131.113,42.95 -235.008,5.787 -258.429,-88.704c-36.35,-146.396 165.021,-222.438 248.571,-123.879Z" style="fill:#cdb587;fill-rule:nonzero;"/></g><g><path d="M4199.762,2244.267c-5.879,75.504 42.229,91.871 114.021,79.754c102.721,-17.271 254.537,-163.846 433.396,-222.079c92.229,-30.021 179.038,1.358 215.658,74.6c-49.733,-49.008 -132.017,-75.05 -206.617,-47.108c-151.458,56.513 -292.879,186.088 -413.683,222.438c-58.321,17.542 -106.517,13.021 -138.887,-25.317c-25.95,-30.563 -15.642,-57.058 -3.887,-82.283l-0,-0.004Z" style="fill:#cdb587;fill-rule:nonzero;"/></g><path d="M4147.858,2380.171c43.492,63.475 120.442,85.179 213.938,65.558c118.996,-24.958 271.358,-166.287 435.567,-220.358c88.613,-29.117 129.483,7.325 118.362,80.204c-7.233,-50.183 -44.396,-79.208 -114.112,-53.167c-193.775,72.429 -293.875,193.596 -446.688,219.092c-112.304,18.717 -187.175,-17 -207.067,-91.325l0,-0.004Z" style="fill:#cdb587;fill-rule:nonzero;"/><path d="M4720.325,2345.45c0,-3.887 -1.358,-7.233 -4.158,-10.037c-2.804,-2.713 -6.058,-4.071 -10.038,-4.071c-3.887,0 -7.233,1.358 -9.946,4.071c-2.804,2.804 -4.158,6.15 -4.158,10.037c0,3.887 1.358,7.233 4.158,10.037c2.712,2.712 6.058,4.071 9.946,4.071c3.979,0 7.233,-1.358 10.038,-4.071c2.804,-2.804 4.158,-6.15 4.158,-10.037Z" style="fill:#cdb587;fill-rule:nonzero;"/><path d="M4674.025,2374.746c0,-4.071 -1.446,-7.417 -4.25,-10.308c-2.804,-2.804 -6.238,-4.158 -10.217,-4.158c-3.979,0 -7.417,1.358 -10.217,4.158c-2.892,2.892 -4.25,6.237 -4.25,10.308c0,3.979 1.358,7.325 4.25,10.217c2.804,2.804 6.238,4.25 10.217,4.25c3.979,0 7.417,-1.446 10.217,-4.25c2.804,-2.892 4.25,-6.237 4.25,-10.217Z" style="fill:#cdb587;fill-rule:nonzero;"/><path d="M4630.625,2405.221c0,-4.521 -1.629,-8.321 -4.792,-11.575c-3.254,-3.167 -7.054,-4.792 -11.663,-4.792c-4.521,0 -8.321,1.629 -11.575,4.792c-3.167,3.254 -4.792,7.054 -4.792,11.575c0,4.521 1.629,8.408 4.792,11.662c3.254,3.167 7.054,4.792 11.575,4.792c4.613,0 8.408,-1.629 11.663,-4.792c3.167,-3.254 4.792,-7.142 4.792,-11.662Z" style="fill:#cdb587;fill-rule:nonzero;"/><path d="M4580.442,2436.146c0,-5.517 -1.9,-10.217 -5.788,-14.104c-3.979,-3.887 -8.592,-5.879 -14.104,-5.879c-5.517,0 -10.217,1.987 -14.104,5.879c-3.887,3.888 -5.879,8.592 -5.879,14.104c0,5.517 1.988,10.217 5.879,14.104c3.887,3.887 8.592,5.787 14.104,5.787c5.517,0 10.129,-1.9 14.104,-5.787c3.888,-3.887 5.788,-8.592 5.788,-14.104Z" style="fill:#cdb587;fill-rule:nonzero;"/><path d="M4530.617,2462.458c0,-6.15 -2.171,-11.483 -6.6,-15.912c-4.429,-4.342 -9.675,-6.6 -15.912,-6.6c-6.238,0 -11.483,2.262 -15.913,6.6c-4.429,4.429 -6.6,9.767 -6.6,15.912c0,6.237 2.171,11.575 6.6,15.912c4.429,4.429 9.675,6.6 15.913,6.6c6.238,0 11.483,-2.171 15.912,-6.6c4.429,-4.342 6.6,-9.675 6.6,-15.912Z" style="fill:#cdb587;fill-rule:nonzero;"/><path d="M4478.804,2487.596c0,-3.438 -0.633,-6.692 -1.9,-9.854c-1.358,-3.167 -3.167,-5.967 -5.604,-8.408c-2.442,-2.35 -5.154,-4.25 -8.321,-5.517c-3.167,-1.358 -6.421,-1.988 -9.854,-1.988c-3.438,0 -6.692,0.633 -9.854,1.988c-3.167,1.267 -5.879,3.167 -8.321,5.517c-2.442,2.442 -4.25,5.246 -5.604,8.408c-1.267,3.167 -1.9,6.421 -1.9,9.854c0,3.346 0.633,6.692 1.9,9.767c1.358,3.167 3.167,5.967 5.604,8.408c2.442,2.35 5.154,4.25 8.321,5.517c3.167,1.358 6.421,1.988 9.854,1.988c3.438,0 6.692,-0.633 9.854,-1.988c3.167,-1.267 5.879,-3.167 8.321,-5.517c2.442,-2.442 4.25,-5.246 5.604,-8.408c1.267,-3.075 1.9,-6.421 1.9,-9.767Z" style="fill:#cdb587;fill-rule:nonzero;"/><path d="M4411.621,2515.175c0,-3.438 -0.633,-6.783 -1.988,-10.037c-1.358,-3.254 -3.254,-6.058 -5.696,-8.592c-2.442,-2.442 -5.333,-4.342 -8.592,-5.696c-3.167,-1.358 -6.6,-1.987 -10.038,-1.987c-3.525,0 -6.871,0.633 -10.129,1.987c-3.254,1.358 -6.058,3.254 -8.5,5.696c-2.533,2.533 -4.429,5.333 -5.787,8.592c-1.267,3.254 -1.988,6.6 -1.988,10.037c0,3.525 0.725,6.871 1.988,10.129c1.358,3.254 3.254,6.058 5.787,8.592c2.442,2.442 5.246,4.342 8.5,5.696c3.254,1.358 6.6,1.987 10.129,1.987c3.438,0 6.871,-0.633 10.038,-1.987c3.254,-1.358 6.15,-3.254 8.592,-5.696c2.442,-2.533 4.342,-5.333 5.696,-8.592c1.358,-3.254 1.988,-6.6 1.988,-10.129Z" style="fill:#cdb587;fill-rule:nonzero;"/><g><path d="M4339.013,2529.642c0,-3.979 -0.812,-7.867 -2.35,-11.575c-1.537,-3.617 -3.708,-6.963 -6.508,-9.767c-2.804,-2.804 -6.15,-4.975 -9.854,-6.508c-3.708,-1.537 -7.504,-2.35 -11.483,-2.35c-4.071,0 -7.867,0.813 -11.575,2.35c-3.708,1.538 -6.963,3.708 -9.854,6.508c-2.804,2.804 -4.975,6.15 -6.508,9.767c-1.538,3.708 -2.35,7.596 -2.35,11.575c0,4.071 0.812,7.867 2.35,11.575c1.537,3.708 3.708,6.963 6.508,9.854c2.892,2.804 6.15,4.975 9.854,6.508c3.708,1.537 7.504,2.35 11.575,2.35c3.979,0 7.775,-0.812 11.483,-2.35c3.708,-1.538 7.054,-3.708 9.854,-6.508c2.804,-2.892 4.975,-6.15 6.508,-9.854c1.537,-3.708 2.35,-7.504 2.35,-11.575Z" style="fill:#cdb587;fill-rule:nonzero;"/></g><g><path d="M4250.217,2513.275c0,-4.429 -0.812,-8.771 -2.533,-12.929c-1.717,-4.158 -4.158,-7.775 -7.325,-10.942c-3.167,-3.167 -6.783,-5.604 -10.942,-7.325c-4.158,-1.717 -8.408,-2.533 -12.929,-2.533c-4.429,0 -8.771,0.812 -12.929,2.533c-4.158,1.717 -7.775,4.158 -10.942,7.325c-3.167,3.167 -5.604,6.783 -7.325,10.942c-1.717,4.158 -2.533,8.5 -2.533,12.929c0,4.521 0.813,8.771 2.533,12.929c1.717,4.158 4.158,7.775 7.325,10.942c3.167,3.167 6.783,5.604 10.942,7.325c4.158,1.717 8.5,2.533 12.929,2.533c4.521,0 8.771,-0.812 12.929,-2.533c4.158,-1.717 7.775,-4.158 10.942,-7.325c3.167,-3.167 5.604,-6.783 7.325,-10.942c1.717,-4.158 2.533,-8.408 2.533,-12.929Z" style="fill:#cdb587;fill-rule:nonzero;"/></g></g></g><path d="M7095.271,930.25c-40.058,-50.004 -110.496,-53.258 -169.542,-51.904c10.85,-23.779 19.712,-51.45 9.404,-77.042c-13.292,-33.275 -47.292,-53.892 -81.108,-60.854c-0.179,15.912 0.633,32.462 -5.154,47.654c-16.458,39.788 -47.021,75.504 -88.704,89.608c-73.062,21.7 91.325,16.096 -1802.479,15.825c-0.092,23.15 -0.092,46.296 0,69.533c567.221,0 1134.529,-0.092 1701.842,0c40.058,1.358 80.658,8.229 117.458,24.413c31.467,14.379 52.083,43.675 67.725,73.242c9.946,17.633 8.679,38.429 10.308,57.871c32.642,-9.946 65.829,-28.575 80.113,-61.217c10.579,-25.862 1.446,-54.163 -10.038,-77.946c59.679,3.437 126.592,-3.346 170.175,-49.192l0,0.008Z" style="fill:#cdb587;fill-rule:nonzero;"/><path d="M7095.271,2058.721c-40.058,-50.004 -110.496,-53.258 -169.542,-51.904c10.85,-23.779 19.712,-51.45 9.404,-77.042c-13.292,-33.275 -47.292,-53.892 -81.108,-60.854c-0.179,15.913 0.633,32.463 -5.154,47.654c-16.458,39.787 -47.021,75.504 -88.704,89.608c-73.062,21.7 91.325,16.096 -1802.479,15.825c-0.092,23.15 -0.092,46.296 0,69.533c567.221,0 1134.529,-0.092 1701.842,0c40.058,1.358 80.658,8.229 117.458,24.412c31.467,14.379 52.083,43.675 67.725,73.242c9.946,17.633 8.679,38.429 10.308,57.871c32.642,-9.946 65.829,-28.575 80.113,-61.217c10.579,-25.863 1.446,-54.163 -10.038,-77.946c59.679,3.438 126.592,-3.346 170.175,-49.192l0,0.008Z" style="fill:#cdb587;fill-rule:nonzero;"/><g><g><g><path d="M0,930.25c40.058,-50.004 110.496,-53.258 169.542,-51.904c-10.85,-23.779 -19.713,-51.45 -9.404,-77.042c13.292,-33.275 47.292,-53.892 81.2,-60.854c0.092,15.912 -0.725,32.462 5.154,47.654c16.367,39.788 46.929,75.504 88.612,89.608c73.062,21.7 -91.325,16.096 1802.479,15.825c0.179,23.15 0.092,46.296 0,69.533c-567.221,0 -1134.529,-0.092 -1701.842,0c-40.058,1.358 -80.658,8.229 -117.458,24.413c-31.467,14.379 -52.083,43.675 -67.725,73.242c-9.946,17.633 -8.679,38.429 -10.308,57.871c-32.55,-9.946 -65.829,-28.575 -80.113,-61.217c-10.488,-25.862 -1.446,-54.163 10.037,-77.946c-59.679,3.437 -126.592,-3.346 -170.175,-49.192l0,0.008Z" style="fill:#cdb587;fill-rule:nonzero;"/></g></g></g><g><g><g><path d="M0,2055.196c40.058,-50.004 110.496,-53.258 169.542,-51.904c-10.85,-23.779 -19.713,-51.45 -9.404,-77.129c13.292,-33.183 47.292,-53.8 81.2,-60.763c0.092,15.912 -0.725,32.462 5.154,47.654c16.367,39.787 46.929,75.504 88.612,89.608c73.062,21.7 -91.325,16.096 1802.479,15.825c0.179,23.15 0.092,46.296 0,69.533c-567.221,0 -1134.529,-0.092 -1701.842,0c-40.058,1.358 -80.658,8.229 -117.458,24.412c-31.467,14.287 -52.083,43.675 -67.725,73.242c-9.946,17.633 -8.679,38.338 -10.308,57.871c-32.55,-9.946 -65.829,-28.575 -80.113,-61.217c-10.488,-25.863 -1.446,-54.162 10.037,-77.946c-59.679,3.438 -126.592,-3.346 -170.175,-49.192l0,0.004Z" style="fill:#cdb587;fill-rule:nonzero;"/></g></g></g><g><path d="M412.372,1846.994c-23.148,0 -39.496,-4.919 -49.045,-14.757c-9.549,-9.838 -14.323,-20.544 -14.323,-32.118c0,-13.31 3.762,-23.148 11.285,-29.514c7.523,-6.366 15.914,-9.549 25.174,-9.549c8.102,0 15.191,2.459 21.267,7.378c6.076,4.919 9.115,12.297 9.115,22.135c0,6.944 -2.604,13.889 -7.812,20.833c2.894,1.157 6.076,1.881 9.549,2.17c3.472,0.289 6.655,0.434 9.549,0.434c36.458,0 69.589,-14.034 99.392,-42.101c29.803,-28.067 52.228,-66.695 67.274,-115.885c-33.565,-6.944 -60.908,-18.374 -82.031,-34.288c-21.123,-15.914 -31.684,-33.999 -31.684,-54.253c0,-13.889 4.34,-26.62 13.021,-38.194c8.681,-11.574 20.544,-21.991 35.59,-31.25c15.046,-9.259 32.697,-17.216 52.951,-23.871c20.255,-6.655 41.956,-11.429 65.104,-14.323l65.972,-243.055c5.208,-21.412 8.681,-38.194 10.417,-50.347l-19.965,0c-19.097,0 -36.314,6.221 -51.649,18.663c-15.336,12.442 -26.186,29.369 -32.552,50.781l-3.472,-0.868l15.625,-127.604c2.315,2.315 6.8,4.051 13.455,5.208c6.655,1.157 14.034,1.736 22.135,1.736l250,0c8.102,0 15.48,-0.579 22.135,-1.736c6.655,-1.157 11.14,-2.894 13.455,-5.208l15.625,127.604l-3.472,0.868c-6.366,-21.412 -17.216,-38.339 -32.552,-50.781c-15.336,-12.442 -32.552,-18.663 -51.649,-18.663l-14.757,0c1.157,6.366 2.604,13.744 4.34,22.135c1.736,8.391 4.051,17.795 6.944,28.212l130.208,461.805c5.208,17.361 9.838,31.973 13.889,43.837c4.051,11.863 8.391,21.557 13.021,29.08c4.63,7.523 9.693,13.31 15.191,17.361c5.498,4.051 11.719,7.234 18.663,9.549l0,2.604l-157.986,0l0,-2.604c12.731,-4.63 19.821,-14.323 21.267,-29.08c1.447,-14.757 -2.459,-38.339 -11.719,-70.746l-29.514,-105.035c-8.681,-15.046 -19.676,-28.212 -32.986,-39.496c-13.31,-11.285 -28.067,-20.544 -44.271,-27.778c-16.204,-7.234 -33.42,-12.587 -51.649,-16.059c-18.229,-3.472 -36.314,-5.208 -54.253,-5.208l-40.799,150.173c6.944,0 16.059,-0.579 27.344,-1.736c11.285,-1.157 22.425,-3.328 33.42,-6.51c10.995,-3.183 20.544,-7.668 28.646,-13.455c8.102,-5.787 12.153,-13.31 12.153,-22.569c0,-8.102 -3.472,-13.889 -10.417,-17.361c-6.944,-3.472 -13.6,-5.208 -19.965,-5.208c-8.102,0 -15.625,1.736 -22.569,5.208c6.944,-15.046 17.506,-26.186 31.684,-33.42c14.178,-7.234 28.79,-10.851 43.837,-10.851c15.046,0 28.356,3.617 39.93,10.851c11.574,7.234 17.361,17.795 17.361,31.684c0,12.731 -4.774,24.595 -14.323,35.59c-9.549,10.995 -22.714,20.544 -39.496,28.646c-16.782,8.102 -36.314,14.612 -58.594,19.531c-22.28,4.919 -46.152,7.378 -71.614,7.378l-5.208,0c-8.102,34.143 -10.561,60.908 -7.378,80.295c3.183,19.387 11.429,33.131 24.74,41.233l-14.757,19.965c-12.731,-6.944 -28.935,-9.259 -48.611,-6.944c1.157,-8.102 -0.434,-14.034 -4.774,-17.795c-4.34,-3.762 -9.404,-5.642 -15.191,-5.642c-6.366,0 -12.008,2.17 -16.927,6.51c-4.919,4.34 -7.378,10.561 -7.378,18.663c0,3.472 0.289,6.076 0.868,7.812c-25.463,7.523 -50.781,16.059 -75.955,25.608c-25.174,9.549 -51.939,14.323 -80.295,14.323Zm371.527,-646.7l-69.444,256.076c27.199,1.157 53.819,4.774 79.861,10.851c26.042,6.076 50.347,15.48 72.917,28.212l-83.333,-295.138Zm-145.833,293.402c-21.991,6.366 -39.641,15.336 -52.951,26.91c-13.31,11.574 -19.965,24.884 -19.965,39.93c0,11.574 3.617,22.425 10.851,32.552c7.234,10.127 16.638,18.663 28.212,25.608l33.854,-125Z" style="fill:#ddd;fill-rule:nonzero;"/><g><path d="M1091.19,1707.238c13.889,-4.63 23.582,-14.323 29.08,-29.08c5.498,-14.757 8.247,-38.339 8.247,-70.746l0,-289.93c0,-32.407 -2.749,-55.989 -8.247,-70.746c-5.498,-14.757 -15.191,-24.45 -29.08,-29.08l0,-2.604l270.833,0c6.366,0 13.165,-0.434 20.399,-1.302c7.234,-0.868 12.297,-2.749 15.191,-5.642l-46.007,93.75l-2.604,-0.868c2.894,-24.306 -13.889,-36.458 -50.347,-36.458l-92.014,0l0,130.208l1.736,0c6.366,-11.574 14.612,-20.833 24.74,-27.778c10.127,-6.944 21.846,-10.417 35.156,-10.417c8.102,0 15.77,1.013 23.003,3.038c7.234,2.025 14.323,4.34 21.267,6.944c6.944,2.604 14.034,5.064 21.267,7.378c7.234,2.315 14.323,3.472 21.267,3.472c14.468,0 25.174,-5.498 32.118,-16.493l2.604,0.868c-1.736,8.102 -4.919,16.348 -9.549,24.74c-4.63,8.391 -10.127,15.914 -16.493,22.569c-6.366,6.655 -13.455,12.153 -21.267,16.493c-7.812,4.34 -16.348,6.51 -25.608,6.51c-7.523,0 -14.757,-1.302 -21.701,-3.906c-6.944,-2.604 -13.889,-5.353 -20.833,-8.247c-6.944,-2.894 -14.034,-5.642 -21.267,-8.247c-7.234,-2.604 -14.902,-3.906 -23.003,-3.906c-9.259,0 -17.072,3.183 -23.437,9.549l0,240.451l87.673,0c24.306,0 46.152,-6.076 65.538,-18.229c19.387,-12.153 33.131,-28.356 41.233,-48.611l3.472,0.868l-23.437,127.604c-1.736,-2.894 -5.064,-5.208 -9.983,-6.944c-4.919,-1.736 -9.983,-2.604 -15.191,-2.604l-264.757,0l0,-2.604Z" style="fill:#ddd;fill-rule:nonzero;"/><path d="M1553.867,1707.238c13.889,-4.63 23.582,-14.323 29.08,-29.08c5.498,-14.757 8.247,-38.339 8.247,-70.746l0,-340.277l-31.25,0c-19.097,0 -36.314,6.221 -51.649,18.663c-15.336,12.442 -26.186,29.369 -32.552,50.781l-3.472,-0.868l15.625,-127.604c2.315,2.315 6.8,4.051 13.455,5.208c6.655,1.157 14.034,1.736 22.135,1.736l212.673,0c8.102,0 15.48,-0.579 22.135,-1.736c6.655,-1.157 11.14,-2.894 13.455,-5.208l15.625,127.604l-3.472,0.868c-6.366,-21.412 -17.216,-38.339 -32.552,-50.781c-15.336,-12.442 -32.552,-18.663 -51.649,-18.663l-30.382,0l0,340.277c0,32.407 2.749,55.989 8.247,70.746c5.498,14.757 15.191,24.45 29.08,29.08l0,2.604l-152.778,0l0,-2.604Z" style="fill:#ddd;fill-rule:nonzero;"/><path d="M1856.815,1707.238c13.889,-4.63 23.582,-14.323 29.08,-29.08c5.498,-14.757 8.247,-38.339 8.247,-70.746l0,-289.93c0,-32.407 -2.749,-55.989 -8.247,-70.746c-5.498,-14.757 -15.191,-24.45 -29.08,-29.08l0,-2.604l152.778,0l0,2.604c-13.889,4.63 -23.582,14.323 -29.08,29.08c-5.498,14.757 -8.247,38.339 -8.247,70.746l0,26.042l149.305,0l0,-26.042c0,-32.407 -2.749,-55.989 -8.247,-70.746c-5.498,-14.757 -15.191,-24.45 -29.08,-29.08l0,-2.604l152.778,0l0,2.604c-13.889,4.63 -23.582,14.323 -29.08,29.08c-5.498,14.757 -8.247,38.339 -8.247,70.746l0,289.93c0,32.407 2.749,55.989 8.247,70.746c5.498,14.757 15.191,24.45 29.08,29.08l0,2.604l-152.778,0l0,-2.604c13.889,-4.63 23.582,-14.323 29.08,-29.08c5.498,-14.757 8.247,-38.339 8.247,-70.746l0,-164.062l-149.305,0l0,164.062c0,32.407 2.749,55.989 8.247,70.746c5.498,14.757 15.191,24.45 29.08,29.08l0,2.604l-152.778,0l0,-2.604Zm264.757,-281.25l0,-21.701l-149.305,0l0,21.701l149.305,0Z" style="fill:#ddd;fill-rule:nonzero;"/><path d="M2306.469,1707.238c13.889,-4.63 23.582,-14.323 29.08,-29.08c5.498,-14.757 8.247,-38.339 8.247,-70.746l0,-289.93c0,-32.407 -2.749,-55.989 -8.247,-70.746c-5.498,-14.757 -15.191,-24.45 -29.08,-29.08l0,-2.604l270.833,0c6.366,0 13.165,-0.434 20.399,-1.302c7.234,-0.868 12.297,-2.749 15.191,-5.642l-46.007,93.75l-2.604,-0.868c2.894,-24.306 -13.889,-36.458 -50.347,-36.458l-92.014,0l0,130.208l1.736,0c6.366,-11.574 14.612,-20.833 24.74,-27.778c10.127,-6.944 21.846,-10.417 35.156,-10.417c8.102,0 15.77,1.013 23.003,3.038c7.234,2.025 14.323,4.34 21.267,6.944c6.944,2.604 14.034,5.064 21.267,7.378c7.234,2.315 14.323,3.472 21.267,3.472c14.468,0 25.174,-5.498 32.118,-16.493l2.604,0.868c-1.736,8.102 -4.919,16.348 -9.549,24.74c-4.63,8.391 -10.127,15.914 -16.493,22.569c-6.366,6.655 -13.455,12.153 -21.267,16.493c-7.812,4.34 -16.348,6.51 -25.608,6.51c-7.523,0 -14.757,-1.302 -21.701,-3.906c-6.944,-2.604 -13.889,-5.353 -20.833,-8.247c-6.944,-2.894 -14.034,-5.642 -21.267,-8.247c-7.234,-2.604 -14.902,-3.906 -23.003,-3.906c-9.259,0 -17.072,3.183 -23.437,9.549l0,240.451l87.673,0c24.306,0 46.152,-6.076 65.538,-18.229c19.387,-12.153 33.131,-28.356 41.233,-48.611l3.472,0.868l-23.437,127.604c-1.736,-2.894 -5.064,-5.208 -9.983,-6.944c-4.919,-1.736 -9.983,-2.604 -15.191,-2.604l-264.757,0l0,-2.604Z" style="fill:#ddd;fill-rule:nonzero;"/><path d="M2687.544,1707.238c13.889,-4.63 23.582,-14.323 29.08,-29.08c5.498,-14.757 8.247,-38.339 8.247,-70.746l0,-289.93c0,-32.407 -2.749,-55.989 -8.247,-70.746c-5.498,-14.757 -15.191,-24.45 -29.08,-29.08l0,-2.604l210.937,0c20.833,0 39.93,2.894 57.292,8.681c17.361,5.787 32.118,13.889 44.271,24.306c12.153,10.417 21.557,22.569 28.212,36.458c6.655,13.889 9.983,29.224 9.983,46.007c0,16.204 -3.038,31.105 -9.115,44.705c-6.076,13.6 -14.323,25.318 -24.74,35.156c-10.417,9.838 -22.714,17.361 -36.892,22.569c-14.178,5.208 -29.369,7.523 -45.573,6.944c19.097,24.306 37.326,53.385 54.687,87.239c17.361,33.854 31.539,67.853 42.535,101.996c13.889,43.403 30.093,69.444 48.611,78.125l0,2.604l-147.569,0l-0.868,-2.604c20.255,-9.259 26.042,-32.118 17.361,-68.576c-5.208,-21.991 -12.153,-44.705 -20.833,-68.142c-8.681,-23.437 -18.663,-46.152 -29.948,-68.142c-11.285,-21.991 -24.016,-42.101 -38.194,-60.33c-14.178,-18.229 -29.08,-33.131 -44.705,-44.705l0,210.069c0,32.407 2.749,55.989 8.247,70.746c5.498,14.757 15.191,24.45 29.08,29.08l0,2.604l-152.778,0l0,-2.604Zm204.861,-314.236c19.676,0 34.577,-5.787 44.705,-17.361c10.127,-11.574 15.191,-24.884 15.191,-39.93c0,-20.833 -8.536,-38.194 -25.608,-52.083c-17.072,-13.889 -39.207,-20.833 -66.406,-20.833l-57.292,0l0,17.361c0,16.204 2.459,31.25 7.378,45.139c4.919,13.889 11.574,25.897 19.965,36.024c8.391,10.127 17.94,17.94 28.646,23.437c10.706,5.498 21.846,8.247 33.42,8.247Z" style="fill:#ddd;fill-rule:nonzero;"/><path d="M3266.539,1717.654c-27.778,0 -54.832,-5.498 -81.163,-16.493c-26.331,-10.995 -48.177,-27.488 -65.538,-49.479l32.118,-117.187l2.604,0c2.315,21.412 7.523,39.93 15.625,55.555c8.102,15.625 17.795,28.646 29.08,39.062c11.285,10.417 23.582,18.084 36.892,23.003c13.31,4.919 26.331,7.378 39.062,7.378c19.676,0 36.603,-5.932 50.781,-17.795c14.178,-11.863 21.267,-29.08 21.267,-51.649c0,-19.097 -5.353,-35.156 -16.059,-48.177c-10.706,-13.021 -24.016,-25.029 -39.93,-36.024c-15.914,-10.995 -33.275,-21.701 -52.083,-32.118c-18.808,-10.417 -36.169,-21.991 -52.083,-34.722c-15.914,-12.731 -29.224,-27.633 -39.93,-44.705c-10.706,-17.072 -16.059,-38.05 -16.059,-62.934c0,-37.037 12.442,-66.985 37.326,-89.844c24.884,-22.859 57.581,-34.288 98.09,-34.288c12.731,0 24.45,1.013 35.156,3.038c10.706,2.025 20.399,4.34 29.08,6.944c8.681,2.604 16.348,4.919 23.003,6.944c6.655,2.025 12.297,3.038 16.927,3.038c4.63,0 8.102,-1.447 10.417,-4.34l4.34,119.791l-3.472,0.868c-9.259,-24.884 -24.016,-45.283 -44.271,-61.198c-20.255,-15.914 -41.956,-23.871 -65.104,-23.871c-17.361,0 -32.407,4.919 -45.139,14.757c-12.731,9.838 -19.097,24.884 -19.097,45.139c0,17.361 5.353,32.263 16.059,44.705c10.706,12.442 24.016,23.871 39.93,34.288c15.914,10.417 33.131,20.689 51.649,30.816c18.518,10.127 35.735,21.701 51.649,34.722c15.914,13.021 29.224,28.356 39.93,46.007c10.706,17.65 16.059,39.207 16.059,64.67c0,24.306 -4.485,45.428 -13.455,63.368c-8.97,17.94 -20.689,32.986 -35.156,45.139c-14.468,12.153 -31.105,21.123 -49.913,26.91c-18.808,5.787 -38.339,8.681 -58.594,8.681Z" style="fill:#ddd;fill-rule:nonzero;"/><path d="M3463.589,1707.238c10.995,-4.051 20.11,-12.008 27.344,-23.871c7.234,-11.863 14.612,-32.552 22.135,-62.066l78.125,-299.479c8.681,-32.986 12.587,-57.581 11.719,-73.785c-0.868,-16.204 -6.221,-26.331 -16.059,-30.382l0,-2.604l126.736,0l109.375,406.249c6.944,27.778 14.034,47.888 21.267,60.33c7.234,12.442 16.638,20.978 28.212,25.608l0,2.604l-150.173,0l0,-2.604c12.153,-4.63 19.676,-14.612 22.569,-29.948c2.894,-15.336 0.289,-38.628 -7.812,-69.878l-5.208,-19.097l-147.569,0l-4.34,19.097c-7.523,31.25 -10.127,54.398 -7.812,69.444c2.315,15.046 9.838,25.174 22.569,30.382l0,2.604l-131.076,0l0,-2.604Zm255.208,-171.007l-64.236,-235.243l-57.292,235.243l121.528,0Z" style="fill:#ddd;fill-rule:nonzero;"/><path d="M3912.374,1707.238c13.889,-4.63 23.582,-14.323 29.08,-29.08c5.498,-14.757 8.247,-38.339 8.247,-70.746l0,-289.93c0,-32.407 -2.749,-55.989 -8.247,-70.746c-5.498,-14.757 -15.191,-24.45 -29.08,-29.08l0,-2.604l152.778,0l0,2.604c-13.889,4.63 -23.582,14.323 -29.08,29.08c-5.498,14.757 -8.247,38.339 -8.247,70.746l0,340.277l61.632,0c24.306,0 46.152,-6.076 65.538,-18.229c19.387,-12.153 33.131,-28.356 41.233,-48.611l3.472,0.868l-23.437,127.604c-1.736,-2.894 -5.064,-5.208 -9.983,-6.944c-4.919,-1.736 -9.983,-2.604 -15.191,-2.604l-238.715,0l0,-2.604Z" style="fill:#ddd;fill-rule:nonzero;"/><path d="M4432.336,1717.654c-26.62,0 -50.636,-6.221 -72.048,-18.663c-21.412,-12.442 -39.641,-30.093 -54.687,-52.951c-15.046,-22.859 -26.62,-50.636 -34.722,-83.333c-8.102,-32.697 -12.153,-69.01 -12.153,-108.941c0,-77.546 15.336,-138.021 46.007,-181.423c30.671,-43.403 73.206,-65.104 127.604,-65.104c26.042,0 49.624,6.221 70.746,18.663c21.123,12.442 39.352,29.803 54.687,52.083c15.336,22.28 27.199,49.045 35.59,80.295c8.391,31.25 12.587,65.972 12.587,104.166c0,38.194 -4.196,72.917 -12.587,104.167c-8.391,31.25 -20.255,58.015 -35.59,80.295c-15.336,22.28 -33.565,39.641 -54.687,52.083c-21.123,12.442 -44.705,18.663 -70.746,18.663Zm26.042,-52.951c12.153,0 22.714,-3.762 31.684,-11.285c8.97,-7.523 16.348,-17.795 22.135,-30.816c5.787,-13.021 10.127,-28.212 13.021,-45.573c2.894,-17.361 4.34,-35.88 4.34,-55.555c0,-28.935 -2.894,-58.883 -8.681,-89.844c-5.787,-30.961 -14.034,-59.172 -24.74,-84.635c-10.706,-25.463 -23.582,-46.296 -38.628,-62.5c-15.046,-16.204 -31.829,-24.306 -50.347,-24.306c-12.731,0 -23.582,3.762 -32.552,11.285c-8.97,7.523 -16.348,17.795 -22.135,30.816c-5.787,13.021 -10.127,28.212 -13.021,45.573c-2.894,17.361 -4.34,35.59 -4.34,54.687c0,29.514 2.894,59.751 8.681,90.712c5.787,30.961 14.034,59.172 24.74,84.635c10.706,25.463 23.727,46.296 39.062,62.5c15.336,16.204 32.263,24.306 50.781,24.306Z" style="fill:#ddd;fill-rule:nonzero;"/><path d="M4684.074,1707.238c9.259,-2.894 16.348,-7.812 21.267,-14.757c4.919,-6.944 8.536,-14.757 10.851,-23.437c2.315,-8.681 3.762,-17.795 4.34,-27.344c0.579,-9.549 0.868,-18.084 0.868,-25.608l0,-295.138c0,-29.514 -2.894,-52.373 -8.681,-68.576c-5.787,-16.204 -15.336,-27.778 -28.646,-34.722l0,-2.604c37.616,-2.315 71.036,1.881 100.26,12.587c29.224,10.706 54.977,26.042 77.257,46.007c22.28,19.965 41.377,43.692 57.292,71.18c15.914,27.488 29.08,56.858 39.496,88.107l0,-124.132c0,-8.102 -0.289,-16.782 -0.868,-26.042c-0.579,-9.259 -2.025,-18.229 -4.34,-26.91c-2.315,-8.681 -5.932,-16.493 -10.851,-23.437c-4.919,-6.944 -12.008,-11.863 -21.267,-14.757l0,-2.604l137.153,0l0,2.604c-9.259,2.894 -16.348,7.812 -21.267,14.757c-4.919,6.944 -8.536,14.757 -10.851,23.437c-2.315,8.681 -3.762,17.65 -4.34,26.91c-0.579,9.259 -0.868,17.94 -0.868,26.042l0,401.041l-61.632,0c0,-48.032 -4.485,-94.039 -13.455,-138.021c-8.97,-43.981 -21.412,-83.333 -37.326,-118.055c-15.914,-34.722 -34.577,-63.368 -55.989,-85.937c-21.412,-22.569 -44.271,-36.458 -68.576,-41.667l0,289.93c0,7.523 0.289,16.059 0.868,25.608c0.579,9.549 2.025,18.663 4.34,27.344c2.315,8.681 5.932,16.493 10.851,23.437c4.919,6.944 12.008,11.863 21.267,14.757l0,2.604l-137.153,0l0,-2.604Z" style="fill:#ddd;fill-rule:nonzero;"/><path d="M5401.957,1708.106c13.889,-5.208 23.582,-15.046 29.08,-29.514c5.498,-14.468 8.247,-37.905 8.247,-70.312l0,-256.076c0,-32.407 -2.749,-55.989 -8.247,-70.746c-5.498,-14.757 -15.191,-24.45 -29.08,-29.08l0,-2.604l115.451,-49.479l0,407.985c0,32.407 2.749,55.845 8.247,70.312c5.498,14.468 15.191,24.306 29.08,29.514l0,1.736l-152.778,0l0,-1.736Z" style="fill:#ddd;fill-rule:nonzero;"/><path d="M5799.525,1717.654c-23.148,0 -44.415,-3.183 -63.802,-9.549c-19.387,-6.366 -35.88,-15.336 -49.479,-26.91c-13.6,-11.574 -24.161,-25.608 -31.684,-42.101c-7.523,-16.493 -11.285,-34.867 -11.285,-55.121c0,-16.204 2.894,-30.816 8.681,-43.837c5.787,-13.021 13.31,-24.595 22.569,-34.722c9.259,-10.127 19.676,-18.953 31.25,-26.476c11.574,-7.523 23.148,-13.889 34.722,-19.097c-10.995,-6.366 -21.267,-13.31 -30.816,-20.833c-9.549,-7.523 -17.94,-16.059 -25.174,-25.608c-7.234,-9.549 -12.876,-20.255 -16.927,-32.118c-4.051,-11.863 -6.076,-25.608 -6.076,-41.233c0,-19.676 3.472,-37.616 10.417,-53.819c6.944,-16.204 16.638,-30.093 29.08,-41.667c12.442,-11.574 27.488,-20.544 45.139,-26.91c17.65,-6.366 36.892,-9.549 57.726,-9.549c17.94,0 35.446,2.604 52.517,7.812c17.072,5.208 32.263,12.876 45.573,23.003c13.31,10.127 24.016,22.859 32.118,38.194c8.102,15.336 12.153,33.131 12.153,53.385c0,24.306 -7.234,47.02 -21.701,68.142c-14.468,21.123 -35.88,35.735 -64.236,43.837c13.889,6.366 27.199,13.455 39.93,21.267c12.731,7.812 24.016,17.072 33.854,27.778c9.838,10.706 17.65,23.293 23.437,37.76c5.787,14.468 8.681,31.829 8.681,52.083c0,19.676 -4.051,37.905 -12.153,54.687c-8.102,16.782 -19.531,31.25 -34.288,43.403c-14.757,12.153 -32.407,21.557 -52.951,28.212c-20.544,6.655 -42.969,9.983 -67.274,9.983Zm-61.632,-388.888c0,23.727 7.234,42.39 21.701,55.989c14.468,13.6 31.829,25.318 52.083,35.156c20.833,-8.102 36.314,-20.399 46.441,-36.892c10.127,-16.493 15.191,-33.42 15.191,-50.781c0,-24.884 -6.944,-43.547 -20.833,-55.989c-13.889,-12.442 -29.803,-18.663 -47.743,-18.663c-19.676,0 -35.735,6.655 -48.177,19.965c-12.442,13.31 -18.663,30.382 -18.663,51.215Zm66.84,341.145c24.884,0 44.849,-7.234 59.896,-21.701c15.046,-14.468 22.569,-33.565 22.569,-57.292c0,-14.468 -2.749,-26.91 -8.247,-37.326c-5.498,-10.417 -12.876,-19.821 -22.135,-28.212c-9.259,-8.391 -19.821,-15.77 -31.684,-22.135c-11.863,-6.366 -24.161,-12.731 -36.892,-19.097c-19.097,8.681 -34.722,21.846 -46.875,39.496c-12.153,17.65 -18.229,38.339 -18.229,62.066c0,24.884 7.523,45.139 22.569,60.764c15.046,15.625 34.722,23.437 59.028,23.437Z" style="fill:#ddd;fill-rule:nonzero;"/><path d="M6219.662,1717.654c-23.148,0 -44.415,-3.183 -63.802,-9.549c-19.387,-6.366 -35.88,-15.336 -49.479,-26.91c-13.6,-11.574 -24.161,-25.608 -31.684,-42.101c-7.523,-16.493 -11.285,-34.867 -11.285,-55.121c0,-16.204 2.894,-30.816 8.681,-43.837c5.787,-13.021 13.31,-24.595 22.569,-34.722c9.259,-10.127 19.676,-18.953 31.25,-26.476c11.574,-7.523 23.148,-13.889 34.722,-19.097c-10.995,-6.366 -21.267,-13.31 -30.816,-20.833c-9.549,-7.523 -17.94,-16.059 -25.174,-25.608c-7.234,-9.549 -12.876,-20.255 -16.927,-32.118c-4.051,-11.863 -6.076,-25.608 -6.076,-41.233c0,-19.676 3.472,-37.616 10.417,-53.819c6.944,-16.204 16.638,-30.093 29.08,-41.667c12.442,-11.574 27.488,-20.544 45.139,-26.91c17.65,-6.366 36.892,-9.549 57.726,-9.549c17.94,0 35.446,2.604 52.517,7.812c17.072,5.208 32.263,12.876 45.573,23.003c13.31,10.127 24.016,22.859 32.118,38.194c8.102,15.336 12.153,33.131 12.153,53.385c0,24.306 -7.234,47.02 -21.701,68.142c-14.468,21.123 -35.88,35.735 -64.236,43.837c13.889,6.366 27.199,13.455 39.93,21.267c12.731,7.812 24.016,17.072 33.854,27.778c9.838,10.706 17.65,23.293 23.437,37.76c5.787,14.468 8.681,31.829 8.681,52.083c0,19.676 -4.051,37.905 -12.153,54.687c-8.102,16.782 -19.531,31.25 -34.288,43.403c-14.757,12.153 -32.407,21.557 -52.951,28.212c-20.544,6.655 -42.969,9.983 -67.274,9.983Zm-61.632,-388.888c0,23.727 7.234,42.39 21.701,55.989c14.468,13.6 31.829,25.318 52.083,35.156c20.833,-8.102 36.314,-20.399 46.441,-36.892c10.127,-16.493 15.191,-33.42 15.191,-50.781c0,-24.884 -6.944,-43.547 -20.833,-55.989c-13.889,-12.442 -29.803,-18.663 -47.743,-18.663c-19.676,0 -35.735,6.655 -48.177,19.965c-12.442,13.31 -18.663,30.382 -18.663,51.215Zm66.84,341.145c24.884,0 44.849,-7.234 59.896,-21.701c15.046,-14.468 22.569,-33.565 22.569,-57.292c0,-14.468 -2.749,-26.91 -8.247,-37.326c-5.498,-10.417 -12.876,-19.821 -22.135,-28.212c-9.259,-8.391 -19.821,-15.77 -31.684,-22.135c-11.863,-6.366 -24.161,-12.731 -36.892,-19.097c-19.097,8.681 -34.722,21.846 -46.875,39.496c-12.153,17.65 -18.229,38.339 -18.229,62.066c0,24.884 7.523,45.139 22.569,60.764c15.046,15.625 34.722,23.437 59.028,23.437Z" style="fill:#ddd;fill-rule:nonzero;"/><path d="M6603.346,1717.654c-9.259,0 -19.097,-1.157 -29.514,-3.472c-10.417,-2.315 -19.965,-5.932 -28.646,-10.851c-8.681,-4.919 -15.914,-11.285 -21.701,-19.097c-5.787,-7.812 -8.681,-17.506 -8.681,-29.08c0,-10.995 2.604,-20.544 7.812,-28.646c5.208,-8.102 11.863,-14.757 19.965,-19.965c8.102,-5.208 17.072,-9.115 26.91,-11.719c9.838,-2.604 19.387,-3.906 28.646,-3.906l6.076,0l1.736,3.472c-6.366,3.472 -11.429,8.247 -15.191,14.323c-3.762,6.076 -5.642,12.876 -5.642,20.399c0,11.574 3.906,20.399 11.719,26.476c7.812,6.076 17.216,9.115 28.212,9.115c23.148,0 42.245,-9.404 57.292,-28.212c15.046,-18.808 26.91,-41.088 35.59,-66.84c8.681,-25.752 14.757,-52.083 18.229,-78.993c3.472,-26.91 5.208,-48.466 5.208,-64.67c0,-54.398 -7.957,-96.209 -23.871,-125.434c-15.914,-29.224 -38.339,-43.837 -67.274,-43.837c-26.042,0 -46.586,11.285 -61.632,33.854c-15.046,22.569 -22.569,52.951 -22.569,91.146c0,37.616 7.378,67.708 22.135,90.278c14.757,22.569 34.288,33.854 58.594,33.854c17.361,0 32.841,-6.51 46.441,-19.531c13.6,-13.021 23.003,-30.527 28.212,-52.517l7.812,3.472c-4.63,35.301 -16.927,63.657 -36.892,85.069c-19.965,21.412 -44.126,32.118 -72.483,32.118c-18.518,0 -35.59,-3.906 -51.215,-11.719c-15.625,-7.812 -29.08,-18.663 -40.365,-32.552c-11.285,-13.889 -20.11,-30.527 -26.476,-49.913c-6.366,-19.387 -9.549,-40.654 -9.549,-63.802c0,-27.199 4.196,-52.228 12.587,-75.087c8.391,-22.859 19.821,-42.535 34.288,-59.028c14.468,-16.493 31.684,-29.514 51.649,-39.062c19.965,-9.549 41.522,-14.323 64.67,-14.323c27.778,0 51.939,6.221 72.483,18.663c20.544,12.442 37.616,28.935 51.215,49.479c13.6,20.544 23.727,44.271 30.382,71.18c6.655,26.91 9.983,54.832 9.983,83.767c0,34.143 -4.63,68.287 -13.889,102.43c-9.259,34.143 -22.859,64.815 -40.799,92.014c-17.94,27.199 -40.365,49.19 -67.274,65.972c-26.91,16.782 -58.304,25.174 -94.184,25.174Z" style="fill:#ddd;fill-rule:nonzero;"/></g></g></svg>